<?xml version="1.0" encoding="utf-8" standalone="no"?>
<!DOCTYPE svg PUBLIC "-//W3C//DTD SVG 1.1//EN"
  "http://www.w3.org/Graphics/SVG/1.1/DTD/svg11.dtd">
<svg xmlns:xlink="http://www.w3.org/1999/xlink" width="720pt" height="432pt" viewBox="0 0 720 432" xmlns="http://www.w3.org/2000/svg" version="1.1">
 <metadata>
  <rdf:RDF xmlns:dc="http://purl.org/dc/elements/1.1/" xmlns:cc="http://creativecommons.org/ns#" xmlns:rdf="http://www.w3.org/1999/02/22-rdf-syntax-ns#">
   <cc:Work>
    <dc:type rdf:resource="http://purl.org/dc/dcmitype/StillImage"/>
    <dc:date>2025-06-29T22:00:20.962001</dc:date>
    <dc:format>image/svg+xml</dc:format>
    <dc:creator>
     <cc:Agent>
      <dc:title>Matplotlib v3.9.2, https://matplotlib.org/</dc:title>
     </cc:Agent>
    </dc:creator>
   </cc:Work>
  </rdf:RDF>
 </metadata>
 <defs>
  <style type="text/css">*{stroke-linejoin: round; stroke-linecap: butt}</style>
 </defs>
 <g id="figure_1">
  <g id="patch_1">
   <path d="M 0 432 
L 720 432 
L 720 0 
L 0 0 
z
" style="fill: #ffffff"/>
  </g>
  <g id="axes_1">
   <g id="patch_2">
    <path d="M 58.995 383.94 
L 707.04 383.94 
L 707.04 27.65625 
L 58.995 27.65625 
z
" style="fill: #ffffff"/>
   </g>
   <g id="matplotlib.axis_1">
    <g id="xtick_1">
     <g id="line2d_1">
      <path d="M 88.451591 383.94 
L 88.451591 27.65625 
" clip-path="url(#p599a0418cb)" style="fill: none; stroke: #cccccc; stroke-linecap: round"/>
     </g>
     <g id="text_1">
      <!-- 0 -->
      <g style="fill: #262626" transform="translate(85.393075 401.313594) scale(0.11 -0.11)">
       <defs>
        <path id="ArialMT-30" d="M 266 2259 
Q 266 3072 433 3567 
Q 600 4063 929 4331 
Q 1259 4600 1759 4600 
Q 2128 4600 2406 4451 
Q 2684 4303 2865 4023 
Q 3047 3744 3150 3342 
Q 3253 2941 3253 2259 
Q 3253 1453 3087 958 
Q 2922 463 2592 192 
Q 2263 -78 1759 -78 
Q 1097 -78 719 397 
Q 266 969 266 2259 
z
M 844 2259 
Q 844 1131 1108 757 
Q 1372 384 1759 384 
Q 2147 384 2411 759 
Q 2675 1134 2675 2259 
Q 2675 3391 2411 3762 
Q 2147 4134 1753 4134 
Q 1366 4134 1134 3806 
Q 844 3388 844 2259 
z
" transform="scale(0.015625)"/>
       </defs>
       <use xlink:href="#ArialMT-30"/>
      </g>
     </g>
    </g>
    <g id="xtick_2">
     <g id="line2d_2">
      <path d="M 186.968617 383.94 
L 186.968617 27.65625 
" clip-path="url(#p599a0418cb)" style="fill: none; stroke: #cccccc; stroke-linecap: round"/>
     </g>
     <g id="text_2">
      <!-- 50 -->
      <g style="fill: #262626" transform="translate(180.851586 401.313594) scale(0.11 -0.11)">
       <defs>
        <path id="ArialMT-35" d="M 266 1200 
L 856 1250 
Q 922 819 1161 601 
Q 1400 384 1738 384 
Q 2144 384 2425 690 
Q 2706 997 2706 1503 
Q 2706 1984 2436 2262 
Q 2166 2541 1728 2541 
Q 1456 2541 1237 2417 
Q 1019 2294 894 2097 
L 366 2166 
L 809 4519 
L 3088 4519 
L 3088 3981 
L 1259 3981 
L 1013 2750 
Q 1425 3038 1878 3038 
Q 2478 3038 2890 2622 
Q 3303 2206 3303 1553 
Q 3303 931 2941 478 
Q 2500 -78 1738 -78 
Q 1113 -78 717 272 
Q 322 622 266 1200 
z
" transform="scale(0.015625)"/>
       </defs>
       <use xlink:href="#ArialMT-35"/>
       <use xlink:href="#ArialMT-30" x="55.615234"/>
      </g>
     </g>
    </g>
    <g id="xtick_3">
     <g id="line2d_3">
      <path d="M 285.485644 383.94 
L 285.485644 27.65625 
" clip-path="url(#p599a0418cb)" style="fill: none; stroke: #cccccc; stroke-linecap: round"/>
     </g>
     <g id="text_3">
      <!-- 100 -->
      <g style="fill: #262626" transform="translate(276.310097 401.313594) scale(0.11 -0.11)">
       <defs>
        <path id="ArialMT-31" d="M 2384 0 
L 1822 0 
L 1822 3584 
Q 1619 3391 1289 3197 
Q 959 3003 697 2906 
L 697 3450 
Q 1169 3672 1522 3987 
Q 1875 4303 2022 4600 
L 2384 4600 
L 2384 0 
z
" transform="scale(0.015625)"/>
       </defs>
       <use xlink:href="#ArialMT-31"/>
       <use xlink:href="#ArialMT-30" x="55.615234"/>
       <use xlink:href="#ArialMT-30" x="111.230469"/>
      </g>
     </g>
    </g>
    <g id="xtick_4">
     <g id="line2d_4">
      <path d="M 384.00267 383.94 
L 384.00267 27.65625 
" clip-path="url(#p599a0418cb)" style="fill: none; stroke: #cccccc; stroke-linecap: round"/>
     </g>
     <g id="text_4">
      <!-- 150 -->
      <g style="fill: #262626" transform="translate(374.827123 401.313594) scale(0.11 -0.11)">
       <use xlink:href="#ArialMT-31"/>
       <use xlink:href="#ArialMT-35" x="55.615234"/>
       <use xlink:href="#ArialMT-30" x="111.230469"/>
      </g>
     </g>
    </g>
    <g id="xtick_5">
     <g id="line2d_5">
      <path d="M 482.519697 383.94 
L 482.519697 27.65625 
" clip-path="url(#p599a0418cb)" style="fill: none; stroke: #cccccc; stroke-linecap: round"/>
     </g>
     <g id="text_5">
      <!-- 200 -->
      <g style="fill: #262626" transform="translate(473.34415 401.313594) scale(0.11 -0.11)">
       <defs>
        <path id="ArialMT-32" d="M 3222 541 
L 3222 0 
L 194 0 
Q 188 203 259 391 
Q 375 700 629 1000 
Q 884 1300 1366 1694 
Q 2113 2306 2375 2664 
Q 2638 3022 2638 3341 
Q 2638 3675 2398 3904 
Q 2159 4134 1775 4134 
Q 1369 4134 1125 3890 
Q 881 3647 878 3216 
L 300 3275 
Q 359 3922 746 4261 
Q 1134 4600 1788 4600 
Q 2447 4600 2831 4234 
Q 3216 3869 3216 3328 
Q 3216 3053 3103 2787 
Q 2991 2522 2730 2228 
Q 2469 1934 1863 1422 
Q 1356 997 1212 845 
Q 1069 694 975 541 
L 3222 541 
z
" transform="scale(0.015625)"/>
       </defs>
       <use xlink:href="#ArialMT-32"/>
       <use xlink:href="#ArialMT-30" x="55.615234"/>
       <use xlink:href="#ArialMT-30" x="111.230469"/>
      </g>
     </g>
    </g>
    <g id="xtick_6">
     <g id="line2d_6">
      <path d="M 581.036723 383.94 
L 581.036723 27.65625 
" clip-path="url(#p599a0418cb)" style="fill: none; stroke: #cccccc; stroke-linecap: round"/>
     </g>
     <g id="text_6">
      <!-- 250 -->
      <g style="fill: #262626" transform="translate(571.861176 401.313594) scale(0.11 -0.11)">
       <use xlink:href="#ArialMT-32"/>
       <use xlink:href="#ArialMT-35" x="55.615234"/>
       <use xlink:href="#ArialMT-30" x="111.230469"/>
      </g>
     </g>
    </g>
    <g id="xtick_7">
     <g id="line2d_7">
      <path d="M 679.55375 383.94 
L 679.55375 27.65625 
" clip-path="url(#p599a0418cb)" style="fill: none; stroke: #cccccc; stroke-linecap: round"/>
     </g>
     <g id="text_7">
      <!-- 300 -->
      <g style="fill: #262626" transform="translate(670.378203 401.313594) scale(0.11 -0.11)">
       <defs>
        <path id="ArialMT-33" d="M 269 1209 
L 831 1284 
Q 928 806 1161 595 
Q 1394 384 1728 384 
Q 2125 384 2398 659 
Q 2672 934 2672 1341 
Q 2672 1728 2419 1979 
Q 2166 2231 1775 2231 
Q 1616 2231 1378 2169 
L 1441 2663 
Q 1497 2656 1531 2656 
Q 1891 2656 2178 2843 
Q 2466 3031 2466 3422 
Q 2466 3731 2256 3934 
Q 2047 4138 1716 4138 
Q 1388 4138 1169 3931 
Q 950 3725 888 3313 
L 325 3413 
Q 428 3978 793 4289 
Q 1159 4600 1703 4600 
Q 2078 4600 2393 4439 
Q 2709 4278 2876 4000 
Q 3044 3722 3044 3409 
Q 3044 3113 2884 2869 
Q 2725 2625 2413 2481 
Q 2819 2388 3044 2092 
Q 3269 1797 3269 1353 
Q 3269 753 2831 336 
Q 2394 -81 1725 -81 
Q 1122 -81 723 278 
Q 325 638 269 1209 
z
" transform="scale(0.015625)"/>
       </defs>
       <use xlink:href="#ArialMT-33"/>
       <use xlink:href="#ArialMT-30" x="55.615234"/>
       <use xlink:href="#ArialMT-30" x="111.230469"/>
      </g>
     </g>
    </g>
    <g id="text_8">
     <!-- Episode -->
     <g style="fill: #262626" transform="translate(361.335938 416.089219) scale(0.12 -0.12)">
      <defs>
       <path id="ArialMT-45" d="M 506 0 
L 506 4581 
L 3819 4581 
L 3819 4041 
L 1113 4041 
L 1113 2638 
L 3647 2638 
L 3647 2100 
L 1113 2100 
L 1113 541 
L 3925 541 
L 3925 0 
L 506 0 
z
" transform="scale(0.015625)"/>
       <path id="ArialMT-70" d="M 422 -1272 
L 422 3319 
L 934 3319 
L 934 2888 
Q 1116 3141 1344 3267 
Q 1572 3394 1897 3394 
Q 2322 3394 2647 3175 
Q 2972 2956 3137 2557 
Q 3303 2159 3303 1684 
Q 3303 1175 3120 767 
Q 2938 359 2589 142 
Q 2241 -75 1856 -75 
Q 1575 -75 1351 44 
Q 1128 163 984 344 
L 984 -1272 
L 422 -1272 
z
M 931 1641 
Q 931 1000 1190 694 
Q 1450 388 1819 388 
Q 2194 388 2461 705 
Q 2728 1022 2728 1688 
Q 2728 2322 2467 2637 
Q 2206 2953 1844 2953 
Q 1484 2953 1207 2617 
Q 931 2281 931 1641 
z
" transform="scale(0.015625)"/>
       <path id="ArialMT-69" d="M 425 3934 
L 425 4581 
L 988 4581 
L 988 3934 
L 425 3934 
z
M 425 0 
L 425 3319 
L 988 3319 
L 988 0 
L 425 0 
z
" transform="scale(0.015625)"/>
       <path id="ArialMT-73" d="M 197 991 
L 753 1078 
Q 800 744 1014 566 
Q 1228 388 1613 388 
Q 2000 388 2187 545 
Q 2375 703 2375 916 
Q 2375 1106 2209 1216 
Q 2094 1291 1634 1406 
Q 1016 1563 777 1677 
Q 538 1791 414 1992 
Q 291 2194 291 2438 
Q 291 2659 392 2848 
Q 494 3038 669 3163 
Q 800 3259 1026 3326 
Q 1253 3394 1513 3394 
Q 1903 3394 2198 3281 
Q 2494 3169 2634 2976 
Q 2775 2784 2828 2463 
L 2278 2388 
Q 2241 2644 2061 2787 
Q 1881 2931 1553 2931 
Q 1166 2931 1000 2803 
Q 834 2675 834 2503 
Q 834 2394 903 2306 
Q 972 2216 1119 2156 
Q 1203 2125 1616 2013 
Q 2213 1853 2448 1751 
Q 2684 1650 2818 1456 
Q 2953 1263 2953 975 
Q 2953 694 2789 445 
Q 2625 197 2315 61 
Q 2006 -75 1616 -75 
Q 969 -75 630 194 
Q 291 463 197 991 
z
" transform="scale(0.015625)"/>
       <path id="ArialMT-6f" d="M 213 1659 
Q 213 2581 725 3025 
Q 1153 3394 1769 3394 
Q 2453 3394 2887 2945 
Q 3322 2497 3322 1706 
Q 3322 1066 3130 698 
Q 2938 331 2570 128 
Q 2203 -75 1769 -75 
Q 1072 -75 642 372 
Q 213 819 213 1659 
z
M 791 1659 
Q 791 1022 1069 705 
Q 1347 388 1769 388 
Q 2188 388 2466 706 
Q 2744 1025 2744 1678 
Q 2744 2294 2464 2611 
Q 2184 2928 1769 2928 
Q 1347 2928 1069 2612 
Q 791 2297 791 1659 
z
" transform="scale(0.015625)"/>
       <path id="ArialMT-64" d="M 2575 0 
L 2575 419 
Q 2259 -75 1647 -75 
Q 1250 -75 917 144 
Q 584 363 401 755 
Q 219 1147 219 1656 
Q 219 2153 384 2558 
Q 550 2963 881 3178 
Q 1213 3394 1622 3394 
Q 1922 3394 2156 3267 
Q 2391 3141 2538 2938 
L 2538 4581 
L 3097 4581 
L 3097 0 
L 2575 0 
z
M 797 1656 
Q 797 1019 1065 703 
Q 1334 388 1700 388 
Q 2069 388 2326 689 
Q 2584 991 2584 1609 
Q 2584 2291 2321 2609 
Q 2059 2928 1675 2928 
Q 1300 2928 1048 2622 
Q 797 2316 797 1656 
z
" transform="scale(0.015625)"/>
       <path id="ArialMT-65" d="M 2694 1069 
L 3275 997 
Q 3138 488 2766 206 
Q 2394 -75 1816 -75 
Q 1088 -75 661 373 
Q 234 822 234 1631 
Q 234 2469 665 2931 
Q 1097 3394 1784 3394 
Q 2450 3394 2872 2941 
Q 3294 2488 3294 1666 
Q 3294 1616 3291 1516 
L 816 1516 
Q 847 969 1125 678 
Q 1403 388 1819 388 
Q 2128 388 2347 550 
Q 2566 713 2694 1069 
z
M 847 1978 
L 2700 1978 
Q 2663 2397 2488 2606 
Q 2219 2931 1791 2931 
Q 1403 2931 1139 2672 
Q 875 2413 847 1978 
z
" transform="scale(0.015625)"/>
      </defs>
      <use xlink:href="#ArialMT-45"/>
      <use xlink:href="#ArialMT-70" x="66.699219"/>
      <use xlink:href="#ArialMT-69" x="122.314453"/>
      <use xlink:href="#ArialMT-73" x="144.53125"/>
      <use xlink:href="#ArialMT-6f" x="194.53125"/>
      <use xlink:href="#ArialMT-64" x="250.146484"/>
      <use xlink:href="#ArialMT-65" x="305.761719"/>
     </g>
    </g>
   </g>
   <g id="matplotlib.axis_2">
    <g id="ytick_1">
     <g id="line2d_8">
      <path d="M 58.995 367.745284 
L 707.04 367.745284 
" clip-path="url(#p599a0418cb)" style="fill: none; stroke: #cccccc; stroke-linecap: round"/>
     </g>
     <g id="text_9">
      <!-- 0.25 -->
      <g style="fill: #262626" transform="translate(28.087969 371.682081) scale(0.11 -0.11)">
       <defs>
        <path id="ArialMT-2e" d="M 581 0 
L 581 641 
L 1222 641 
L 1222 0 
L 581 0 
z
" transform="scale(0.015625)"/>
       </defs>
       <use xlink:href="#ArialMT-30"/>
       <use xlink:href="#ArialMT-2e" x="55.615234"/>
       <use xlink:href="#ArialMT-32" x="83.398438"/>
       <use xlink:href="#ArialMT-35" x="139.013672"/>
      </g>
     </g>
    </g>
    <g id="ytick_2">
     <g id="line2d_9">
      <path d="M 58.995 302.96642 
L 707.04 302.96642 
" clip-path="url(#p599a0418cb)" style="fill: none; stroke: #cccccc; stroke-linecap: round"/>
     </g>
     <g id="text_10">
      <!-- 0.30 -->
      <g style="fill: #262626" transform="translate(28.087969 306.903217) scale(0.11 -0.11)">
       <use xlink:href="#ArialMT-30"/>
       <use xlink:href="#ArialMT-2e" x="55.615234"/>
       <use xlink:href="#ArialMT-33" x="83.398438"/>
       <use xlink:href="#ArialMT-30" x="139.013672"/>
      </g>
     </g>
    </g>
    <g id="ytick_3">
     <g id="line2d_10">
      <path d="M 58.995 238.187557 
L 707.04 238.187557 
" clip-path="url(#p599a0418cb)" style="fill: none; stroke: #cccccc; stroke-linecap: round"/>
     </g>
     <g id="text_11">
      <!-- 0.35 -->
      <g style="fill: #262626" transform="translate(28.087969 242.124354) scale(0.11 -0.11)">
       <use xlink:href="#ArialMT-30"/>
       <use xlink:href="#ArialMT-2e" x="55.615234"/>
       <use xlink:href="#ArialMT-33" x="83.398438"/>
       <use xlink:href="#ArialMT-35" x="139.013672"/>
      </g>
     </g>
    </g>
    <g id="ytick_4">
     <g id="line2d_11">
      <path d="M 58.995 173.408693 
L 707.04 173.408693 
" clip-path="url(#p599a0418cb)" style="fill: none; stroke: #cccccc; stroke-linecap: round"/>
     </g>
     <g id="text_12">
      <!-- 0.40 -->
      <g style="fill: #262626" transform="translate(28.087969 177.34549) scale(0.11 -0.11)">
       <defs>
        <path id="ArialMT-34" d="M 2069 0 
L 2069 1097 
L 81 1097 
L 81 1613 
L 2172 4581 
L 2631 4581 
L 2631 1613 
L 3250 1613 
L 3250 1097 
L 2631 1097 
L 2631 0 
L 2069 0 
z
M 2069 1613 
L 2069 3678 
L 634 1613 
L 2069 1613 
z
" transform="scale(0.015625)"/>
       </defs>
       <use xlink:href="#ArialMT-30"/>
       <use xlink:href="#ArialMT-2e" x="55.615234"/>
       <use xlink:href="#ArialMT-34" x="83.398438"/>
       <use xlink:href="#ArialMT-30" x="139.013672"/>
      </g>
     </g>
    </g>
    <g id="ytick_5">
     <g id="line2d_12">
      <path d="M 58.995 108.62983 
L 707.04 108.62983 
" clip-path="url(#p599a0418cb)" style="fill: none; stroke: #cccccc; stroke-linecap: round"/>
     </g>
     <g id="text_13">
      <!-- 0.45 -->
      <g style="fill: #262626" transform="translate(28.087969 112.566626) scale(0.11 -0.11)">
       <use xlink:href="#ArialMT-30"/>
       <use xlink:href="#ArialMT-2e" x="55.615234"/>
       <use xlink:href="#ArialMT-34" x="83.398438"/>
       <use xlink:href="#ArialMT-35" x="139.013672"/>
      </g>
     </g>
    </g>
    <g id="ytick_6">
     <g id="line2d_13">
      <path d="M 58.995 43.850966 
L 707.04 43.850966 
" clip-path="url(#p599a0418cb)" style="fill: none; stroke: #cccccc; stroke-linecap: round"/>
     </g>
     <g id="text_14">
      <!-- 0.50 -->
      <g style="fill: #262626" transform="translate(28.087969 47.787763) scale(0.11 -0.11)">
       <use xlink:href="#ArialMT-30"/>
       <use xlink:href="#ArialMT-2e" x="55.615234"/>
       <use xlink:href="#ArialMT-35" x="83.398438"/>
       <use xlink:href="#ArialMT-30" x="139.013672"/>
      </g>
     </g>
    </g>
    <g id="text_15">
     <!-- Total Reward -->
     <g style="fill: #262626" transform="translate(21.702969 240.809063) rotate(-90) scale(0.12 -0.12)">
      <defs>
       <path id="ArialMT-54" d="M 1659 0 
L 1659 4041 
L 150 4041 
L 150 4581 
L 3781 4581 
L 3781 4041 
L 2266 4041 
L 2266 0 
L 1659 0 
z
" transform="scale(0.015625)"/>
       <path id="ArialMT-74" d="M 1650 503 
L 1731 6 
Q 1494 -44 1306 -44 
Q 1000 -44 831 53 
Q 663 150 594 308 
Q 525 466 525 972 
L 525 2881 
L 113 2881 
L 113 3319 
L 525 3319 
L 525 4141 
L 1084 4478 
L 1084 3319 
L 1650 3319 
L 1650 2881 
L 1084 2881 
L 1084 941 
Q 1084 700 1114 631 
Q 1144 563 1211 522 
Q 1278 481 1403 481 
Q 1497 481 1650 503 
z
" transform="scale(0.015625)"/>
       <path id="ArialMT-61" d="M 2588 409 
Q 2275 144 1986 34 
Q 1697 -75 1366 -75 
Q 819 -75 525 192 
Q 231 459 231 875 
Q 231 1119 342 1320 
Q 453 1522 633 1644 
Q 813 1766 1038 1828 
Q 1203 1872 1538 1913 
Q 2219 1994 2541 2106 
Q 2544 2222 2544 2253 
Q 2544 2597 2384 2738 
Q 2169 2928 1744 2928 
Q 1347 2928 1158 2789 
Q 969 2650 878 2297 
L 328 2372 
Q 403 2725 575 2942 
Q 747 3159 1072 3276 
Q 1397 3394 1825 3394 
Q 2250 3394 2515 3294 
Q 2781 3194 2906 3042 
Q 3031 2891 3081 2659 
Q 3109 2516 3109 2141 
L 3109 1391 
Q 3109 606 3145 398 
Q 3181 191 3288 0 
L 2700 0 
Q 2613 175 2588 409 
z
M 2541 1666 
Q 2234 1541 1622 1453 
Q 1275 1403 1131 1340 
Q 988 1278 909 1158 
Q 831 1038 831 891 
Q 831 666 1001 516 
Q 1172 366 1500 366 
Q 1825 366 2078 508 
Q 2331 650 2450 897 
Q 2541 1088 2541 1459 
L 2541 1666 
z
" transform="scale(0.015625)"/>
       <path id="ArialMT-6c" d="M 409 0 
L 409 4581 
L 972 4581 
L 972 0 
L 409 0 
z
" transform="scale(0.015625)"/>
       <path id="ArialMT-20" transform="scale(0.015625)"/>
       <path id="ArialMT-52" d="M 503 0 
L 503 4581 
L 2534 4581 
Q 3147 4581 3465 4457 
Q 3784 4334 3975 4021 
Q 4166 3709 4166 3331 
Q 4166 2844 3850 2509 
Q 3534 2175 2875 2084 
Q 3116 1969 3241 1856 
Q 3506 1613 3744 1247 
L 4541 0 
L 3778 0 
L 3172 953 
Q 2906 1366 2734 1584 
Q 2563 1803 2427 1890 
Q 2291 1978 2150 2013 
Q 2047 2034 1813 2034 
L 1109 2034 
L 1109 0 
L 503 0 
z
M 1109 2559 
L 2413 2559 
Q 2828 2559 3062 2645 
Q 3297 2731 3419 2920 
Q 3541 3109 3541 3331 
Q 3541 3656 3305 3865 
Q 3069 4075 2559 4075 
L 1109 4075 
L 1109 2559 
z
" transform="scale(0.015625)"/>
       <path id="ArialMT-77" d="M 1034 0 
L 19 3319 
L 600 3319 
L 1128 1403 
L 1325 691 
Q 1338 744 1497 1375 
L 2025 3319 
L 2603 3319 
L 3100 1394 
L 3266 759 
L 3456 1400 
L 4025 3319 
L 4572 3319 
L 3534 0 
L 2950 0 
L 2422 1988 
L 2294 2553 
L 1622 0 
L 1034 0 
z
" transform="scale(0.015625)"/>
       <path id="ArialMT-72" d="M 416 0 
L 416 3319 
L 922 3319 
L 922 2816 
Q 1116 3169 1280 3281 
Q 1444 3394 1641 3394 
Q 1925 3394 2219 3213 
L 2025 2691 
Q 1819 2813 1613 2813 
Q 1428 2813 1281 2702 
Q 1134 2591 1072 2394 
Q 978 2094 978 1738 
L 978 0 
L 416 0 
z
" transform="scale(0.015625)"/>
      </defs>
      <use xlink:href="#ArialMT-54"/>
      <use xlink:href="#ArialMT-6f" x="49.958984"/>
      <use xlink:href="#ArialMT-74" x="105.574219"/>
      <use xlink:href="#ArialMT-61" x="133.357422"/>
      <use xlink:href="#ArialMT-6c" x="188.972656"/>
      <use xlink:href="#ArialMT-20" x="211.189453"/>
      <use xlink:href="#ArialMT-52" x="238.972656"/>
      <use xlink:href="#ArialMT-65" x="311.189453"/>
      <use xlink:href="#ArialMT-77" x="366.804688"/>
      <use xlink:href="#ArialMT-61" x="439.021484"/>
      <use xlink:href="#ArialMT-72" x="494.636719"/>
      <use xlink:href="#ArialMT-64" x="527.9375"/>
     </g>
    </g>
   </g>
   <g id="PathCollection_1">
    <defs>
     <path id="md95f3849b5" d="M 0 2.738613 
C 0.726289 2.738613 1.422928 2.450055 1.936492 1.936492 
C 2.450055 1.422928 2.738613 0.726289 2.738613 0 
C 2.738613 -0.726289 2.450055 -1.422928 1.936492 -1.936492 
C 1.422928 -2.450055 0.726289 -2.738613 0 -2.738613 
C -0.726289 -2.738613 -1.422928 -2.450055 -1.936492 -1.936492 
C -2.450055 -1.422928 -2.738613 -0.726289 -2.738613 0 
C -2.738613 0.726289 -2.450055 1.422928 -1.936492 1.936492 
C -1.422928 2.450055 -0.726289 2.738613 0 2.738613 
z
" style="stroke: #4c72b0"/>
    </defs>
    <g clip-path="url(#p599a0418cb)">
     <use xlink:href="#md95f3849b5" x="677.583409" y="259.780511" style="fill: #4c72b0; stroke: #4c72b0"/>
    </g>
   </g>
   <g id="PathCollection_2">
    <defs>
     <path id="m99e8baf624" d="M 0 2.738613 
C 0.726289 2.738613 1.422928 2.450055 1.936492 1.936492 
C 2.450055 1.422928 2.738613 0.726289 2.738613 0 
C 2.738613 -0.726289 2.450055 -1.422928 1.936492 -1.936492 
C 1.422928 -2.450055 0.726289 -2.738613 0 -2.738613 
C -0.726289 -2.738613 -1.422928 -2.450055 -1.936492 -1.936492 
C -2.450055 -1.422928 -2.738613 -0.726289 -2.738613 0 
C -2.738613 0.726289 -2.450055 1.422928 -1.936492 1.936492 
C -1.422928 2.450055 -0.726289 2.738613 0 2.738613 
z
" style="stroke: #dd8452"/>
    </defs>
    <g clip-path="url(#p599a0418cb)">
     <use xlink:href="#m99e8baf624" x="677.583409" y="43.850966" style="fill: #dd8452; stroke: #dd8452"/>
    </g>
   </g>
   <g id="PathCollection_3">
    <defs>
     <path id="m97dc57a7ab" d="M 0 2.738613 
C 0.726289 2.738613 1.422928 2.450055 1.936492 1.936492 
C 2.450055 1.422928 2.738613 0.726289 2.738613 0 
C 2.738613 -0.726289 2.450055 -1.422928 1.936492 -1.936492 
C 1.422928 -2.450055 0.726289 -2.738613 0 -2.738613 
C -0.726289 -2.738613 -1.422928 -2.450055 -1.936492 -1.936492 
C -2.450055 -1.422928 -2.738613 -0.726289 -2.738613 0 
C -2.738613 0.726289 -2.450055 1.422928 -1.936492 1.936492 
C -1.422928 2.450055 -0.726289 2.738613 0 2.738613 
z
" style="stroke: #55a868"/>
    </defs>
    <g clip-path="url(#p599a0418cb)">
     <use xlink:href="#m97dc57a7ab" x="677.583409" y="367.745284" style="fill: #55a868; stroke: #55a868"/>
    </g>
   </g>
   <g id="line2d_14">
    <path d="M 88.451591 195.001648 
L 90.421931 238.187557 
L 92.392272 238.187557 
L 94.362612 195.001648 
L 96.332953 238.187557 
L 100.273634 151.815739 
L 102.243975 151.815739 
L 104.214315 216.594602 
L 106.184656 173.408693 
L 108.154996 216.594602 
L 114.066018 216.594602 
L 116.036358 281.373466 
L 118.006699 302.96642 
L 119.977039 346.15233 
L 121.94738 281.373466 
L 123.91772 259.780511 
L 125.888061 195.001648 
L 127.858401 173.408693 
L 129.828742 130.222784 
L 131.799083 130.222784 
L 133.769423 87.036875 
L 135.739764 151.815739 
L 137.710104 108.62983 
L 141.650785 108.62983 
L 143.621126 173.408693 
L 149.532147 173.408693 
L 151.502488 216.594602 
L 155.443169 173.408693 
L 159.38385 302.96642 
L 161.35419 259.780511 
L 163.324531 281.373466 
L 173.176234 281.373466 
L 175.146574 238.187557 
L 177.116915 216.594602 
L 181.057596 216.594602 
L 183.027936 151.815739 
L 184.998277 195.001648 
L 188.938958 195.001648 
L 190.909298 259.780511 
L 192.879639 302.96642 
L 194.849979 324.559375 
L 196.82032 324.559375 
L 198.790661 259.780511 
L 202.731342 259.780511 
L 204.701682 238.187557 
L 206.672023 195.001648 
L 214.553385 195.001648 
L 216.523725 238.187557 
L 218.494066 302.96642 
L 220.464406 238.187557 
L 224.405087 238.187557 
L 226.375428 259.780511 
L 228.345768 195.001648 
L 230.316109 195.001648 
L 232.28645 216.594602 
L 234.25679 216.594602 
L 236.227131 151.815739 
L 238.197471 216.594602 
L 244.108493 216.594602 
L 246.078833 281.373466 
L 248.049174 216.594602 
L 250.019514 281.373466 
L 251.989855 216.594602 
L 255.930536 216.594602 
L 257.900876 281.373466 
L 261.841557 281.373466 
L 263.811898 238.187557 
L 265.782239 216.594602 
L 267.752579 216.594602 
L 269.72292 151.815739 
L 273.663601 281.373466 
L 275.633941 238.187557 
L 277.604282 173.408693 
L 279.574622 238.187557 
L 283.515303 195.001648 
L 287.455984 324.559375 
L 289.426325 302.96642 
L 293.367006 346.15233 
L 297.307687 346.15233 
L 299.278028 302.96642 
L 301.248368 281.373466 
L 303.218709 216.594602 
L 305.189049 195.001648 
L 307.15939 130.222784 
L 309.12973 173.408693 
L 311.100071 130.222784 
L 317.011092 130.222784 
L 318.981433 151.815739 
L 320.951773 216.594602 
L 322.922114 216.594602 
L 324.892454 173.408693 
L 326.862795 238.187557 
L 328.833135 216.594602 
L 332.773817 216.594602 
L 334.744157 259.780511 
L 340.655179 259.780511 
L 342.625519 302.96642 
L 344.59586 324.559375 
L 346.5662 324.559375 
L 348.536541 281.373466 
L 350.506881 216.594602 
L 352.477222 173.408693 
L 354.447562 173.408693 
L 356.417903 151.815739 
L 358.388243 195.001648 
L 360.358584 195.001648 
L 362.328924 259.780511 
L 364.299265 238.187557 
L 368.239946 238.187557 
L 370.210287 302.96642 
L 372.180627 281.373466 
L 376.121308 195.001648 
L 378.091649 216.594602 
L 380.061989 195.001648 
L 387.943351 195.001648 
L 389.913692 216.594602 
L 391.884032 216.594602 
L 393.854373 259.780511 
L 395.824713 324.559375 
L 399.765394 195.001648 
L 403.706076 238.187557 
L 405.676416 238.187557 
L 409.617097 324.559375 
L 413.557778 195.001648 
L 419.4688 195.001648 
L 421.43914 259.780511 
L 423.409481 302.96642 
L 425.379821 302.96642 
L 427.350162 259.780511 
L 429.320502 281.373466 
L 433.261183 281.373466 
L 435.231524 216.594602 
L 439.172205 216.594602 
L 441.142546 195.001648 
L 443.112886 151.815739 
L 445.083227 151.815739 
L 447.053567 195.001648 
L 449.023908 195.001648 
L 450.994248 216.594602 
L 452.964589 281.373466 
L 454.934929 324.559375 
L 456.90527 324.559375 
L 458.87561 259.780511 
L 460.845951 238.187557 
L 464.786632 238.187557 
L 466.756972 195.001648 
L 468.727313 259.780511 
L 470.697654 281.373466 
L 472.667994 259.780511 
L 474.638335 216.594602 
L 476.608675 259.780511 
L 480.549356 130.222784 
L 484.490037 130.222784 
L 486.460378 87.036875 
L 488.430718 151.815739 
L 490.401059 195.001648 
L 492.371399 195.001648 
L 494.34174 238.187557 
L 496.31208 238.187557 
L 498.282421 216.594602 
L 500.252761 238.187557 
L 502.223102 195.001648 
L 504.193443 216.594602 
L 506.163783 216.594602 
L 508.134124 238.187557 
L 512.074805 238.187557 
L 514.045145 216.594602 
L 517.985826 216.594602 
L 519.956167 151.815739 
L 521.926507 151.815739 
L 523.896848 173.408693 
L 525.867188 216.594602 
L 529.807869 216.594602 
L 531.77821 259.780511 
L 533.74855 195.001648 
L 535.718891 151.815739 
L 537.689232 151.815739 
L 539.659572 195.001648 
L 543.600253 195.001648 
L 545.570594 238.187557 
L 549.511275 238.187557 
L 551.481615 259.780511 
L 553.451956 324.559375 
L 555.422296 346.15233 
L 557.392637 346.15233 
L 559.362977 367.745284 
L 561.333318 346.15233 
L 563.303658 281.373466 
L 569.21468 216.594602 
L 571.185021 238.187557 
L 573.155361 238.187557 
L 575.125702 195.001648 
L 577.096042 216.594602 
L 579.066383 216.594602 
L 581.036723 151.815739 
L 583.007064 216.594602 
L 588.918085 216.594602 
L 590.888426 259.780511 
L 592.858766 259.780511 
L 594.829107 302.96642 
L 596.799447 302.96642 
L 598.769788 324.559375 
L 604.68081 324.559375 
L 606.65115 259.780511 
L 608.621491 238.187557 
L 610.591831 238.187557 
L 612.562172 216.594602 
L 614.532512 238.187557 
L 616.502853 302.96642 
L 618.473193 324.559375 
L 620.443534 324.559375 
L 622.413874 346.15233 
L 624.384215 281.373466 
L 628.324896 281.373466 
L 630.295236 238.187557 
L 632.265577 216.594602 
L 634.235917 281.373466 
L 638.176599 151.815739 
L 640.146939 195.001648 
L 642.11728 151.815739 
L 644.08762 87.036875 
L 646.057961 151.815739 
L 648.028301 195.001648 
L 649.998642 216.594602 
L 653.939323 346.15233 
L 655.909663 281.373466 
L 657.880004 238.187557 
L 659.850344 216.594602 
L 661.820685 216.594602 
L 663.791025 195.001648 
L 667.731706 324.559375 
L 669.702047 324.559375 
L 669.702047 324.559375 
" clip-path="url(#p599a0418cb)" style="fill: none; stroke: #4c72b0; stroke-width: 2; stroke-linecap: round"/>
   </g>
   <g id="line2d_15">
    <path d="M 88.451591 259.780511 
L 90.421931 238.187557 
L 92.392272 195.001648 
L 94.362612 238.187557 
L 96.332953 259.780511 
L 100.273634 259.780511 
L 102.243975 324.559375 
L 104.214315 281.373466 
L 108.154996 151.815739 
L 110.125337 151.815739 
L 112.095677 130.222784 
L 114.066018 130.222784 
L 116.036358 195.001648 
L 118.006699 238.187557 
L 119.977039 195.001648 
L 121.94738 195.001648 
L 123.91772 259.780511 
L 125.888061 238.187557 
L 127.858401 195.001648 
L 129.828742 259.780511 
L 131.799083 259.780511 
L 133.769423 238.187557 
L 135.739764 259.780511 
L 137.710104 324.559375 
L 139.680445 302.96642 
L 141.650785 302.96642 
L 143.621126 259.780511 
L 145.591466 195.001648 
L 147.561807 195.001648 
L 149.532147 216.594602 
L 155.443169 216.594602 
L 159.38385 87.036875 
L 161.35419 43.850966 
L 163.324531 43.850966 
L 165.294872 108.62983 
L 169.235553 108.62983 
L 171.205893 151.815739 
L 173.176234 151.815739 
L 175.146574 87.036875 
L 177.116915 130.222784 
L 179.087255 195.001648 
L 181.057596 216.594602 
L 184.998277 216.594602 
L 186.968617 173.408693 
L 188.938958 108.62983 
L 192.879639 108.62983 
L 194.849979 173.408693 
L 196.82032 173.408693 
L 198.790661 238.187557 
L 200.761001 238.187557 
L 202.731342 281.373466 
L 204.701682 259.780511 
L 206.672023 302.96642 
L 208.642363 281.373466 
L 210.612704 281.373466 
L 214.553385 324.559375 
L 216.523725 281.373466 
L 218.494066 302.96642 
L 224.405087 302.96642 
L 226.375428 367.745284 
L 228.345768 367.745284 
L 234.25679 302.96642 
L 238.197471 173.408693 
L 240.167812 173.408693 
L 242.138152 195.001648 
L 244.108493 195.001648 
L 246.078833 238.187557 
L 248.049174 302.96642 
L 250.019514 302.96642 
L 251.989855 238.187557 
L 253.960195 195.001648 
L 255.930536 216.594602 
L 257.900876 216.594602 
L 259.871217 173.408693 
L 261.841557 173.408693 
L 263.811898 238.187557 
L 269.72292 238.187557 
L 271.69326 281.373466 
L 273.663601 216.594602 
L 277.604282 173.408693 
L 279.574622 173.408693 
L 281.544963 195.001648 
L 283.515303 238.187557 
L 285.485644 238.187557 
L 287.455984 195.001648 
L 289.426325 259.780511 
L 291.396665 259.780511 
L 295.337346 302.96642 
L 297.307687 367.745284 
L 299.278028 367.745284 
L 301.248368 302.96642 
L 303.218709 281.373466 
L 305.189049 281.373466 
L 307.15939 216.594602 
L 309.12973 195.001648 
L 311.100071 195.001648 
L 313.070411 151.815739 
L 317.011092 151.815739 
L 318.981433 173.408693 
L 322.922114 173.408693 
L 324.892454 151.815739 
L 326.862795 216.594602 
L 328.833135 195.001648 
L 330.803476 238.187557 
L 332.773817 302.96642 
L 336.714498 302.96642 
L 338.684838 259.780511 
L 340.655179 259.780511 
L 342.625519 238.187557 
L 344.59586 238.187557 
L 346.5662 216.594602 
L 348.536541 259.780511 
L 352.477222 173.408693 
L 354.447562 173.408693 
L 356.417903 130.222784 
L 358.388243 151.815739 
L 360.358584 216.594602 
L 362.328924 216.594602 
L 364.299265 238.187557 
L 366.269606 238.187557 
L 368.239946 173.408693 
L 370.210287 151.815739 
L 372.180627 195.001648 
L 374.150968 173.408693 
L 376.121308 238.187557 
L 378.091649 238.187557 
L 380.061989 195.001648 
L 384.00267 238.187557 
L 385.973011 173.408693 
L 387.943351 216.594602 
L 389.913692 281.373466 
L 391.884032 259.780511 
L 393.854373 195.001648 
L 395.824713 259.780511 
L 397.795054 281.373466 
L 399.765394 259.780511 
L 405.676416 259.780511 
L 407.646757 238.187557 
L 409.617097 195.001648 
L 413.557778 195.001648 
L 415.528119 173.408693 
L 417.498459 130.222784 
L 419.4688 130.222784 
L 421.43914 151.815739 
L 423.409481 195.001648 
L 425.379821 216.594602 
L 429.320502 216.594602 
L 431.290843 151.815739 
L 433.261183 151.815739 
L 435.231524 130.222784 
L 437.201865 195.001648 
L 439.172205 238.187557 
L 441.142546 302.96642 
L 443.112886 259.780511 
L 447.053567 259.780511 
L 449.023908 281.373466 
L 454.934929 281.373466 
L 458.87561 151.815739 
L 460.845951 151.815739 
L 462.816291 195.001648 
L 464.786632 216.594602 
L 466.756972 281.373466 
L 468.727313 281.373466 
L 470.697654 216.594602 
L 472.667994 173.408693 
L 474.638335 173.408693 
L 476.608675 108.62983 
L 478.579016 151.815739 
L 482.519697 281.373466 
L 484.490037 216.594602 
L 486.460378 259.780511 
L 488.430718 259.780511 
L 490.401059 195.001648 
L 492.371399 173.408693 
L 494.34174 173.408693 
L 498.282421 216.594602 
L 500.252761 259.780511 
L 502.223102 281.373466 
L 504.193443 346.15233 
L 508.134124 346.15233 
L 510.104464 367.745284 
L 517.985826 108.62983 
L 519.956167 87.036875 
L 521.926507 87.036875 
L 523.896848 151.815739 
L 525.867188 151.815739 
L 527.837529 216.594602 
L 529.807869 173.408693 
L 531.77821 173.408693 
L 533.74855 108.62983 
L 535.718891 108.62983 
L 537.689232 43.850966 
L 545.570594 302.96642 
L 547.540934 302.96642 
L 553.451956 108.62983 
L 555.422296 87.036875 
L 557.392637 151.815739 
L 561.333318 238.187557 
L 563.303658 302.96642 
L 565.273999 324.559375 
L 567.244339 302.96642 
L 571.185021 216.594602 
L 575.125702 216.594602 
L 577.096042 238.187557 
L 579.066383 302.96642 
L 581.036723 346.15233 
L 583.007064 346.15233 
L 584.977404 281.373466 
L 588.918085 281.373466 
L 590.888426 238.187557 
L 592.858766 216.594602 
L 594.829107 259.780511 
L 596.799447 238.187557 
L 598.769788 238.187557 
L 600.740128 281.373466 
L 602.710469 302.96642 
L 604.68081 302.96642 
L 606.65115 324.559375 
L 608.621491 259.780511 
L 610.591831 216.594602 
L 614.532512 216.594602 
L 616.502853 151.815739 
L 618.473193 195.001648 
L 620.443534 195.001648 
L 622.413874 173.408693 
L 624.384215 173.408693 
L 626.354555 216.594602 
L 628.324896 173.408693 
L 630.295236 216.594602 
L 632.265577 216.594602 
L 634.235917 238.187557 
L 636.206258 195.001648 
L 638.176599 259.780511 
L 642.11728 259.780511 
L 644.08762 195.001648 
L 646.057961 259.780511 
L 648.028301 195.001648 
L 649.998642 151.815739 
L 651.968982 151.815739 
L 653.939323 216.594602 
L 659.850344 216.594602 
L 661.820685 238.187557 
L 663.791025 238.187557 
L 665.761366 173.408693 
L 667.731706 216.594602 
L 669.702047 216.594602 
L 669.702047 216.594602 
" clip-path="url(#p599a0418cb)" style="fill: none; stroke: #dd8452; stroke-width: 2; stroke-linecap: round"/>
   </g>
   <g id="line2d_16">
    <path d="M 88.451591 195.001648 
L 96.332953 195.001648 
L 98.303294 238.187557 
L 100.273634 238.187557 
L 102.243975 259.780511 
L 104.214315 259.780511 
L 106.184656 324.559375 
L 108.154996 324.559375 
L 112.095677 195.001648 
L 114.066018 151.815739 
L 116.036358 130.222784 
L 119.977039 130.222784 
L 123.91772 216.594602 
L 129.828742 216.594602 
L 131.799083 238.187557 
L 133.769423 195.001648 
L 137.710104 238.187557 
L 141.650785 238.187557 
L 143.621126 302.96642 
L 145.591466 281.373466 
L 147.561807 216.594602 
L 153.472828 216.594602 
L 155.443169 238.187557 
L 157.413509 281.373466 
L 159.38385 346.15233 
L 161.35419 346.15233 
L 163.324531 324.559375 
L 165.294872 324.559375 
L 167.265212 346.15233 
L 169.235553 281.373466 
L 171.205893 281.373466 
L 173.176234 238.187557 
L 177.116915 108.62983 
L 179.087255 108.62983 
L 181.057596 87.036875 
L 183.027936 151.815739 
L 184.998277 151.815739 
L 186.968617 195.001648 
L 188.938958 195.001648 
L 190.909298 151.815739 
L 192.879639 87.036875 
L 194.849979 151.815739 
L 196.82032 173.408693 
L 198.790661 216.594602 
L 200.761001 216.594602 
L 202.731342 259.780511 
L 204.701682 195.001648 
L 206.672023 173.408693 
L 208.642363 173.408693 
L 210.612704 238.187557 
L 212.583044 195.001648 
L 216.523725 195.001648 
L 218.494066 151.815739 
L 220.464406 151.815739 
L 222.434747 195.001648 
L 224.405087 259.780511 
L 226.375428 216.594602 
L 228.345768 281.373466 
L 230.316109 216.594602 
L 232.28645 216.594602 
L 234.25679 151.815739 
L 236.227131 216.594602 
L 238.197471 151.815739 
L 240.167812 195.001648 
L 242.138152 151.815739 
L 244.108493 151.815739 
L 246.078833 130.222784 
L 250.019514 130.222784 
L 251.989855 195.001648 
L 253.960195 238.187557 
L 255.930536 259.780511 
L 257.900876 324.559375 
L 259.871217 346.15233 
L 261.841557 346.15233 
L 263.811898 367.745284 
L 265.782239 346.15233 
L 267.752579 281.373466 
L 269.72292 281.373466 
L 271.69326 259.780511 
L 273.663601 195.001648 
L 275.633941 216.594602 
L 277.604282 216.594602 
L 279.574622 195.001648 
L 281.544963 216.594602 
L 283.515303 281.373466 
L 285.485644 281.373466 
L 287.455984 324.559375 
L 289.426325 281.373466 
L 295.337346 216.594602 
L 297.307687 238.187557 
L 303.218709 238.187557 
L 305.189049 259.780511 
L 307.15939 259.780511 
L 309.12973 302.96642 
L 311.100071 302.96642 
L 313.070411 324.559375 
L 315.040752 259.780511 
L 317.011092 238.187557 
L 318.981433 195.001648 
L 320.951773 195.001648 
L 322.922114 130.222784 
L 324.892454 195.001648 
L 326.862795 151.815739 
L 328.833135 151.815739 
L 330.803476 173.408693 
L 332.773817 238.187557 
L 334.744157 173.408693 
L 336.714498 216.594602 
L 338.684838 216.594602 
L 340.655179 151.815739 
L 342.625519 151.815739 
L 344.59586 195.001648 
L 346.5662 216.594602 
L 350.506881 302.96642 
L 352.477222 238.187557 
L 354.447562 259.780511 
L 356.417903 195.001648 
L 358.388243 195.001648 
L 360.358584 151.815739 
L 364.299265 151.815739 
L 366.269606 195.001648 
L 368.239946 216.594602 
L 370.210287 259.780511 
L 372.180627 324.559375 
L 374.150968 259.780511 
L 376.121308 281.373466 
L 378.091649 281.373466 
L 380.061989 238.187557 
L 382.03233 173.408693 
L 384.00267 238.187557 
L 385.973011 216.594602 
L 389.913692 216.594602 
L 391.884032 281.373466 
L 393.854373 259.780511 
L 395.824713 281.373466 
L 397.795054 216.594602 
L 399.765394 216.594602 
L 401.735735 195.001648 
L 403.706076 151.815739 
L 407.646757 151.815739 
L 409.617097 195.001648 
L 411.587438 151.815739 
L 413.557778 151.815739 
L 415.528119 130.222784 
L 417.498459 195.001648 
L 419.4688 151.815739 
L 421.43914 151.815739 
L 423.409481 195.001648 
L 425.379821 151.815739 
L 427.350162 87.036875 
L 431.290843 87.036875 
L 433.261183 43.850966 
L 435.231524 108.62983 
L 437.201865 151.815739 
L 439.172205 151.815739 
L 443.112886 281.373466 
L 449.023908 281.373466 
L 450.994248 216.594602 
L 454.934929 173.408693 
L 456.90527 130.222784 
L 458.87561 130.222784 
L 460.845951 173.408693 
L 464.786632 87.036875 
L 466.756972 87.036875 
L 468.727313 151.815739 
L 470.697654 108.62983 
L 472.667994 173.408693 
L 474.638335 173.408693 
L 476.608675 216.594602 
L 478.579016 195.001648 
L 480.549356 195.001648 
L 482.519697 173.408693 
L 484.490037 173.408693 
L 486.460378 130.222784 
L 494.34174 130.222784 
L 496.31208 195.001648 
L 498.282421 151.815739 
L 500.252761 195.001648 
L 502.223102 216.594602 
L 504.193443 259.780511 
L 506.163783 238.187557 
L 508.134124 238.187557 
L 510.104464 195.001648 
L 512.074805 173.408693 
L 519.956167 173.408693 
L 521.926507 195.001648 
L 523.896848 151.815739 
L 525.867188 173.408693 
L 527.837529 238.187557 
L 529.807869 281.373466 
L 531.77821 281.373466 
L 533.74855 324.559375 
L 535.718891 324.559375 
L 537.689232 302.96642 
L 539.659572 302.96642 
L 541.629913 281.373466 
L 543.600253 281.373466 
L 545.570594 216.594602 
L 549.511275 130.222784 
L 551.481615 151.815739 
L 553.451956 108.62983 
L 555.422296 173.408693 
L 557.392637 216.594602 
L 559.362977 216.594602 
L 561.333318 151.815739 
L 563.303658 195.001648 
L 565.273999 130.222784 
L 567.244339 130.222784 
L 569.21468 195.001648 
L 571.185021 238.187557 
L 573.155361 195.001648 
L 575.125702 195.001648 
L 577.096042 151.815739 
L 579.066383 87.036875 
L 581.036723 108.62983 
L 583.007064 108.62983 
L 584.977404 173.408693 
L 586.947745 173.408693 
L 588.918085 238.187557 
L 592.858766 238.187557 
L 594.829107 173.408693 
L 596.799447 216.594602 
L 598.769788 195.001648 
L 600.740128 130.222784 
L 602.710469 173.408693 
L 606.65115 173.408693 
L 608.621491 130.222784 
L 610.591831 130.222784 
L 612.562172 87.036875 
L 614.532512 151.815739 
L 616.502853 151.815739 
L 618.473193 216.594602 
L 626.354555 216.594602 
L 628.324896 195.001648 
L 634.235917 195.001648 
L 636.206258 216.594602 
L 638.176599 216.594602 
L 642.11728 346.15233 
L 646.057961 216.594602 
L 648.028301 173.408693 
L 649.998642 108.62983 
L 651.968982 87.036875 
L 657.880004 87.036875 
L 659.850344 130.222784 
L 661.820685 151.815739 
L 663.791025 151.815739 
L 665.761366 216.594602 
L 667.731706 259.780511 
L 669.702047 281.373466 
L 669.702047 281.373466 
" clip-path="url(#p599a0418cb)" style="fill: none; stroke: #55a868; stroke-width: 2; stroke-linecap: round"/>
   </g>
   <g id="patch_3">
    <path d="M 58.995 383.94 
L 58.995 27.65625 
" style="fill: none; stroke: #cccccc; stroke-width: 1.25; stroke-linejoin: miter; stroke-linecap: square"/>
   </g>
   <g id="patch_4">
    <path d="M 707.04 383.94 
L 707.04 27.65625 
" style="fill: none; stroke: #cccccc; stroke-width: 1.25; stroke-linejoin: miter; stroke-linecap: square"/>
   </g>
   <g id="patch_5">
    <path d="M 58.995 383.94 
L 707.04 383.94 
" style="fill: none; stroke: #cccccc; stroke-width: 1.25; stroke-linejoin: miter; stroke-linecap: square"/>
   </g>
   <g id="patch_6">
    <path d="M 58.995 27.65625 
L 707.04 27.65625 
" style="fill: none; stroke: #cccccc; stroke-width: 1.25; stroke-linejoin: miter; stroke-linecap: square"/>
   </g>
   <g id="text_16">
    <!-- Agent Performance (Smoothed Reward) -->
    <g style="fill: #262626" transform="translate(275.97375 21.65625) scale(0.12 -0.12)">
     <defs>
      <path id="ArialMT-41" d="M -9 0 
L 1750 4581 
L 2403 4581 
L 4278 0 
L 3588 0 
L 3053 1388 
L 1138 1388 
L 634 0 
L -9 0 
z
M 1313 1881 
L 2866 1881 
L 2388 3150 
Q 2169 3728 2063 4100 
Q 1975 3659 1816 3225 
L 1313 1881 
z
" transform="scale(0.015625)"/>
      <path id="ArialMT-67" d="M 319 -275 
L 866 -356 
Q 900 -609 1056 -725 
Q 1266 -881 1628 -881 
Q 2019 -881 2231 -725 
Q 2444 -569 2519 -288 
Q 2563 -116 2559 434 
Q 2191 0 1641 0 
Q 956 0 581 494 
Q 206 988 206 1678 
Q 206 2153 378 2554 
Q 550 2956 876 3175 
Q 1203 3394 1644 3394 
Q 2231 3394 2613 2919 
L 2613 3319 
L 3131 3319 
L 3131 450 
Q 3131 -325 2973 -648 
Q 2816 -972 2473 -1159 
Q 2131 -1347 1631 -1347 
Q 1038 -1347 672 -1080 
Q 306 -813 319 -275 
z
M 784 1719 
Q 784 1066 1043 766 
Q 1303 466 1694 466 
Q 2081 466 2343 764 
Q 2606 1063 2606 1700 
Q 2606 2309 2336 2618 
Q 2066 2928 1684 2928 
Q 1309 2928 1046 2623 
Q 784 2319 784 1719 
z
" transform="scale(0.015625)"/>
      <path id="ArialMT-6e" d="M 422 0 
L 422 3319 
L 928 3319 
L 928 2847 
Q 1294 3394 1984 3394 
Q 2284 3394 2536 3286 
Q 2788 3178 2913 3003 
Q 3038 2828 3088 2588 
Q 3119 2431 3119 2041 
L 3119 0 
L 2556 0 
L 2556 2019 
Q 2556 2363 2490 2533 
Q 2425 2703 2258 2804 
Q 2091 2906 1866 2906 
Q 1506 2906 1245 2678 
Q 984 2450 984 1813 
L 984 0 
L 422 0 
z
" transform="scale(0.015625)"/>
      <path id="ArialMT-50" d="M 494 0 
L 494 4581 
L 2222 4581 
Q 2678 4581 2919 4538 
Q 3256 4481 3484 4323 
Q 3713 4166 3852 3881 
Q 3991 3597 3991 3256 
Q 3991 2672 3619 2267 
Q 3247 1863 2275 1863 
L 1100 1863 
L 1100 0 
L 494 0 
z
M 1100 2403 
L 2284 2403 
Q 2872 2403 3119 2622 
Q 3366 2841 3366 3238 
Q 3366 3525 3220 3729 
Q 3075 3934 2838 4000 
Q 2684 4041 2272 4041 
L 1100 4041 
L 1100 2403 
z
" transform="scale(0.015625)"/>
      <path id="ArialMT-66" d="M 556 0 
L 556 2881 
L 59 2881 
L 59 3319 
L 556 3319 
L 556 3672 
Q 556 4006 616 4169 
Q 697 4388 901 4523 
Q 1106 4659 1475 4659 
Q 1713 4659 2000 4603 
L 1916 4113 
Q 1741 4144 1584 4144 
Q 1328 4144 1222 4034 
Q 1116 3925 1116 3625 
L 1116 3319 
L 1763 3319 
L 1763 2881 
L 1116 2881 
L 1116 0 
L 556 0 
z
" transform="scale(0.015625)"/>
      <path id="ArialMT-6d" d="M 422 0 
L 422 3319 
L 925 3319 
L 925 2853 
Q 1081 3097 1340 3245 
Q 1600 3394 1931 3394 
Q 2300 3394 2536 3241 
Q 2772 3088 2869 2813 
Q 3263 3394 3894 3394 
Q 4388 3394 4653 3120 
Q 4919 2847 4919 2278 
L 4919 0 
L 4359 0 
L 4359 2091 
Q 4359 2428 4304 2576 
Q 4250 2725 4106 2815 
Q 3963 2906 3769 2906 
Q 3419 2906 3187 2673 
Q 2956 2441 2956 1928 
L 2956 0 
L 2394 0 
L 2394 2156 
Q 2394 2531 2256 2718 
Q 2119 2906 1806 2906 
Q 1569 2906 1367 2781 
Q 1166 2656 1075 2415 
Q 984 2175 984 1722 
L 984 0 
L 422 0 
z
" transform="scale(0.015625)"/>
      <path id="ArialMT-63" d="M 2588 1216 
L 3141 1144 
Q 3050 572 2676 248 
Q 2303 -75 1759 -75 
Q 1078 -75 664 370 
Q 250 816 250 1647 
Q 250 2184 428 2587 
Q 606 2991 970 3192 
Q 1334 3394 1763 3394 
Q 2303 3394 2647 3120 
Q 2991 2847 3088 2344 
L 2541 2259 
Q 2463 2594 2264 2762 
Q 2066 2931 1784 2931 
Q 1359 2931 1093 2626 
Q 828 2322 828 1663 
Q 828 994 1084 691 
Q 1341 388 1753 388 
Q 2084 388 2306 591 
Q 2528 794 2588 1216 
z
" transform="scale(0.015625)"/>
      <path id="ArialMT-28" d="M 1497 -1347 
Q 1031 -759 709 28 
Q 388 816 388 1659 
Q 388 2403 628 3084 
Q 909 3875 1497 4659 
L 1900 4659 
Q 1522 4009 1400 3731 
Q 1209 3300 1100 2831 
Q 966 2247 966 1656 
Q 966 153 1900 -1347 
L 1497 -1347 
z
" transform="scale(0.015625)"/>
      <path id="ArialMT-53" d="M 288 1472 
L 859 1522 
Q 900 1178 1048 958 
Q 1197 738 1509 602 
Q 1822 466 2213 466 
Q 2559 466 2825 569 
Q 3091 672 3220 851 
Q 3350 1031 3350 1244 
Q 3350 1459 3225 1620 
Q 3100 1781 2813 1891 
Q 2628 1963 1997 2114 
Q 1366 2266 1113 2400 
Q 784 2572 623 2826 
Q 463 3081 463 3397 
Q 463 3744 659 4045 
Q 856 4347 1234 4503 
Q 1613 4659 2075 4659 
Q 2584 4659 2973 4495 
Q 3363 4331 3572 4012 
Q 3781 3694 3797 3291 
L 3216 3247 
Q 3169 3681 2898 3903 
Q 2628 4125 2100 4125 
Q 1550 4125 1298 3923 
Q 1047 3722 1047 3438 
Q 1047 3191 1225 3031 
Q 1400 2872 2139 2705 
Q 2878 2538 3153 2413 
Q 3553 2228 3743 1945 
Q 3934 1663 3934 1294 
Q 3934 928 3725 604 
Q 3516 281 3123 101 
Q 2731 -78 2241 -78 
Q 1619 -78 1198 103 
Q 778 284 539 648 
Q 300 1013 288 1472 
z
" transform="scale(0.015625)"/>
      <path id="ArialMT-68" d="M 422 0 
L 422 4581 
L 984 4581 
L 984 2938 
Q 1378 3394 1978 3394 
Q 2347 3394 2619 3248 
Q 2891 3103 3008 2847 
Q 3125 2591 3125 2103 
L 3125 0 
L 2563 0 
L 2563 2103 
Q 2563 2525 2380 2717 
Q 2197 2909 1863 2909 
Q 1613 2909 1392 2779 
Q 1172 2650 1078 2428 
Q 984 2206 984 1816 
L 984 0 
L 422 0 
z
" transform="scale(0.015625)"/>
      <path id="ArialMT-29" d="M 791 -1347 
L 388 -1347 
Q 1322 153 1322 1656 
Q 1322 2244 1188 2822 
Q 1081 3291 891 3722 
Q 769 4003 388 4659 
L 791 4659 
Q 1378 3875 1659 3084 
Q 1900 2403 1900 1659 
Q 1900 816 1576 28 
Q 1253 -759 791 -1347 
z
" transform="scale(0.015625)"/>
     </defs>
     <use xlink:href="#ArialMT-41"/>
     <use xlink:href="#ArialMT-67" x="66.699219"/>
     <use xlink:href="#ArialMT-65" x="122.314453"/>
     <use xlink:href="#ArialMT-6e" x="177.929688"/>
     <use xlink:href="#ArialMT-74" x="233.544922"/>
     <use xlink:href="#ArialMT-20" x="261.328125"/>
     <use xlink:href="#ArialMT-50" x="289.111328"/>
     <use xlink:href="#ArialMT-65" x="355.810547"/>
     <use xlink:href="#ArialMT-72" x="411.425781"/>
     <use xlink:href="#ArialMT-66" x="444.726562"/>
     <use xlink:href="#ArialMT-6f" x="472.509766"/>
     <use xlink:href="#ArialMT-72" x="528.125"/>
     <use xlink:href="#ArialMT-6d" x="561.425781"/>
     <use xlink:href="#ArialMT-61" x="644.726562"/>
     <use xlink:href="#ArialMT-6e" x="700.341797"/>
     <use xlink:href="#ArialMT-63" x="755.957031"/>
     <use xlink:href="#ArialMT-65" x="805.957031"/>
     <use xlink:href="#ArialMT-20" x="861.572266"/>
     <use xlink:href="#ArialMT-28" x="889.355469"/>
     <use xlink:href="#ArialMT-53" x="922.65625"/>
     <use xlink:href="#ArialMT-6d" x="989.355469"/>
     <use xlink:href="#ArialMT-6f" x="1072.65625"/>
     <use xlink:href="#ArialMT-6f" x="1128.271484"/>
     <use xlink:href="#ArialMT-74" x="1183.886719"/>
     <use xlink:href="#ArialMT-68" x="1211.669922"/>
     <use xlink:href="#ArialMT-65" x="1267.285156"/>
     <use xlink:href="#ArialMT-64" x="1322.900391"/>
     <use xlink:href="#ArialMT-20" x="1378.515625"/>
     <use xlink:href="#ArialMT-52" x="1406.298828"/>
     <use xlink:href="#ArialMT-65" x="1478.515625"/>
     <use xlink:href="#ArialMT-77" x="1534.130859"/>
     <use xlink:href="#ArialMT-61" x="1606.347656"/>
     <use xlink:href="#ArialMT-72" x="1661.962891"/>
     <use xlink:href="#ArialMT-64" x="1695.263672"/>
     <use xlink:href="#ArialMT-29" x="1750.878906"/>
    </g>
   </g>
   <g id="legend_1">
    <g id="patch_7">
     <path d="M 327.806953 131.006406 
L 438.228047 131.006406 
Q 440.428047 131.006406 440.428047 128.806406 
L 440.428047 35.35625 
Q 440.428047 33.15625 438.228047 33.15625 
L 327.806953 33.15625 
Q 325.606953 33.15625 325.606953 35.35625 
L 325.606953 128.806406 
Q 325.606953 131.006406 327.806953 131.006406 
z
" style="fill: #ffffff; opacity: 0.8; stroke: #cccccc; stroke-linejoin: miter"/>
    </g>
    <g id="line2d_17">
     <path d="M 330.006953 41.713906 
L 341.006953 41.713906 
L 352.006953 41.713906 
" style="fill: none; stroke: #4c72b0; stroke-width: 2; stroke-linecap: round"/>
    </g>
    <g id="text_17">
     <!-- ddqn (avg) -->
     <g style="fill: #262626" transform="translate(360.806953 45.563906) scale(0.11 -0.11)">
      <defs>
       <path id="ArialMT-71" d="M 2538 -1272 
L 2538 353 
Q 2406 169 2170 47 
Q 1934 -75 1669 -75 
Q 1078 -75 651 397 
Q 225 869 225 1691 
Q 225 2191 398 2587 
Q 572 2984 901 3189 
Q 1231 3394 1625 3394 
Q 2241 3394 2594 2875 
L 2594 3319 
L 3100 3319 
L 3100 -1272 
L 2538 -1272 
z
M 803 1669 
Q 803 1028 1072 708 
Q 1341 388 1716 388 
Q 2075 388 2334 692 
Q 2594 997 2594 1619 
Q 2594 2281 2320 2615 
Q 2047 2950 1678 2950 
Q 1313 2950 1058 2639 
Q 803 2328 803 1669 
z
" transform="scale(0.015625)"/>
       <path id="ArialMT-76" d="M 1344 0 
L 81 3319 
L 675 3319 
L 1388 1331 
Q 1503 1009 1600 663 
Q 1675 925 1809 1294 
L 2547 3319 
L 3125 3319 
L 1869 0 
L 1344 0 
z
" transform="scale(0.015625)"/>
      </defs>
      <use xlink:href="#ArialMT-64"/>
      <use xlink:href="#ArialMT-64" x="55.615234"/>
      <use xlink:href="#ArialMT-71" x="111.230469"/>
      <use xlink:href="#ArialMT-6e" x="166.845703"/>
      <use xlink:href="#ArialMT-20" x="222.460938"/>
      <use xlink:href="#ArialMT-28" x="250.244141"/>
      <use xlink:href="#ArialMT-61" x="283.544922"/>
      <use xlink:href="#ArialMT-76" x="339.160156"/>
      <use xlink:href="#ArialMT-67" x="389.160156"/>
      <use xlink:href="#ArialMT-29" x="444.775391"/>
     </g>
    </g>
    <g id="PathCollection_4">
     <g>
      <use xlink:href="#md95f3849b5" x="341.006953" y="58.499219" style="fill: #4c72b0; stroke: #4c72b0"/>
     </g>
    </g>
    <g id="text_18">
     <!-- ddqn final: 0.33 -->
     <g style="fill: #262626" transform="translate(360.806953 61.386719) scale(0.11 -0.11)">
      <defs>
       <path id="ArialMT-3a" d="M 578 2678 
L 578 3319 
L 1219 3319 
L 1219 2678 
L 578 2678 
z
M 578 0 
L 578 641 
L 1219 641 
L 1219 0 
L 578 0 
z
" transform="scale(0.015625)"/>
      </defs>
      <use xlink:href="#ArialMT-64"/>
      <use xlink:href="#ArialMT-64" x="55.615234"/>
      <use xlink:href="#ArialMT-71" x="111.230469"/>
      <use xlink:href="#ArialMT-6e" x="166.845703"/>
      <use xlink:href="#ArialMT-20" x="222.460938"/>
      <use xlink:href="#ArialMT-66" x="250.244141"/>
      <use xlink:href="#ArialMT-69" x="278.027344"/>
      <use xlink:href="#ArialMT-6e" x="300.244141"/>
      <use xlink:href="#ArialMT-61" x="355.859375"/>
      <use xlink:href="#ArialMT-6c" x="411.474609"/>
      <use xlink:href="#ArialMT-3a" x="433.691406"/>
      <use xlink:href="#ArialMT-20" x="461.474609"/>
      <use xlink:href="#ArialMT-30" x="489.257812"/>
      <use xlink:href="#ArialMT-2e" x="544.873047"/>
      <use xlink:href="#ArialMT-33" x="572.65625"/>
      <use xlink:href="#ArialMT-33" x="628.271484"/>
     </g>
    </g>
    <g id="line2d_18">
     <path d="M 330.006953 73.230625 
L 341.006953 73.230625 
L 352.006953 73.230625 
" style="fill: none; stroke: #dd8452; stroke-width: 2; stroke-linecap: round"/>
    </g>
    <g id="text_19">
     <!-- dqn (avg) -->
     <g style="fill: #262626" transform="translate(360.806953 77.080625) scale(0.11 -0.11)">
      <use xlink:href="#ArialMT-64"/>
      <use xlink:href="#ArialMT-71" x="55.615234"/>
      <use xlink:href="#ArialMT-6e" x="111.230469"/>
      <use xlink:href="#ArialMT-20" x="166.845703"/>
      <use xlink:href="#ArialMT-28" x="194.628906"/>
      <use xlink:href="#ArialMT-61" x="227.929688"/>
      <use xlink:href="#ArialMT-76" x="283.544922"/>
      <use xlink:href="#ArialMT-67" x="333.544922"/>
      <use xlink:href="#ArialMT-29" x="389.160156"/>
     </g>
    </g>
    <g id="PathCollection_5">
     <g>
      <use xlink:href="#m99e8baf624" x="341.006953" y="90.015937" style="fill: #dd8452; stroke: #dd8452"/>
     </g>
    </g>
    <g id="text_20">
     <!-- dqn final: 0.50 -->
     <g style="fill: #262626" transform="translate(360.806953 92.903437) scale(0.11 -0.11)">
      <use xlink:href="#ArialMT-64"/>
      <use xlink:href="#ArialMT-71" x="55.615234"/>
      <use xlink:href="#ArialMT-6e" x="111.230469"/>
      <use xlink:href="#ArialMT-20" x="166.845703"/>
      <use xlink:href="#ArialMT-66" x="194.628906"/>
      <use xlink:href="#ArialMT-69" x="222.412109"/>
      <use xlink:href="#ArialMT-6e" x="244.628906"/>
      <use xlink:href="#ArialMT-61" x="300.244141"/>
      <use xlink:href="#ArialMT-6c" x="355.859375"/>
      <use xlink:href="#ArialMT-3a" x="378.076172"/>
      <use xlink:href="#ArialMT-20" x="405.859375"/>
      <use xlink:href="#ArialMT-30" x="433.642578"/>
      <use xlink:href="#ArialMT-2e" x="489.257812"/>
      <use xlink:href="#ArialMT-35" x="517.041016"/>
      <use xlink:href="#ArialMT-30" x="572.65625"/>
     </g>
    </g>
    <g id="line2d_19">
     <path d="M 330.006953 104.747344 
L 341.006953 104.747344 
L 352.006953 104.747344 
" style="fill: none; stroke: #55a868; stroke-width: 2; stroke-linecap: round"/>
    </g>
    <g id="text_21">
     <!-- ppo (avg) -->
     <g style="fill: #262626" transform="translate(360.806953 108.597344) scale(0.11 -0.11)">
      <use xlink:href="#ArialMT-70"/>
      <use xlink:href="#ArialMT-70" x="55.615234"/>
      <use xlink:href="#ArialMT-6f" x="111.230469"/>
      <use xlink:href="#ArialMT-20" x="166.845703"/>
      <use xlink:href="#ArialMT-28" x="194.628906"/>
      <use xlink:href="#ArialMT-61" x="227.929688"/>
      <use xlink:href="#ArialMT-76" x="283.544922"/>
      <use xlink:href="#ArialMT-67" x="333.544922"/>
      <use xlink:href="#ArialMT-29" x="389.160156"/>
     </g>
    </g>
    <g id="PathCollection_6">
     <g>
      <use xlink:href="#m97dc57a7ab" x="341.006953" y="121.532656" style="fill: #55a868; stroke: #55a868"/>
     </g>
    </g>
    <g id="text_22">
     <!-- ppo final: 0.25 -->
     <g style="fill: #262626" transform="translate(360.806953 124.420156) scale(0.11 -0.11)">
      <use xlink:href="#ArialMT-70"/>
      <use xlink:href="#ArialMT-70" x="55.615234"/>
      <use xlink:href="#ArialMT-6f" x="111.230469"/>
      <use xlink:href="#ArialMT-20" x="166.845703"/>
      <use xlink:href="#ArialMT-66" x="194.628906"/>
      <use xlink:href="#ArialMT-69" x="222.412109"/>
      <use xlink:href="#ArialMT-6e" x="244.628906"/>
      <use xlink:href="#ArialMT-61" x="300.244141"/>
      <use xlink:href="#ArialMT-6c" x="355.859375"/>
      <use xlink:href="#ArialMT-3a" x="378.076172"/>
      <use xlink:href="#ArialMT-20" x="405.859375"/>
      <use xlink:href="#ArialMT-30" x="433.642578"/>
      <use xlink:href="#ArialMT-2e" x="489.257812"/>
      <use xlink:href="#ArialMT-32" x="517.041016"/>
      <use xlink:href="#ArialMT-35" x="572.65625"/>
     </g>
    </g>
   </g>
  </g>
 </g>
 <defs>
  <clipPath id="p599a0418cb">
   <rect x="58.995" y="27.65625" width="648.045" height="356.28375"/>
  </clipPath>
 </defs>
</svg>
