<?xml version="1.0" encoding="utf-8" standalone="no"?>
<!DOCTYPE svg PUBLIC "-//W3C//DTD SVG 1.1//EN"
  "http://www.w3.org/Graphics/SVG/1.1/DTD/svg11.dtd">
<svg xmlns:xlink="http://www.w3.org/1999/xlink" width="720pt" height="432pt" viewBox="0 0 720 432" xmlns="http://www.w3.org/2000/svg" version="1.1">
 <metadata>
  <rdf:RDF xmlns:dc="http://purl.org/dc/elements/1.1/" xmlns:cc="http://creativecommons.org/ns#" xmlns:rdf="http://www.w3.org/1999/02/22-rdf-syntax-ns#">
   <cc:Work>
    <dc:type rdf:resource="http://purl.org/dc/dcmitype/StillImage"/>
    <dc:date>2025-06-29T22:00:21.665416</dc:date>
    <dc:format>image/svg+xml</dc:format>
    <dc:creator>
     <cc:Agent>
      <dc:title>Matplotlib v3.9.2, https://matplotlib.org/</dc:title>
     </cc:Agent>
    </dc:creator>
   </cc:Work>
  </rdf:RDF>
 </metadata>
 <defs>
  <style type="text/css">*{stroke-linejoin: round; stroke-linecap: butt}</style>
 </defs>
 <g id="figure_1">
  <g id="patch_1">
   <path d="M 0 432 
L 720 432 
L 720 0 
L 0 0 
z
" style="fill: #ffffff"/>
  </g>
  <g id="axes_1">
   <g id="patch_2">
    <path d="M 52.875 383.94 
L 707.04 383.94 
L 707.04 27.65625 
L 52.875 27.65625 
z
" style="fill: #ffffff"/>
   </g>
   <g id="matplotlib.axis_1">
    <g id="xtick_1">
     <g id="line2d_1">
      <path d="M 82.609773 383.94 
L 82.609773 27.65625 
" clip-path="url(#pc78b17b803)" style="fill: none; stroke: #cccccc; stroke-linecap: round"/>
     </g>
     <g id="text_1">
      <!-- 0 -->
      <g style="fill: #262626" transform="translate(79.551257 401.313594) scale(0.11 -0.11)">
       <defs>
        <path id="ArialMT-30" d="M 266 2259 
Q 266 3072 433 3567 
Q 600 4063 929 4331 
Q 1259 4600 1759 4600 
Q 2128 4600 2406 4451 
Q 2684 4303 2865 4023 
Q 3047 3744 3150 3342 
Q 3253 2941 3253 2259 
Q 3253 1453 3087 958 
Q 2922 463 2592 192 
Q 2263 -78 1759 -78 
Q 1097 -78 719 397 
Q 266 969 266 2259 
z
M 844 2259 
Q 844 1131 1108 757 
Q 1372 384 1759 384 
Q 2147 384 2411 759 
Q 2675 1134 2675 2259 
Q 2675 3391 2411 3762 
Q 2147 4134 1753 4134 
Q 1366 4134 1134 3806 
Q 844 3388 844 2259 
z
" transform="scale(0.015625)"/>
       </defs>
       <use xlink:href="#ArialMT-30"/>
      </g>
     </g>
    </g>
    <g id="xtick_2">
     <g id="line2d_2">
      <path d="M 182.057173 383.94 
L 182.057173 27.65625 
" clip-path="url(#pc78b17b803)" style="fill: none; stroke: #cccccc; stroke-linecap: round"/>
     </g>
     <g id="text_2">
      <!-- 50 -->
      <g style="fill: #262626" transform="translate(175.940142 401.313594) scale(0.11 -0.11)">
       <defs>
        <path id="ArialMT-35" d="M 266 1200 
L 856 1250 
Q 922 819 1161 601 
Q 1400 384 1738 384 
Q 2144 384 2425 690 
Q 2706 997 2706 1503 
Q 2706 1984 2436 2262 
Q 2166 2541 1728 2541 
Q 1456 2541 1237 2417 
Q 1019 2294 894 2097 
L 366 2166 
L 809 4519 
L 3088 4519 
L 3088 3981 
L 1259 3981 
L 1013 2750 
Q 1425 3038 1878 3038 
Q 2478 3038 2890 2622 
Q 3303 2206 3303 1553 
Q 3303 931 2941 478 
Q 2500 -78 1738 -78 
Q 1113 -78 717 272 
Q 322 622 266 1200 
z
" transform="scale(0.015625)"/>
       </defs>
       <use xlink:href="#ArialMT-35"/>
       <use xlink:href="#ArialMT-30" x="55.615234"/>
      </g>
     </g>
    </g>
    <g id="xtick_3">
     <g id="line2d_3">
      <path d="M 281.504574 383.94 
L 281.504574 27.65625 
" clip-path="url(#pc78b17b803)" style="fill: none; stroke: #cccccc; stroke-linecap: round"/>
     </g>
     <g id="text_3">
      <!-- 100 -->
      <g style="fill: #262626" transform="translate(272.329027 401.313594) scale(0.11 -0.11)">
       <defs>
        <path id="ArialMT-31" d="M 2384 0 
L 1822 0 
L 1822 3584 
Q 1619 3391 1289 3197 
Q 959 3003 697 2906 
L 697 3450 
Q 1169 3672 1522 3987 
Q 1875 4303 2022 4600 
L 2384 4600 
L 2384 0 
z
" transform="scale(0.015625)"/>
       </defs>
       <use xlink:href="#ArialMT-31"/>
       <use xlink:href="#ArialMT-30" x="55.615234"/>
       <use xlink:href="#ArialMT-30" x="111.230469"/>
      </g>
     </g>
    </g>
    <g id="xtick_4">
     <g id="line2d_4">
      <path d="M 380.951974 383.94 
L 380.951974 27.65625 
" clip-path="url(#pc78b17b803)" style="fill: none; stroke: #cccccc; stroke-linecap: round"/>
     </g>
     <g id="text_4">
      <!-- 150 -->
      <g style="fill: #262626" transform="translate(371.776427 401.313594) scale(0.11 -0.11)">
       <use xlink:href="#ArialMT-31"/>
       <use xlink:href="#ArialMT-35" x="55.615234"/>
       <use xlink:href="#ArialMT-30" x="111.230469"/>
      </g>
     </g>
    </g>
    <g id="xtick_5">
     <g id="line2d_5">
      <path d="M 480.399374 383.94 
L 480.399374 27.65625 
" clip-path="url(#pc78b17b803)" style="fill: none; stroke: #cccccc; stroke-linecap: round"/>
     </g>
     <g id="text_5">
      <!-- 200 -->
      <g style="fill: #262626" transform="translate(471.223828 401.313594) scale(0.11 -0.11)">
       <defs>
        <path id="ArialMT-32" d="M 3222 541 
L 3222 0 
L 194 0 
Q 188 203 259 391 
Q 375 700 629 1000 
Q 884 1300 1366 1694 
Q 2113 2306 2375 2664 
Q 2638 3022 2638 3341 
Q 2638 3675 2398 3904 
Q 2159 4134 1775 4134 
Q 1369 4134 1125 3890 
Q 881 3647 878 3216 
L 300 3275 
Q 359 3922 746 4261 
Q 1134 4600 1788 4600 
Q 2447 4600 2831 4234 
Q 3216 3869 3216 3328 
Q 3216 3053 3103 2787 
Q 2991 2522 2730 2228 
Q 2469 1934 1863 1422 
Q 1356 997 1212 845 
Q 1069 694 975 541 
L 3222 541 
z
" transform="scale(0.015625)"/>
       </defs>
       <use xlink:href="#ArialMT-32"/>
       <use xlink:href="#ArialMT-30" x="55.615234"/>
       <use xlink:href="#ArialMT-30" x="111.230469"/>
      </g>
     </g>
    </g>
    <g id="xtick_6">
     <g id="line2d_6">
      <path d="M 579.846775 383.94 
L 579.846775 27.65625 
" clip-path="url(#pc78b17b803)" style="fill: none; stroke: #cccccc; stroke-linecap: round"/>
     </g>
     <g id="text_6">
      <!-- 250 -->
      <g style="fill: #262626" transform="translate(570.671228 401.313594) scale(0.11 -0.11)">
       <use xlink:href="#ArialMT-32"/>
       <use xlink:href="#ArialMT-35" x="55.615234"/>
       <use xlink:href="#ArialMT-30" x="111.230469"/>
      </g>
     </g>
    </g>
    <g id="xtick_7">
     <g id="line2d_7">
      <path d="M 679.294175 383.94 
L 679.294175 27.65625 
" clip-path="url(#pc78b17b803)" style="fill: none; stroke: #cccccc; stroke-linecap: round"/>
     </g>
     <g id="text_7">
      <!-- 300 -->
      <g style="fill: #262626" transform="translate(670.118628 401.313594) scale(0.11 -0.11)">
       <defs>
        <path id="ArialMT-33" d="M 269 1209 
L 831 1284 
Q 928 806 1161 595 
Q 1394 384 1728 384 
Q 2125 384 2398 659 
Q 2672 934 2672 1341 
Q 2672 1728 2419 1979 
Q 2166 2231 1775 2231 
Q 1616 2231 1378 2169 
L 1441 2663 
Q 1497 2656 1531 2656 
Q 1891 2656 2178 2843 
Q 2466 3031 2466 3422 
Q 2466 3731 2256 3934 
Q 2047 4138 1716 4138 
Q 1388 4138 1169 3931 
Q 950 3725 888 3313 
L 325 3413 
Q 428 3978 793 4289 
Q 1159 4600 1703 4600 
Q 2078 4600 2393 4439 
Q 2709 4278 2876 4000 
Q 3044 3722 3044 3409 
Q 3044 3113 2884 2869 
Q 2725 2625 2413 2481 
Q 2819 2388 3044 2092 
Q 3269 1797 3269 1353 
Q 3269 753 2831 336 
Q 2394 -81 1725 -81 
Q 1122 -81 723 278 
Q 325 638 269 1209 
z
" transform="scale(0.015625)"/>
       </defs>
       <use xlink:href="#ArialMT-33"/>
       <use xlink:href="#ArialMT-30" x="55.615234"/>
       <use xlink:href="#ArialMT-30" x="111.230469"/>
      </g>
     </g>
    </g>
    <g id="text_8">
     <!-- Episode -->
     <g style="fill: #262626" transform="translate(358.275937 416.089219) scale(0.12 -0.12)">
      <defs>
       <path id="ArialMT-45" d="M 506 0 
L 506 4581 
L 3819 4581 
L 3819 4041 
L 1113 4041 
L 1113 2638 
L 3647 2638 
L 3647 2100 
L 1113 2100 
L 1113 541 
L 3925 541 
L 3925 0 
L 506 0 
z
" transform="scale(0.015625)"/>
       <path id="ArialMT-70" d="M 422 -1272 
L 422 3319 
L 934 3319 
L 934 2888 
Q 1116 3141 1344 3267 
Q 1572 3394 1897 3394 
Q 2322 3394 2647 3175 
Q 2972 2956 3137 2557 
Q 3303 2159 3303 1684 
Q 3303 1175 3120 767 
Q 2938 359 2589 142 
Q 2241 -75 1856 -75 
Q 1575 -75 1351 44 
Q 1128 163 984 344 
L 984 -1272 
L 422 -1272 
z
M 931 1641 
Q 931 1000 1190 694 
Q 1450 388 1819 388 
Q 2194 388 2461 705 
Q 2728 1022 2728 1688 
Q 2728 2322 2467 2637 
Q 2206 2953 1844 2953 
Q 1484 2953 1207 2617 
Q 931 2281 931 1641 
z
" transform="scale(0.015625)"/>
       <path id="ArialMT-69" d="M 425 3934 
L 425 4581 
L 988 4581 
L 988 3934 
L 425 3934 
z
M 425 0 
L 425 3319 
L 988 3319 
L 988 0 
L 425 0 
z
" transform="scale(0.015625)"/>
       <path id="ArialMT-73" d="M 197 991 
L 753 1078 
Q 800 744 1014 566 
Q 1228 388 1613 388 
Q 2000 388 2187 545 
Q 2375 703 2375 916 
Q 2375 1106 2209 1216 
Q 2094 1291 1634 1406 
Q 1016 1563 777 1677 
Q 538 1791 414 1992 
Q 291 2194 291 2438 
Q 291 2659 392 2848 
Q 494 3038 669 3163 
Q 800 3259 1026 3326 
Q 1253 3394 1513 3394 
Q 1903 3394 2198 3281 
Q 2494 3169 2634 2976 
Q 2775 2784 2828 2463 
L 2278 2388 
Q 2241 2644 2061 2787 
Q 1881 2931 1553 2931 
Q 1166 2931 1000 2803 
Q 834 2675 834 2503 
Q 834 2394 903 2306 
Q 972 2216 1119 2156 
Q 1203 2125 1616 2013 
Q 2213 1853 2448 1751 
Q 2684 1650 2818 1456 
Q 2953 1263 2953 975 
Q 2953 694 2789 445 
Q 2625 197 2315 61 
Q 2006 -75 1616 -75 
Q 969 -75 630 194 
Q 291 463 197 991 
z
" transform="scale(0.015625)"/>
       <path id="ArialMT-6f" d="M 213 1659 
Q 213 2581 725 3025 
Q 1153 3394 1769 3394 
Q 2453 3394 2887 2945 
Q 3322 2497 3322 1706 
Q 3322 1066 3130 698 
Q 2938 331 2570 128 
Q 2203 -75 1769 -75 
Q 1072 -75 642 372 
Q 213 819 213 1659 
z
M 791 1659 
Q 791 1022 1069 705 
Q 1347 388 1769 388 
Q 2188 388 2466 706 
Q 2744 1025 2744 1678 
Q 2744 2294 2464 2611 
Q 2184 2928 1769 2928 
Q 1347 2928 1069 2612 
Q 791 2297 791 1659 
z
" transform="scale(0.015625)"/>
       <path id="ArialMT-64" d="M 2575 0 
L 2575 419 
Q 2259 -75 1647 -75 
Q 1250 -75 917 144 
Q 584 363 401 755 
Q 219 1147 219 1656 
Q 219 2153 384 2558 
Q 550 2963 881 3178 
Q 1213 3394 1622 3394 
Q 1922 3394 2156 3267 
Q 2391 3141 2538 2938 
L 2538 4581 
L 3097 4581 
L 3097 0 
L 2575 0 
z
M 797 1656 
Q 797 1019 1065 703 
Q 1334 388 1700 388 
Q 2069 388 2326 689 
Q 2584 991 2584 1609 
Q 2584 2291 2321 2609 
Q 2059 2928 1675 2928 
Q 1300 2928 1048 2622 
Q 797 2316 797 1656 
z
" transform="scale(0.015625)"/>
       <path id="ArialMT-65" d="M 2694 1069 
L 3275 997 
Q 3138 488 2766 206 
Q 2394 -75 1816 -75 
Q 1088 -75 661 373 
Q 234 822 234 1631 
Q 234 2469 665 2931 
Q 1097 3394 1784 3394 
Q 2450 3394 2872 2941 
Q 3294 2488 3294 1666 
Q 3294 1616 3291 1516 
L 816 1516 
Q 847 969 1125 678 
Q 1403 388 1819 388 
Q 2128 388 2347 550 
Q 2566 713 2694 1069 
z
M 847 1978 
L 2700 1978 
Q 2663 2397 2488 2606 
Q 2219 2931 1791 2931 
Q 1403 2931 1139 2672 
Q 875 2413 847 1978 
z
" transform="scale(0.015625)"/>
      </defs>
      <use xlink:href="#ArialMT-45"/>
      <use xlink:href="#ArialMT-70" x="66.699219"/>
      <use xlink:href="#ArialMT-69" x="122.314453"/>
      <use xlink:href="#ArialMT-73" x="144.53125"/>
      <use xlink:href="#ArialMT-6f" x="194.53125"/>
      <use xlink:href="#ArialMT-64" x="250.146484"/>
      <use xlink:href="#ArialMT-65" x="305.761719"/>
     </g>
    </g>
   </g>
   <g id="matplotlib.axis_2">
    <g id="ytick_1">
     <g id="line2d_8">
      <path d="M 52.875 379.100248 
L 707.04 379.100248 
" clip-path="url(#pc78b17b803)" style="fill: none; stroke: #cccccc; stroke-linecap: round"/>
     </g>
     <g id="text_9">
      <!-- 3.0 -->
      <g style="fill: #262626" transform="translate(28.085 383.037044) scale(0.11 -0.11)">
       <defs>
        <path id="ArialMT-2e" d="M 581 0 
L 581 641 
L 1222 641 
L 1222 0 
L 581 0 
z
" transform="scale(0.015625)"/>
       </defs>
       <use xlink:href="#ArialMT-33"/>
       <use xlink:href="#ArialMT-2e" x="55.615234"/>
       <use xlink:href="#ArialMT-30" x="83.398438"/>
      </g>
     </g>
    </g>
    <g id="ytick_2">
     <g id="line2d_9">
      <path d="M 52.875 331.328279 
L 707.04 331.328279 
" clip-path="url(#pc78b17b803)" style="fill: none; stroke: #cccccc; stroke-linecap: round"/>
     </g>
     <g id="text_10">
      <!-- 3.5 -->
      <g style="fill: #262626" transform="translate(28.085 335.265076) scale(0.11 -0.11)">
       <use xlink:href="#ArialMT-33"/>
       <use xlink:href="#ArialMT-2e" x="55.615234"/>
       <use xlink:href="#ArialMT-35" x="83.398438"/>
      </g>
     </g>
    </g>
    <g id="ytick_3">
     <g id="line2d_10">
      <path d="M 52.875 283.55631 
L 707.04 283.55631 
" clip-path="url(#pc78b17b803)" style="fill: none; stroke: #cccccc; stroke-linecap: round"/>
     </g>
     <g id="text_11">
      <!-- 4.0 -->
      <g style="fill: #262626" transform="translate(28.085 287.493107) scale(0.11 -0.11)">
       <defs>
        <path id="ArialMT-34" d="M 2069 0 
L 2069 1097 
L 81 1097 
L 81 1613 
L 2172 4581 
L 2631 4581 
L 2631 1613 
L 3250 1613 
L 3250 1097 
L 2631 1097 
L 2631 0 
L 2069 0 
z
M 2069 1613 
L 2069 3678 
L 634 1613 
L 2069 1613 
z
" transform="scale(0.015625)"/>
       </defs>
       <use xlink:href="#ArialMT-34"/>
       <use xlink:href="#ArialMT-2e" x="55.615234"/>
       <use xlink:href="#ArialMT-30" x="83.398438"/>
      </g>
     </g>
    </g>
    <g id="ytick_4">
     <g id="line2d_11">
      <path d="M 52.875 235.784341 
L 707.04 235.784341 
" clip-path="url(#pc78b17b803)" style="fill: none; stroke: #cccccc; stroke-linecap: round"/>
     </g>
     <g id="text_12">
      <!-- 4.5 -->
      <g style="fill: #262626" transform="translate(28.085 239.721138) scale(0.11 -0.11)">
       <use xlink:href="#ArialMT-34"/>
       <use xlink:href="#ArialMT-2e" x="55.615234"/>
       <use xlink:href="#ArialMT-35" x="83.398438"/>
      </g>
     </g>
    </g>
    <g id="ytick_5">
     <g id="line2d_12">
      <path d="M 52.875 188.012372 
L 707.04 188.012372 
" clip-path="url(#pc78b17b803)" style="fill: none; stroke: #cccccc; stroke-linecap: round"/>
     </g>
     <g id="text_13">
      <!-- 5.0 -->
      <g style="fill: #262626" transform="translate(28.085 191.949169) scale(0.11 -0.11)">
       <use xlink:href="#ArialMT-35"/>
       <use xlink:href="#ArialMT-2e" x="55.615234"/>
       <use xlink:href="#ArialMT-30" x="83.398438"/>
      </g>
     </g>
    </g>
    <g id="ytick_6">
     <g id="line2d_13">
      <path d="M 52.875 140.240404 
L 707.04 140.240404 
" clip-path="url(#pc78b17b803)" style="fill: none; stroke: #cccccc; stroke-linecap: round"/>
     </g>
     <g id="text_14">
      <!-- 5.5 -->
      <g style="fill: #262626" transform="translate(28.085 144.177201) scale(0.11 -0.11)">
       <use xlink:href="#ArialMT-35"/>
       <use xlink:href="#ArialMT-2e" x="55.615234"/>
       <use xlink:href="#ArialMT-35" x="83.398438"/>
      </g>
     </g>
    </g>
    <g id="ytick_7">
     <g id="line2d_14">
      <path d="M 52.875 92.468435 
L 707.04 92.468435 
" clip-path="url(#pc78b17b803)" style="fill: none; stroke: #cccccc; stroke-linecap: round"/>
     </g>
     <g id="text_15">
      <!-- 6.0 -->
      <g style="fill: #262626" transform="translate(28.085 96.405232) scale(0.11 -0.11)">
       <defs>
        <path id="ArialMT-36" d="M 3184 3459 
L 2625 3416 
Q 2550 3747 2413 3897 
Q 2184 4138 1850 4138 
Q 1581 4138 1378 3988 
Q 1113 3794 959 3422 
Q 806 3050 800 2363 
Q 1003 2672 1297 2822 
Q 1591 2972 1913 2972 
Q 2475 2972 2870 2558 
Q 3266 2144 3266 1488 
Q 3266 1056 3080 686 
Q 2894 316 2569 119 
Q 2244 -78 1831 -78 
Q 1128 -78 684 439 
Q 241 956 241 2144 
Q 241 3472 731 4075 
Q 1159 4600 1884 4600 
Q 2425 4600 2770 4297 
Q 3116 3994 3184 3459 
z
M 888 1484 
Q 888 1194 1011 928 
Q 1134 663 1356 523 
Q 1578 384 1822 384 
Q 2178 384 2434 671 
Q 2691 959 2691 1453 
Q 2691 1928 2437 2201 
Q 2184 2475 1800 2475 
Q 1419 2475 1153 2201 
Q 888 1928 888 1484 
z
" transform="scale(0.015625)"/>
       </defs>
       <use xlink:href="#ArialMT-36"/>
       <use xlink:href="#ArialMT-2e" x="55.615234"/>
       <use xlink:href="#ArialMT-30" x="83.398438"/>
      </g>
     </g>
    </g>
    <g id="ytick_8">
     <g id="line2d_15">
      <path d="M 52.875 44.696466 
L 707.04 44.696466 
" clip-path="url(#pc78b17b803)" style="fill: none; stroke: #cccccc; stroke-linecap: round"/>
     </g>
     <g id="text_16">
      <!-- 6.5 -->
      <g style="fill: #262626" transform="translate(28.085 48.633263) scale(0.11 -0.11)">
       <use xlink:href="#ArialMT-36"/>
       <use xlink:href="#ArialMT-2e" x="55.615234"/>
       <use xlink:href="#ArialMT-35" x="83.398438"/>
      </g>
     </g>
    </g>
    <g id="text_17">
     <!-- Total Reward -->
     <g style="fill: #262626" transform="translate(21.7 240.809063) rotate(-90) scale(0.12 -0.12)">
      <defs>
       <path id="ArialMT-54" d="M 1659 0 
L 1659 4041 
L 150 4041 
L 150 4581 
L 3781 4581 
L 3781 4041 
L 2266 4041 
L 2266 0 
L 1659 0 
z
" transform="scale(0.015625)"/>
       <path id="ArialMT-74" d="M 1650 503 
L 1731 6 
Q 1494 -44 1306 -44 
Q 1000 -44 831 53 
Q 663 150 594 308 
Q 525 466 525 972 
L 525 2881 
L 113 2881 
L 113 3319 
L 525 3319 
L 525 4141 
L 1084 4478 
L 1084 3319 
L 1650 3319 
L 1650 2881 
L 1084 2881 
L 1084 941 
Q 1084 700 1114 631 
Q 1144 563 1211 522 
Q 1278 481 1403 481 
Q 1497 481 1650 503 
z
" transform="scale(0.015625)"/>
       <path id="ArialMT-61" d="M 2588 409 
Q 2275 144 1986 34 
Q 1697 -75 1366 -75 
Q 819 -75 525 192 
Q 231 459 231 875 
Q 231 1119 342 1320 
Q 453 1522 633 1644 
Q 813 1766 1038 1828 
Q 1203 1872 1538 1913 
Q 2219 1994 2541 2106 
Q 2544 2222 2544 2253 
Q 2544 2597 2384 2738 
Q 2169 2928 1744 2928 
Q 1347 2928 1158 2789 
Q 969 2650 878 2297 
L 328 2372 
Q 403 2725 575 2942 
Q 747 3159 1072 3276 
Q 1397 3394 1825 3394 
Q 2250 3394 2515 3294 
Q 2781 3194 2906 3042 
Q 3031 2891 3081 2659 
Q 3109 2516 3109 2141 
L 3109 1391 
Q 3109 606 3145 398 
Q 3181 191 3288 0 
L 2700 0 
Q 2613 175 2588 409 
z
M 2541 1666 
Q 2234 1541 1622 1453 
Q 1275 1403 1131 1340 
Q 988 1278 909 1158 
Q 831 1038 831 891 
Q 831 666 1001 516 
Q 1172 366 1500 366 
Q 1825 366 2078 508 
Q 2331 650 2450 897 
Q 2541 1088 2541 1459 
L 2541 1666 
z
" transform="scale(0.015625)"/>
       <path id="ArialMT-6c" d="M 409 0 
L 409 4581 
L 972 4581 
L 972 0 
L 409 0 
z
" transform="scale(0.015625)"/>
       <path id="ArialMT-20" transform="scale(0.015625)"/>
       <path id="ArialMT-52" d="M 503 0 
L 503 4581 
L 2534 4581 
Q 3147 4581 3465 4457 
Q 3784 4334 3975 4021 
Q 4166 3709 4166 3331 
Q 4166 2844 3850 2509 
Q 3534 2175 2875 2084 
Q 3116 1969 3241 1856 
Q 3506 1613 3744 1247 
L 4541 0 
L 3778 0 
L 3172 953 
Q 2906 1366 2734 1584 
Q 2563 1803 2427 1890 
Q 2291 1978 2150 2013 
Q 2047 2034 1813 2034 
L 1109 2034 
L 1109 0 
L 503 0 
z
M 1109 2559 
L 2413 2559 
Q 2828 2559 3062 2645 
Q 3297 2731 3419 2920 
Q 3541 3109 3541 3331 
Q 3541 3656 3305 3865 
Q 3069 4075 2559 4075 
L 1109 4075 
L 1109 2559 
z
" transform="scale(0.015625)"/>
       <path id="ArialMT-77" d="M 1034 0 
L 19 3319 
L 600 3319 
L 1128 1403 
L 1325 691 
Q 1338 744 1497 1375 
L 2025 3319 
L 2603 3319 
L 3100 1394 
L 3266 759 
L 3456 1400 
L 4025 3319 
L 4572 3319 
L 3534 0 
L 2950 0 
L 2422 1988 
L 2294 2553 
L 1622 0 
L 1034 0 
z
" transform="scale(0.015625)"/>
       <path id="ArialMT-72" d="M 416 0 
L 416 3319 
L 922 3319 
L 922 2816 
Q 1116 3169 1280 3281 
Q 1444 3394 1641 3394 
Q 1925 3394 2219 3213 
L 2025 2691 
Q 1819 2813 1613 2813 
Q 1428 2813 1281 2702 
Q 1134 2591 1072 2394 
Q 978 2094 978 1738 
L 978 0 
L 416 0 
z
" transform="scale(0.015625)"/>
      </defs>
      <use xlink:href="#ArialMT-54"/>
      <use xlink:href="#ArialMT-6f" x="49.958984"/>
      <use xlink:href="#ArialMT-74" x="105.574219"/>
      <use xlink:href="#ArialMT-61" x="133.357422"/>
      <use xlink:href="#ArialMT-6c" x="188.972656"/>
      <use xlink:href="#ArialMT-20" x="211.189453"/>
      <use xlink:href="#ArialMT-52" x="238.972656"/>
      <use xlink:href="#ArialMT-65" x="311.189453"/>
      <use xlink:href="#ArialMT-77" x="366.804688"/>
      <use xlink:href="#ArialMT-61" x="439.021484"/>
      <use xlink:href="#ArialMT-72" x="494.636719"/>
      <use xlink:href="#ArialMT-64" x="527.9375"/>
     </g>
    </g>
   </g>
   <g id="PathCollection_1">
    <defs>
     <path id="m241dd1e2ae" d="M 0 2.738613 
C 0.726289 2.738613 1.422928 2.450055 1.936492 1.936492 
C 2.450055 1.422928 2.738613 0.726289 2.738613 0 
C 2.738613 -0.726289 2.450055 -1.422928 1.936492 -1.936492 
C 1.422928 -2.450055 0.726289 -2.738613 0 -2.738613 
C -0.726289 -2.738613 -1.422928 -2.450055 -1.936492 -1.936492 
C -2.450055 -1.422928 -2.738613 -0.726289 -2.738613 0 
C -2.738613 0.726289 -2.450055 1.422928 -1.936492 1.936492 
C -1.422928 2.450055 -0.726289 2.738613 0 2.738613 
z
" style="stroke: #4c72b0"/>
    </defs>
    <g clip-path="url(#pc78b17b803)">
     <use xlink:href="#m241dd1e2ae" x="677.305227" y="299.724617" style="fill: #4c72b0; stroke: #4c72b0"/>
    </g>
   </g>
   <g id="PathCollection_2">
    <defs>
     <path id="mfd204c1399" d="M 0 2.738613 
C 0.726289 2.738613 1.422928 2.450055 1.936492 1.936492 
C 2.450055 1.422928 2.738613 0.726289 2.738613 0 
C 2.738613 -0.726289 2.450055 -1.422928 1.936492 -1.936492 
C 1.422928 -2.450055 0.726289 -2.738613 0 -2.738613 
C -0.726289 -2.738613 -1.422928 -2.450055 -1.936492 -1.936492 
C -2.450055 -1.422928 -2.738613 -0.726289 -2.738613 0 
C -2.738613 0.726289 -2.450055 1.422928 -1.936492 1.936492 
C -1.422928 2.450055 -0.726289 2.738613 0 2.738613 
z
" style="stroke: #dd8452"/>
    </defs>
    <g clip-path="url(#pc78b17b803)">
     <use xlink:href="#mfd204c1399" x="677.305227" y="183.667147" style="fill: #dd8452; stroke: #dd8452"/>
    </g>
   </g>
   <g id="PathCollection_3">
    <defs>
     <path id="m72ba040463" d="M 0 2.738613 
C 0.726289 2.738613 1.422928 2.450055 1.936492 1.936492 
C 2.450055 1.422928 2.738613 0.726289 2.738613 0 
C 2.738613 -0.726289 2.450055 -1.422928 1.936492 -1.936492 
C 1.422928 -2.450055 0.726289 -2.738613 0 -2.738613 
C -0.726289 -2.738613 -1.422928 -2.450055 -1.936492 -1.936492 
C -2.450055 -1.422928 -2.738613 -0.726289 -2.738613 0 
C -2.738613 0.726289 -2.450055 1.422928 -1.936492 1.936492 
C -1.422928 2.450055 -0.726289 2.738613 0 2.738613 
z
" style="stroke: #55a868"/>
    </defs>
    <g clip-path="url(#pc78b17b803)">
     <use xlink:href="#m72ba040463" x="677.305227" y="367.745284" style="fill: #55a868; stroke: #55a868"/>
    </g>
   </g>
   <g id="line2d_16">
    <path d="M 82.609773 142.201897 
L 84.598721 175.398225 
L 86.587669 182.826102 
L 88.576617 178.955045 
L 90.565565 181.286275 
L 92.554513 166.944379 
L 94.543461 165.462339 
L 96.532409 115.920817 
L 98.521357 95.464197 
L 100.510305 89.497831 
L 102.499253 72.439622 
L 104.488201 88.109806 
L 106.477149 162.948672 
L 108.466097 169.841807 
L 110.455045 183.841082 
L 112.443993 221.168008 
L 114.432941 229.892036 
L 116.421889 194.633201 
L 118.410837 225.373422 
L 120.399785 239.698315 
L 122.388733 250.57471 
L 126.366629 206.955827 
L 128.355577 133.174537 
L 130.344525 82.06373 
L 132.333473 67.4728 
L 134.322421 43.850966 
L 136.311369 44.461583 
L 138.300317 88.455161 
L 140.289265 151.194649 
L 142.278213 177.649076 
L 144.267161 216.338905 
L 148.245057 246.907779 
L 152.222953 210.57047 
L 154.211901 194.387502 
L 156.200849 215.080928 
L 158.189797 204.417485 
L 160.178745 171.289896 
L 162.167693 160.374977 
L 164.156641 175.694704 
L 166.145589 164.345308 
L 168.134537 159.206063 
L 170.123485 169.685667 
L 172.112433 174.469097 
L 174.101381 194.920541 
L 176.090329 195.71364 
L 178.079277 188.265443 
L 180.068225 239.330272 
L 182.057173 247.603896 
L 184.046121 215.840842 
L 186.035069 198.776009 
L 188.024017 205.970251 
L 190.012965 191.046477 
L 192.001913 171.781796 
L 193.990861 179.051128 
L 195.979809 176.670448 
L 197.968757 173.608954 
L 199.957705 166.435122 
L 201.946653 163.883514 
L 203.935601 160.762911 
L 205.924549 192.146187 
L 207.913497 201.065307 
L 209.902445 174.318752 
L 211.891393 187.04851 
L 213.880341 162.486778 
L 215.869289 169.720442 
L 217.858237 134.755153 
L 219.847185 117.496804 
L 221.836133 133.953663 
L 223.825081 164.034382 
L 225.814029 135.56627 
L 227.802977 176.234923 
L 229.791925 200.235971 
L 231.780873 192.566604 
L 233.769821 171.995704 
L 235.758769 193.163407 
L 237.747717 220.075523 
L 239.736665 259.044196 
L 241.725613 242.309911 
L 243.714561 260.968331 
L 245.703509 242.226547 
L 247.692457 207.587259 
L 249.681405 184.99241 
L 251.670353 193.375511 
L 253.659301 204.549223 
L 255.648249 232.308275 
L 257.637197 247.471087 
L 259.626145 248.446877 
L 261.615093 224.912981 
L 263.604042 220.126827 
L 265.59299 214.096774 
L 267.581938 201.831517 
L 269.570886 198.244892 
L 271.559834 234.964345 
L 273.548782 220.58469 
L 275.53773 212.253844 
L 277.526678 208.741398 
L 279.515626 199.442071 
L 281.504574 202.067667 
L 283.493522 201.92401 
L 285.48247 190.996517 
L 287.471418 176.9193 
L 289.460366 207.62906 
L 291.449314 180.426233 
L 293.438262 181.721308 
L 295.42721 186.496801 
L 297.416158 207.13316 
L 299.405106 159.147046 
L 301.394054 182.867069 
L 303.383002 193.041009 
L 305.37195 161.307541 
L 307.360898 143.079416 
L 309.349846 174.779754 
L 311.338794 182.666901 
L 313.327742 162.254455 
L 315.31669 208.566352 
L 317.305638 250.626091 
L 319.294586 264.847803 
L 321.283534 245.34576 
L 323.272482 275.075712 
L 325.26143 249.479201 
L 327.250378 241.670715 
L 329.239326 254.129252 
L 331.228274 239.247155 
L 333.217222 235.261981 
L 335.20617 253.897357 
L 337.195118 257.30816 
L 339.184066 235.519763 
L 341.173014 246.526164 
L 343.161962 238.291283 
L 345.15091 245.458947 
L 347.139858 245.458947 
L 349.128806 218.847037 
L 351.117754 241.903968 
L 353.106702 260.051371 
L 355.09565 260.051371 
L 357.084598 236.495661 
L 359.073546 279.074968 
L 361.062494 279.004539 
L 363.051442 236.437437 
L 365.04039 240.216083 
L 367.029338 246.404175 
L 369.018286 239.973168 
L 371.007234 232.026598 
L 372.996182 245.578493 
L 374.98513 209.022324 
L 376.974078 213.716995 
L 378.963026 218.812749 
L 380.951974 229.965896 
L 382.940922 239.393736 
L 384.92987 246.658986 
L 386.918818 258.94198 
L 388.907766 257.163766 
L 390.896714 256.843054 
L 392.885662 270.50307 
L 394.87461 308.267352 
L 396.863558 281.096539 
L 398.852506 263.402287 
L 400.841454 243.538758 
L 402.830402 229.108842 
L 404.81935 224.285015 
L 406.808298 201.650488 
L 408.797246 216.0272 
L 410.786194 203.859986 
L 412.775142 203.774672 
L 414.76409 196.346489 
L 416.753038 255.802885 
L 418.741986 253.59439 
L 420.730934 283.455857 
L 422.719882 247.345928 
L 424.70883 247.345928 
L 426.697778 244.799914 
L 428.686726 238.609799 
L 430.675674 207.87854 
L 432.664622 272.244623 
L 434.65357 276.023269 
L 436.642518 264.52515 
L 438.631466 272.92376 
L 440.620414 285.552523 
L 442.609362 259.035034 
L 444.59831 249.307653 
L 446.587258 230.549788 
L 448.576206 233.150741 
L 450.565154 247.935697 
L 452.554102 242.556904 
L 454.54305 245.216314 
L 456.531998 242.839333 
L 458.520946 229.537906 
L 460.509894 241.381935 
L 462.498842 261.446977 
L 464.48779 255.054261 
L 466.476738 277.774703 
L 468.465686 278.793136 
L 470.454634 236.064501 
L 472.443582 230.169644 
L 474.43253 210.481165 
L 476.421478 222.710773 
L 478.410426 215.695769 
L 480.399374 252.308317 
L 482.388322 233.790474 
L 484.37727 252.928091 
L 486.366218 237.973533 
L 488.355166 254.93461 
L 490.344114 252.985313 
L 492.333062 252.985313 
L 494.32201 253.536175 
L 496.310958 242.852777 
L 498.299907 211.855249 
L 500.288855 193.291647 
L 502.277803 187.911487 
L 504.266751 194.304202 
L 506.255699 210.202764 
L 508.244647 179.890296 
L 510.233595 197.992792 
L 512.222543 222.097323 
L 514.211491 236.205465 
L 516.200439 217.488812 
L 518.189387 268.852736 
L 520.178335 275.241191 
L 522.167283 252.304381 
L 524.156231 239.643627 
L 526.145179 259.394134 
L 528.134127 260.204053 
L 530.123075 253.488962 
L 532.112023 273.136448 
L 536.089919 238.559762 
L 538.078867 249.15996 
L 540.067815 248.770008 
L 542.056763 255.376873 
L 544.045711 241.622423 
L 546.034659 268.251144 
L 548.023607 269.19445 
L 550.012555 268.556188 
L 552.001503 234.87356 
L 553.990451 272.448135 
L 555.979399 266.348513 
L 557.968347 263.257232 
L 559.957295 264.612081 
L 561.946243 307.00025 
L 563.935191 301.904496 
L 565.924139 258.379833 
L 567.913087 250.526035 
L 571.890983 237.624032 
L 573.879931 222.839076 
L 575.868879 245.834639 
L 577.857827 245.834639 
L 579.846775 252.11487 
L 581.835723 202.473587 
L 583.824671 217.258544 
L 585.813619 245.623601 
L 587.802567 245.025176 
L 589.791515 242.034271 
L 591.780463 267.223239 
L 593.769411 270.540779 
L 595.758359 268.804443 
L 597.747307 289.699645 
L 599.736255 281.323805 
L 601.725203 292.936897 
L 603.714151 275.242645 
L 605.703099 275.242645 
L 607.692047 266.21047 
L 609.680995 265.714187 
L 611.669943 224.22285 
L 613.658891 235.310237 
L 615.647839 239.751833 
L 617.636787 239.361881 
L 619.625735 239.361881 
L 621.614683 287.964498 
L 623.603631 295.027175 
L 625.592579 283.429324 
L 627.581527 280.621843 
L 629.570475 292.48487 
L 631.559423 296.263516 
L 633.548371 255.472219 
L 635.537319 235.999753 
L 637.526267 204.209846 
L 639.515215 176.905195 
L 641.504163 157.699103 
L 643.493111 175.992677 
L 645.482059 182.095693 
L 647.471007 189.564218 
L 649.459955 206.203576 
L 651.448903 220.278224 
L 653.437851 235.713269 
L 655.426799 220.758752 
L 657.415747 245.427238 
L 659.404695 265.657394 
L 661.393643 270.001098 
L 663.382591 246.163078 
L 665.371539 245.024224 
L 667.360487 254.589643 
L 669.349435 245.81252 
L 669.349435 245.81252 
" clip-path="url(#pc78b17b803)" style="fill: none; stroke: #4c72b0; stroke-width: 2; stroke-linecap: round"/>
   </g>
   <g id="line2d_17">
    <path d="M 82.609773 191.631316 
L 84.598721 175.87796 
L 86.587669 162.751512 
L 88.576617 123.22944 
L 90.565565 159.452364 
L 92.554513 155.783661 
L 94.543461 172.48035 
L 96.532409 181.051219 
L 98.521357 192.750425 
L 100.510305 175.700918 
L 102.499253 152.407172 
L 104.488201 133.623456 
L 106.477149 117.767274 
L 108.466097 134.117871 
L 110.455045 135.682892 
L 112.443993 152.937933 
L 114.432941 210.446413 
L 118.410837 263.56368 
L 120.399785 247.713228 
L 122.388733 260.453474 
L 124.377681 222.474919 
L 126.366629 207.28478 
L 128.355577 184.545204 
L 130.344525 147.133647 
L 132.333473 136.700659 
L 134.322421 144.331939 
L 136.311369 135.115346 
L 138.300317 163.220313 
L 140.289265 229.121954 
L 142.278213 184.319805 
L 144.267161 156.949577 
L 146.256109 183.24457 
L 148.245057 185.016328 
L 150.234005 159.920801 
L 152.222953 179.175222 
L 154.211901 230.051966 
L 156.200849 253.744056 
L 158.189797 202.911431 
L 160.178745 202.509374 
L 162.167693 222.139392 
L 164.156641 202.70268 
L 166.145589 181.514006 
L 168.134537 199.541417 
L 170.123485 204.475755 
L 172.112433 222.483256 
L 174.101381 189.206954 
L 176.090329 182.618727 
L 178.079277 189.602451 
L 180.068225 194.157548 
L 182.057173 179.596587 
L 184.046121 215.733177 
L 186.035069 236.274017 
L 188.024017 229.976465 
L 190.012965 215.173194 
L 192.001913 233.727822 
L 193.990861 229.49417 
L 195.979809 184.566707 
L 197.968757 190.152283 
L 199.957705 151.973643 
L 201.946653 153.37785 
L 203.935601 149.739015 
L 205.924549 175.828201 
L 207.913497 131.157135 
L 209.902445 174.92803 
L 211.891393 162.896981 
L 213.880341 167.740649 
L 215.869289 170.555004 
L 217.858237 221.83345 
L 219.847185 232.387169 
L 221.836133 227.841238 
L 223.825081 209.077578 
L 225.814029 233.902285 
L 227.802977 221.737384 
L 229.791925 255.277477 
L 231.780873 255.220802 
L 233.769821 236.294369 
L 235.758769 224.640074 
L 237.747717 224.326273 
L 239.736665 136.449047 
L 241.725613 127.026874 
L 243.714561 128.204344 
L 245.703509 79.199205 
L 247.692457 77.824073 
L 249.681405 103.214404 
L 251.670353 125.975361 
L 253.659301 157.514612 
L 255.648249 193.006799 
L 257.637197 198.370366 
L 259.626145 209.119013 
L 261.615093 206.290776 
L 263.604042 198.008514 
L 265.59299 171.948833 
L 267.581938 183.839068 
L 269.570886 187.448891 
L 271.559834 139.774965 
L 273.548782 146.184583 
L 275.53773 123.744346 
L 277.526678 115.507534 
L 279.515626 128.712991 
L 281.504574 131.2253 
L 283.493522 119.907184 
L 285.48247 136.099865 
L 287.471418 107.667066 
L 289.460366 121.139443 
L 291.449314 177.357285 
L 293.438262 171.084389 
L 295.42721 226.994148 
L 297.416158 269.280452 
L 299.405106 269.280452 
L 301.394054 257.061491 
L 303.383002 268.26509 
L 305.37195 248.307954 
L 307.360898 262.805844 
L 309.349846 255.302439 
L 311.338794 258.32416 
L 313.327742 281.106157 
L 315.31669 267.166756 
L 319.294586 249.991187 
L 321.283534 228.399421 
L 323.272482 191.408424 
L 325.26143 219.745909 
L 327.250378 223.912193 
L 329.239326 237.970371 
L 331.228274 246.235977 
L 333.217222 255.971713 
L 335.20617 261.530764 
L 337.195118 195.399374 
L 339.184066 174.756077 
L 341.173014 124.741097 
L 343.161962 93.472795 
L 345.15091 73.745276 
L 347.139858 142.379558 
L 349.128806 121.768776 
L 351.117754 157.719941 
L 353.106702 220.11397 
L 355.09565 189.182402 
L 357.084598 164.622775 
L 359.073546 174.450604 
L 361.062494 162.22604 
L 363.051442 103.928703 
L 365.04039 115.148275 
L 367.029338 120.31664 
L 369.018286 150.5977 
L 371.007234 178.329138 
L 374.98513 237.97166 
L 376.974078 250.373394 
L 378.963026 255.754966 
L 380.951974 272.164781 
L 382.940922 301.9279 
L 384.92987 299.147231 
L 386.918818 298.05133 
L 388.907766 297.506245 
L 390.896714 299.632 
L 392.885662 282.296237 
L 394.87461 259.899519 
L 396.863558 246.152586 
L 398.852506 259.018501 
L 400.841454 199.327135 
L 402.830402 203.467254 
L 404.81935 220.839756 
L 406.808298 193.414419 
L 408.797246 168.962347 
L 410.786194 197.307673 
L 412.775142 172.18101 
L 414.76409 163.980153 
L 416.753038 206.864495 
L 418.741986 200.287457 
L 420.730934 241.669007 
L 422.719882 285.642279 
L 424.70883 303.514625 
L 426.697778 272.641122 
L 428.686726 279.405015 
L 430.675674 242.791459 
L 432.664622 234.751904 
L 434.65357 241.314718 
L 436.642518 253.829228 
L 438.631466 217.652464 
L 440.620414 235.817545 
L 442.609362 206.566544 
L 444.59831 195.356458 
L 446.587258 205.230639 
L 448.576206 241.683007 
L 450.565154 236.760131 
L 452.554102 250.827225 
L 454.54305 247.253849 
L 456.531998 247.253849 
L 458.520946 237.131245 
L 460.509894 249.960325 
L 462.498842 253.369498 
L 464.48779 253.961846 
L 466.476738 256.840011 
L 468.465686 276.394948 
L 470.454634 259.817071 
L 472.443582 253.080213 
L 474.43253 269.659916 
L 476.421478 271.704627 
L 478.410426 270.059873 
L 480.399374 252.044846 
L 482.388322 241.683549 
L 484.37727 241.683549 
L 486.366218 202.051908 
L 488.355166 140.631718 
L 490.344114 168.176547 
L 492.333062 198.549804 
L 494.32201 185.7204 
L 496.310958 179.627198 
L 498.299907 247.639428 
L 500.288855 261.160917 
L 502.277803 225.489962 
L 504.266751 244.084863 
L 506.255699 290.320868 
L 508.244647 284.173624 
L 510.233595 275.704097 
L 512.222543 299.433869 
L 514.211491 293.224947 
L 516.200439 267.407111 
L 518.189387 274.266472 
L 520.178335 251.624091 
L 522.167283 265.210028 
L 524.156231 233.967402 
L 526.145179 273.653696 
L 528.134127 222.109218 
L 530.123075 238.749907 
L 532.112023 196.026438 
L 534.100971 233.477986 
L 536.089919 239.951053 
L 538.078867 258.889806 
L 540.067815 259.099915 
L 542.056763 295.998619 
L 544.045711 255.843952 
L 546.034659 238.357995 
L 548.023607 239.707259 
L 550.012555 238.755697 
L 552.001503 197.456495 
L 553.990451 169.276503 
L 555.979399 147.744693 
L 557.968347 171.34182 
L 559.957295 187.863008 
L 561.946243 233.8909 
L 563.935191 283.105856 
L 565.924139 319.875482 
L 567.913087 314.670829 
L 569.902035 296.146134 
L 571.890983 258.063841 
L 573.879931 265.675385 
L 575.868879 214.670115 
L 577.857827 191.942967 
L 579.846775 208.188578 
L 581.835723 248.250673 
L 583.824671 251.422019 
L 585.813619 239.886879 
L 587.802567 270.446723 
L 589.791515 240.70611 
L 591.780463 240.450493 
L 593.769411 242.682268 
L 595.758359 261.446576 
L 597.747307 253.61388 
L 599.736255 280.005887 
L 601.725203 285.633577 
L 603.714151 274.778285 
L 605.703099 290.007286 
L 607.692047 303.467672 
L 609.680995 306.816279 
L 611.669943 293.355893 
L 613.658891 288.818764 
L 615.647839 312.39918 
L 617.636787 307.027107 
L 619.625735 257.159046 
L 621.614683 247.027394 
L 623.603631 260.735935 
L 625.592579 253.694456 
L 627.581527 166.025907 
L 629.570475 205.556977 
L 631.559423 216.98217 
L 633.548371 169.900815 
L 635.537319 156.678656 
L 637.526267 220.820247 
L 639.515215 179.557274 
L 641.504163 186.171656 
L 643.493111 216.554932 
L 645.482059 232.613041 
L 647.471007 232.613041 
L 649.459955 277.091165 
L 651.448903 273.607873 
L 653.437851 287.696379 
L 655.426799 260.098967 
L 657.415747 276.871799 
L 659.404695 280.016921 
L 661.393643 291.813018 
L 663.382591 291.54315 
L 665.371539 284.212495 
L 667.360487 294.977325 
L 669.349435 267.379912 
L 669.349435 267.379912 
" clip-path="url(#pc78b17b803)" style="fill: none; stroke: #dd8452; stroke-width: 2; stroke-linecap: round"/>
   </g>
   <g id="line2d_18">
    <path d="M 82.609773 234.818356 
L 84.598721 240.704192 
L 86.587669 263.035935 
L 88.576617 288.00484 
L 90.565565 286.716061 
L 92.554513 298.346533 
L 94.543461 303.068754 
L 96.532409 292.397019 
L 98.521357 271.977479 
L 100.510305 280.891219 
L 102.499253 274.058054 
L 104.488201 235.092762 
L 108.466097 253.896109 
L 110.455045 236.012559 
L 112.443993 232.93922 
L 114.432941 254.142678 
L 116.421889 244.065569 
L 118.410837 242.955923 
L 120.399785 249.039038 
L 122.388733 268.549126 
L 124.377681 272.025599 
L 126.366629 255.290202 
L 128.355577 275.679263 
L 130.344525 289.89025 
L 132.333473 234.760637 
L 134.322421 238.437942 
L 136.311369 255.014839 
L 138.300317 245.634964 
L 140.289265 239.915964 
L 142.278213 276.210707 
L 144.267161 279.040608 
L 146.256109 290.761113 
L 150.234005 214.495246 
L 152.222953 195.581041 
L 154.211901 212.896443 
L 156.200849 215.759059 
L 158.189797 264.652465 
L 160.178745 318.978865 
L 162.167693 343.487152 
L 164.156641 332.012833 
L 166.145589 305.586803 
L 168.134537 298.291717 
L 170.123485 276.884018 
L 172.112433 281.480701 
L 174.101381 283.698504 
L 176.090329 282.702368 
L 178.079277 230.642204 
L 180.068225 220.76293 
L 182.057173 218.743495 
L 184.046121 216.37076 
L 186.035069 252.242886 
L 188.024017 284.321955 
L 190.012965 270.928322 
L 192.001913 263.377558 
L 193.990861 261.476914 
L 195.979809 235.321253 
L 197.968757 234.792132 
L 199.957705 265.358259 
L 201.946653 273.638188 
L 203.935601 254.940815 
L 205.924549 235.157146 
L 207.913497 227.587088 
L 209.902445 235.008719 
L 211.891393 189.124757 
L 213.880341 199.468203 
L 215.869289 246.505754 
L 217.858237 253.680834 
L 219.847185 249.392124 
L 221.836133 300.985095 
L 223.825081 317.75677 
L 225.814029 312.185299 
L 227.802977 271.571417 
L 229.791925 269.837382 
L 231.780873 250.899071 
L 233.769821 249.061913 
L 235.758769 226.36857 
L 237.747717 277.407248 
L 239.736665 279.310539 
L 241.725613 276.390761 
L 243.714561 287.92385 
L 245.703509 302.206219 
L 247.692457 278.21657 
L 249.681405 269.967111 
L 251.670353 274.846524 
L 253.659301 219.298088 
L 255.648249 215.832231 
L 257.637197 247.227944 
L 259.626145 236.868598 
L 261.615093 230.079665 
L 263.604042 278.187955 
L 265.59299 293.179625 
L 267.581938 265.107243 
L 269.570886 289.910487 
L 271.559834 286.605125 
L 273.548782 255.779905 
L 275.53773 247.018879 
L 277.526678 232.928012 
L 279.515626 216.98047 
L 281.504574 237.466052 
L 283.493522 264.602969 
L 285.48247 256.314339 
L 287.471418 290.494858 
L 289.460366 279.378213 
L 291.449314 282.425374 
L 293.438262 260.155031 
L 295.42721 250.809771 
L 297.416158 211.665783 
L 299.405106 225.479151 
L 301.394054 220.225512 
L 303.383002 236.472613 
L 305.37195 267.814717 
L 307.360898 292.226187 
L 309.349846 291.660127 
L 311.338794 266.398756 
L 315.31669 229.074317 
L 317.305638 205.612003 
L 319.294586 198.381779 
L 321.283534 203.135886 
L 323.272482 209.567591 
L 325.26143 187.479279 
L 327.250378 193.708447 
L 329.239326 189.142853 
L 331.228274 191.513383 
L 333.217222 214.32656 
L 335.20617 239.066126 
L 337.195118 276.377562 
L 339.184066 245.314375 
L 341.173014 253.989755 
L 343.161962 241.233095 
L 345.15091 255.41107 
L 347.139858 246.723981 
L 349.128806 291.422419 
L 351.117754 272.544323 
L 353.106702 276.936023 
L 355.09565 280.526825 
L 357.084598 247.174258 
L 359.073546 225.287452 
L 361.062494 248.34534 
L 363.051442 257.059978 
L 365.04039 258.976108 
L 367.029338 297.947546 
L 369.018286 313.047105 
L 371.007234 327.173877 
L 372.996182 306.975156 
L 374.98513 303.74406 
L 376.974078 286.736613 
L 378.963026 292.261723 
L 380.951974 288.386114 
L 382.940922 293.029258 
L 384.92987 292.787099 
L 386.918818 292.713813 
L 388.907766 299.114405 
L 390.896714 298.222918 
L 392.885662 318.032064 
L 394.87461 292.563364 
L 396.863558 265.438706 
L 398.852506 251.081471 
L 400.841454 255.202761 
L 402.830402 241.757063 
L 404.81935 255.294976 
L 406.808298 277.047419 
L 408.797246 262.821471 
L 410.786194 241.542453 
L 412.775142 213.330287 
L 414.76409 205.31834 
L 416.753038 210.736532 
L 418.741986 223.043221 
L 420.730934 257.1983 
L 422.719882 293.930026 
L 424.70883 278.04207 
L 426.697778 285.48398 
L 428.686726 302.747413 
L 430.675674 289.315629 
L 432.664622 286.849298 
L 434.65357 298.225383 
L 436.642518 280.907078 
L 440.620414 233.793117 
L 442.609362 214.872642 
L 444.59831 228.318208 
L 446.587258 230.173303 
L 448.576206 233.564498 
L 450.565154 216.87651 
L 452.554102 229.748261 
L 454.54305 195.644951 
L 456.531998 181.953535 
L 458.520946 178.703446 
L 460.509894 195.465275 
L 462.498842 184.816981 
L 464.48779 204.41959 
L 466.476738 243.145047 
L 468.465686 248.204189 
L 470.454634 219.70194 
L 472.443582 225.122821 
L 474.43253 208.730783 
L 476.421478 209.682295 
L 478.410426 195.474469 
L 480.399374 199.956918 
L 482.388322 200.073977 
L 484.37727 224.475616 
L 486.366218 203.894788 
L 488.355166 229.776161 
L 490.344114 243.739727 
L 492.333062 213.863795 
L 494.32201 214.897791 
L 496.310958 236.340889 
L 498.299907 191.912178 
L 500.288855 170.630814 
L 502.277803 214.036823 
L 504.266751 202.127189 
L 506.255699 220.2659 
L 508.244647 274.645194 
L 510.233595 303.988561 
L 512.222543 260.994604 
L 514.211491 264.484963 
L 516.200439 218.4183 
L 518.189387 194.444852 
L 520.178335 205.030672 
L 522.167283 245.731498 
L 524.156231 233.253052 
L 526.145179 249.70571 
L 528.134127 265.10896 
L 530.123075 277.724552 
L 532.112023 246.192664 
L 534.100971 259.157123 
L 536.089919 249.485524 
L 538.078867 232.534702 
L 540.067815 190.540928 
L 542.056763 209.792934 
L 544.045711 230.479017 
L 546.034659 256.083975 
L 548.023607 269.374408 
L 550.012555 264.807729 
L 552.001503 276.085042 
L 553.990451 262.472781 
L 555.979399 221.464851 
L 557.968347 233.466683 
L 559.957295 254.243117 
L 561.946243 243.89168 
L 563.935191 236.331845 
L 565.924139 257.672336 
L 567.913087 250.869367 
L 569.902035 273.134967 
L 571.890983 275.341995 
L 573.879931 289.280708 
L 575.868879 258.854471 
L 577.857827 248.583125 
L 579.846775 218.569041 
L 581.835723 203.952962 
L 583.824671 175.001826 
L 585.813619 186.598242 
L 587.802567 195.804926 
L 589.791515 187.377268 
L 591.780463 216.716935 
L 593.769411 232.212082 
L 595.758359 216.297611 
L 597.747307 215.117954 
L 599.736255 241.230675 
L 601.725203 220.858485 
L 603.714151 227.72822 
L 605.703099 263.028969 
L 607.692047 239.416297 
L 609.680995 236.432617 
L 611.669943 224.295717 
L 613.658891 236.268159 
L 615.647839 218.624691 
L 617.636787 228.803952 
L 619.625735 222.710668 
L 621.614683 238.604519 
L 623.603631 201.71495 
L 625.592579 224.62539 
L 627.581527 225.765438 
L 629.570475 214.173177 
L 631.559423 196.443967 
L 633.548371 215.187299 
L 635.537319 221.971138 
L 637.526267 232.032302 
L 639.515215 234.504136 
L 641.504163 250.902297 
L 643.493111 232.919179 
L 645.482059 233.700354 
L 647.471007 221.438486 
L 649.459955 227.71817 
L 651.448903 233.302862 
L 653.437851 243.425548 
L 655.426799 237.667017 
L 657.415747 245.632772 
L 659.404695 254.118372 
L 661.393643 241.357261 
L 663.382591 268.618768 
L 665.371539 254.962096 
L 667.360487 214.991834 
L 669.349435 241.855056 
L 669.349435 241.855056 
" clip-path="url(#pc78b17b803)" style="fill: none; stroke: #55a868; stroke-width: 2; stroke-linecap: round"/>
   </g>
   <g id="patch_3">
    <path d="M 52.875 383.94 
L 52.875 27.65625 
" style="fill: none; stroke: #cccccc; stroke-width: 1.25; stroke-linejoin: miter; stroke-linecap: square"/>
   </g>
   <g id="patch_4">
    <path d="M 707.04 383.94 
L 707.04 27.65625 
" style="fill: none; stroke: #cccccc; stroke-width: 1.25; stroke-linejoin: miter; stroke-linecap: square"/>
   </g>
   <g id="patch_5">
    <path d="M 52.875 383.94 
L 707.04 383.94 
" style="fill: none; stroke: #cccccc; stroke-width: 1.25; stroke-linejoin: miter; stroke-linecap: square"/>
   </g>
   <g id="patch_6">
    <path d="M 52.875 27.65625 
L 707.04 27.65625 
" style="fill: none; stroke: #cccccc; stroke-width: 1.25; stroke-linejoin: miter; stroke-linecap: square"/>
   </g>
   <g id="text_18">
    <!-- Agent Performance (Smoothed Reward) -->
    <g style="fill: #262626" transform="translate(272.91375 21.65625) scale(0.12 -0.12)">
     <defs>
      <path id="ArialMT-41" d="M -9 0 
L 1750 4581 
L 2403 4581 
L 4278 0 
L 3588 0 
L 3053 1388 
L 1138 1388 
L 634 0 
L -9 0 
z
M 1313 1881 
L 2866 1881 
L 2388 3150 
Q 2169 3728 2063 4100 
Q 1975 3659 1816 3225 
L 1313 1881 
z
" transform="scale(0.015625)"/>
      <path id="ArialMT-67" d="M 319 -275 
L 866 -356 
Q 900 -609 1056 -725 
Q 1266 -881 1628 -881 
Q 2019 -881 2231 -725 
Q 2444 -569 2519 -288 
Q 2563 -116 2559 434 
Q 2191 0 1641 0 
Q 956 0 581 494 
Q 206 988 206 1678 
Q 206 2153 378 2554 
Q 550 2956 876 3175 
Q 1203 3394 1644 3394 
Q 2231 3394 2613 2919 
L 2613 3319 
L 3131 3319 
L 3131 450 
Q 3131 -325 2973 -648 
Q 2816 -972 2473 -1159 
Q 2131 -1347 1631 -1347 
Q 1038 -1347 672 -1080 
Q 306 -813 319 -275 
z
M 784 1719 
Q 784 1066 1043 766 
Q 1303 466 1694 466 
Q 2081 466 2343 764 
Q 2606 1063 2606 1700 
Q 2606 2309 2336 2618 
Q 2066 2928 1684 2928 
Q 1309 2928 1046 2623 
Q 784 2319 784 1719 
z
" transform="scale(0.015625)"/>
      <path id="ArialMT-6e" d="M 422 0 
L 422 3319 
L 928 3319 
L 928 2847 
Q 1294 3394 1984 3394 
Q 2284 3394 2536 3286 
Q 2788 3178 2913 3003 
Q 3038 2828 3088 2588 
Q 3119 2431 3119 2041 
L 3119 0 
L 2556 0 
L 2556 2019 
Q 2556 2363 2490 2533 
Q 2425 2703 2258 2804 
Q 2091 2906 1866 2906 
Q 1506 2906 1245 2678 
Q 984 2450 984 1813 
L 984 0 
L 422 0 
z
" transform="scale(0.015625)"/>
      <path id="ArialMT-50" d="M 494 0 
L 494 4581 
L 2222 4581 
Q 2678 4581 2919 4538 
Q 3256 4481 3484 4323 
Q 3713 4166 3852 3881 
Q 3991 3597 3991 3256 
Q 3991 2672 3619 2267 
Q 3247 1863 2275 1863 
L 1100 1863 
L 1100 0 
L 494 0 
z
M 1100 2403 
L 2284 2403 
Q 2872 2403 3119 2622 
Q 3366 2841 3366 3238 
Q 3366 3525 3220 3729 
Q 3075 3934 2838 4000 
Q 2684 4041 2272 4041 
L 1100 4041 
L 1100 2403 
z
" transform="scale(0.015625)"/>
      <path id="ArialMT-66" d="M 556 0 
L 556 2881 
L 59 2881 
L 59 3319 
L 556 3319 
L 556 3672 
Q 556 4006 616 4169 
Q 697 4388 901 4523 
Q 1106 4659 1475 4659 
Q 1713 4659 2000 4603 
L 1916 4113 
Q 1741 4144 1584 4144 
Q 1328 4144 1222 4034 
Q 1116 3925 1116 3625 
L 1116 3319 
L 1763 3319 
L 1763 2881 
L 1116 2881 
L 1116 0 
L 556 0 
z
" transform="scale(0.015625)"/>
      <path id="ArialMT-6d" d="M 422 0 
L 422 3319 
L 925 3319 
L 925 2853 
Q 1081 3097 1340 3245 
Q 1600 3394 1931 3394 
Q 2300 3394 2536 3241 
Q 2772 3088 2869 2813 
Q 3263 3394 3894 3394 
Q 4388 3394 4653 3120 
Q 4919 2847 4919 2278 
L 4919 0 
L 4359 0 
L 4359 2091 
Q 4359 2428 4304 2576 
Q 4250 2725 4106 2815 
Q 3963 2906 3769 2906 
Q 3419 2906 3187 2673 
Q 2956 2441 2956 1928 
L 2956 0 
L 2394 0 
L 2394 2156 
Q 2394 2531 2256 2718 
Q 2119 2906 1806 2906 
Q 1569 2906 1367 2781 
Q 1166 2656 1075 2415 
Q 984 2175 984 1722 
L 984 0 
L 422 0 
z
" transform="scale(0.015625)"/>
      <path id="ArialMT-63" d="M 2588 1216 
L 3141 1144 
Q 3050 572 2676 248 
Q 2303 -75 1759 -75 
Q 1078 -75 664 370 
Q 250 816 250 1647 
Q 250 2184 428 2587 
Q 606 2991 970 3192 
Q 1334 3394 1763 3394 
Q 2303 3394 2647 3120 
Q 2991 2847 3088 2344 
L 2541 2259 
Q 2463 2594 2264 2762 
Q 2066 2931 1784 2931 
Q 1359 2931 1093 2626 
Q 828 2322 828 1663 
Q 828 994 1084 691 
Q 1341 388 1753 388 
Q 2084 388 2306 591 
Q 2528 794 2588 1216 
z
" transform="scale(0.015625)"/>
      <path id="ArialMT-28" d="M 1497 -1347 
Q 1031 -759 709 28 
Q 388 816 388 1659 
Q 388 2403 628 3084 
Q 909 3875 1497 4659 
L 1900 4659 
Q 1522 4009 1400 3731 
Q 1209 3300 1100 2831 
Q 966 2247 966 1656 
Q 966 153 1900 -1347 
L 1497 -1347 
z
" transform="scale(0.015625)"/>
      <path id="ArialMT-53" d="M 288 1472 
L 859 1522 
Q 900 1178 1048 958 
Q 1197 738 1509 602 
Q 1822 466 2213 466 
Q 2559 466 2825 569 
Q 3091 672 3220 851 
Q 3350 1031 3350 1244 
Q 3350 1459 3225 1620 
Q 3100 1781 2813 1891 
Q 2628 1963 1997 2114 
Q 1366 2266 1113 2400 
Q 784 2572 623 2826 
Q 463 3081 463 3397 
Q 463 3744 659 4045 
Q 856 4347 1234 4503 
Q 1613 4659 2075 4659 
Q 2584 4659 2973 4495 
Q 3363 4331 3572 4012 
Q 3781 3694 3797 3291 
L 3216 3247 
Q 3169 3681 2898 3903 
Q 2628 4125 2100 4125 
Q 1550 4125 1298 3923 
Q 1047 3722 1047 3438 
Q 1047 3191 1225 3031 
Q 1400 2872 2139 2705 
Q 2878 2538 3153 2413 
Q 3553 2228 3743 1945 
Q 3934 1663 3934 1294 
Q 3934 928 3725 604 
Q 3516 281 3123 101 
Q 2731 -78 2241 -78 
Q 1619 -78 1198 103 
Q 778 284 539 648 
Q 300 1013 288 1472 
z
" transform="scale(0.015625)"/>
      <path id="ArialMT-68" d="M 422 0 
L 422 4581 
L 984 4581 
L 984 2938 
Q 1378 3394 1978 3394 
Q 2347 3394 2619 3248 
Q 2891 3103 3008 2847 
Q 3125 2591 3125 2103 
L 3125 0 
L 2563 0 
L 2563 2103 
Q 2563 2525 2380 2717 
Q 2197 2909 1863 2909 
Q 1613 2909 1392 2779 
Q 1172 2650 1078 2428 
Q 984 2206 984 1816 
L 984 0 
L 422 0 
z
" transform="scale(0.015625)"/>
      <path id="ArialMT-29" d="M 791 -1347 
L 388 -1347 
Q 1322 153 1322 1656 
Q 1322 2244 1188 2822 
Q 1081 3291 891 3722 
Q 769 4003 388 4659 
L 791 4659 
Q 1378 3875 1659 3084 
Q 1900 2403 1900 1659 
Q 1900 816 1576 28 
Q 1253 -759 791 -1347 
z
" transform="scale(0.015625)"/>
     </defs>
     <use xlink:href="#ArialMT-41"/>
     <use xlink:href="#ArialMT-67" x="66.699219"/>
     <use xlink:href="#ArialMT-65" x="122.314453"/>
     <use xlink:href="#ArialMT-6e" x="177.929688"/>
     <use xlink:href="#ArialMT-74" x="233.544922"/>
     <use xlink:href="#ArialMT-20" x="261.328125"/>
     <use xlink:href="#ArialMT-50" x="289.111328"/>
     <use xlink:href="#ArialMT-65" x="355.810547"/>
     <use xlink:href="#ArialMT-72" x="411.425781"/>
     <use xlink:href="#ArialMT-66" x="444.726562"/>
     <use xlink:href="#ArialMT-6f" x="472.509766"/>
     <use xlink:href="#ArialMT-72" x="528.125"/>
     <use xlink:href="#ArialMT-6d" x="561.425781"/>
     <use xlink:href="#ArialMT-61" x="644.726562"/>
     <use xlink:href="#ArialMT-6e" x="700.341797"/>
     <use xlink:href="#ArialMT-63" x="755.957031"/>
     <use xlink:href="#ArialMT-65" x="805.957031"/>
     <use xlink:href="#ArialMT-20" x="861.572266"/>
     <use xlink:href="#ArialMT-28" x="889.355469"/>
     <use xlink:href="#ArialMT-53" x="922.65625"/>
     <use xlink:href="#ArialMT-6d" x="989.355469"/>
     <use xlink:href="#ArialMT-6f" x="1072.65625"/>
     <use xlink:href="#ArialMT-6f" x="1128.271484"/>
     <use xlink:href="#ArialMT-74" x="1183.886719"/>
     <use xlink:href="#ArialMT-68" x="1211.669922"/>
     <use xlink:href="#ArialMT-65" x="1267.285156"/>
     <use xlink:href="#ArialMT-64" x="1322.900391"/>
     <use xlink:href="#ArialMT-20" x="1378.515625"/>
     <use xlink:href="#ArialMT-52" x="1406.298828"/>
     <use xlink:href="#ArialMT-65" x="1478.515625"/>
     <use xlink:href="#ArialMT-77" x="1534.130859"/>
     <use xlink:href="#ArialMT-61" x="1606.347656"/>
     <use xlink:href="#ArialMT-72" x="1661.962891"/>
     <use xlink:href="#ArialMT-64" x="1695.263672"/>
     <use xlink:href="#ArialMT-29" x="1750.878906"/>
    </g>
   </g>
   <g id="legend_1">
    <g id="patch_7">
     <path d="M 588.918906 131.006406 
L 699.34 131.006406 
Q 701.54 131.006406 701.54 128.806406 
L 701.54 35.35625 
Q 701.54 33.15625 699.34 33.15625 
L 588.918906 33.15625 
Q 586.718906 33.15625 586.718906 35.35625 
L 586.718906 128.806406 
Q 586.718906 131.006406 588.918906 131.006406 
z
" style="fill: #ffffff; opacity: 0.8; stroke: #cccccc; stroke-linejoin: miter"/>
    </g>
    <g id="line2d_19">
     <path d="M 591.118906 41.713906 
L 602.118906 41.713906 
L 613.118906 41.713906 
" style="fill: none; stroke: #4c72b0; stroke-width: 2; stroke-linecap: round"/>
    </g>
    <g id="text_19">
     <!-- ddqn (avg) -->
     <g style="fill: #262626" transform="translate(621.918906 45.563906) scale(0.11 -0.11)">
      <defs>
       <path id="ArialMT-71" d="M 2538 -1272 
L 2538 353 
Q 2406 169 2170 47 
Q 1934 -75 1669 -75 
Q 1078 -75 651 397 
Q 225 869 225 1691 
Q 225 2191 398 2587 
Q 572 2984 901 3189 
Q 1231 3394 1625 3394 
Q 2241 3394 2594 2875 
L 2594 3319 
L 3100 3319 
L 3100 -1272 
L 2538 -1272 
z
M 803 1669 
Q 803 1028 1072 708 
Q 1341 388 1716 388 
Q 2075 388 2334 692 
Q 2594 997 2594 1619 
Q 2594 2281 2320 2615 
Q 2047 2950 1678 2950 
Q 1313 2950 1058 2639 
Q 803 2328 803 1669 
z
" transform="scale(0.015625)"/>
       <path id="ArialMT-76" d="M 1344 0 
L 81 3319 
L 675 3319 
L 1388 1331 
Q 1503 1009 1600 663 
Q 1675 925 1809 1294 
L 2547 3319 
L 3125 3319 
L 1869 0 
L 1344 0 
z
" transform="scale(0.015625)"/>
      </defs>
      <use xlink:href="#ArialMT-64"/>
      <use xlink:href="#ArialMT-64" x="55.615234"/>
      <use xlink:href="#ArialMT-71" x="111.230469"/>
      <use xlink:href="#ArialMT-6e" x="166.845703"/>
      <use xlink:href="#ArialMT-20" x="222.460938"/>
      <use xlink:href="#ArialMT-28" x="250.244141"/>
      <use xlink:href="#ArialMT-61" x="283.544922"/>
      <use xlink:href="#ArialMT-76" x="339.160156"/>
      <use xlink:href="#ArialMT-67" x="389.160156"/>
      <use xlink:href="#ArialMT-29" x="444.775391"/>
     </g>
    </g>
    <g id="PathCollection_4">
     <g>
      <use xlink:href="#m241dd1e2ae" x="602.118906" y="58.499219" style="fill: #4c72b0; stroke: #4c72b0"/>
     </g>
    </g>
    <g id="text_20">
     <!-- ddqn final: 3.83 -->
     <g style="fill: #262626" transform="translate(621.918906 61.386719) scale(0.11 -0.11)">
      <defs>
       <path id="ArialMT-3a" d="M 578 2678 
L 578 3319 
L 1219 3319 
L 1219 2678 
L 578 2678 
z
M 578 0 
L 578 641 
L 1219 641 
L 1219 0 
L 578 0 
z
" transform="scale(0.015625)"/>
       <path id="ArialMT-38" d="M 1131 2484 
Q 781 2613 612 2850 
Q 444 3088 444 3419 
Q 444 3919 803 4259 
Q 1163 4600 1759 4600 
Q 2359 4600 2725 4251 
Q 3091 3903 3091 3403 
Q 3091 3084 2923 2848 
Q 2756 2613 2416 2484 
Q 2838 2347 3058 2040 
Q 3278 1734 3278 1309 
Q 3278 722 2862 322 
Q 2447 -78 1769 -78 
Q 1091 -78 675 323 
Q 259 725 259 1325 
Q 259 1772 486 2073 
Q 713 2375 1131 2484 
z
M 1019 3438 
Q 1019 3113 1228 2906 
Q 1438 2700 1772 2700 
Q 2097 2700 2305 2904 
Q 2513 3109 2513 3406 
Q 2513 3716 2298 3927 
Q 2084 4138 1766 4138 
Q 1444 4138 1231 3931 
Q 1019 3725 1019 3438 
z
M 838 1322 
Q 838 1081 952 856 
Q 1066 631 1291 507 
Q 1516 384 1775 384 
Q 2178 384 2440 643 
Q 2703 903 2703 1303 
Q 2703 1709 2433 1975 
Q 2163 2241 1756 2241 
Q 1359 2241 1098 1978 
Q 838 1716 838 1322 
z
" transform="scale(0.015625)"/>
      </defs>
      <use xlink:href="#ArialMT-64"/>
      <use xlink:href="#ArialMT-64" x="55.615234"/>
      <use xlink:href="#ArialMT-71" x="111.230469"/>
      <use xlink:href="#ArialMT-6e" x="166.845703"/>
      <use xlink:href="#ArialMT-20" x="222.460938"/>
      <use xlink:href="#ArialMT-66" x="250.244141"/>
      <use xlink:href="#ArialMT-69" x="278.027344"/>
      <use xlink:href="#ArialMT-6e" x="300.244141"/>
      <use xlink:href="#ArialMT-61" x="355.859375"/>
      <use xlink:href="#ArialMT-6c" x="411.474609"/>
      <use xlink:href="#ArialMT-3a" x="433.691406"/>
      <use xlink:href="#ArialMT-20" x="461.474609"/>
      <use xlink:href="#ArialMT-33" x="489.257812"/>
      <use xlink:href="#ArialMT-2e" x="544.873047"/>
      <use xlink:href="#ArialMT-38" x="572.65625"/>
      <use xlink:href="#ArialMT-33" x="628.271484"/>
     </g>
    </g>
    <g id="line2d_20">
     <path d="M 591.118906 73.230625 
L 602.118906 73.230625 
L 613.118906 73.230625 
" style="fill: none; stroke: #dd8452; stroke-width: 2; stroke-linecap: round"/>
    </g>
    <g id="text_21">
     <!-- dqn (avg) -->
     <g style="fill: #262626" transform="translate(621.918906 77.080625) scale(0.11 -0.11)">
      <use xlink:href="#ArialMT-64"/>
      <use xlink:href="#ArialMT-71" x="55.615234"/>
      <use xlink:href="#ArialMT-6e" x="111.230469"/>
      <use xlink:href="#ArialMT-20" x="166.845703"/>
      <use xlink:href="#ArialMT-28" x="194.628906"/>
      <use xlink:href="#ArialMT-61" x="227.929688"/>
      <use xlink:href="#ArialMT-76" x="283.544922"/>
      <use xlink:href="#ArialMT-67" x="333.544922"/>
      <use xlink:href="#ArialMT-29" x="389.160156"/>
     </g>
    </g>
    <g id="PathCollection_5">
     <g>
      <use xlink:href="#mfd204c1399" x="602.118906" y="90.015937" style="fill: #dd8452; stroke: #dd8452"/>
     </g>
    </g>
    <g id="text_22">
     <!-- dqn final: 5.05 -->
     <g style="fill: #262626" transform="translate(621.918906 92.903437) scale(0.11 -0.11)">
      <use xlink:href="#ArialMT-64"/>
      <use xlink:href="#ArialMT-71" x="55.615234"/>
      <use xlink:href="#ArialMT-6e" x="111.230469"/>
      <use xlink:href="#ArialMT-20" x="166.845703"/>
      <use xlink:href="#ArialMT-66" x="194.628906"/>
      <use xlink:href="#ArialMT-69" x="222.412109"/>
      <use xlink:href="#ArialMT-6e" x="244.628906"/>
      <use xlink:href="#ArialMT-61" x="300.244141"/>
      <use xlink:href="#ArialMT-6c" x="355.859375"/>
      <use xlink:href="#ArialMT-3a" x="378.076172"/>
      <use xlink:href="#ArialMT-20" x="405.859375"/>
      <use xlink:href="#ArialMT-35" x="433.642578"/>
      <use xlink:href="#ArialMT-2e" x="489.257812"/>
      <use xlink:href="#ArialMT-30" x="517.041016"/>
      <use xlink:href="#ArialMT-35" x="572.65625"/>
     </g>
    </g>
    <g id="line2d_21">
     <path d="M 591.118906 104.747344 
L 602.118906 104.747344 
L 613.118906 104.747344 
" style="fill: none; stroke: #55a868; stroke-width: 2; stroke-linecap: round"/>
    </g>
    <g id="text_23">
     <!-- ppo (avg) -->
     <g style="fill: #262626" transform="translate(621.918906 108.597344) scale(0.11 -0.11)">
      <use xlink:href="#ArialMT-70"/>
      <use xlink:href="#ArialMT-70" x="55.615234"/>
      <use xlink:href="#ArialMT-6f" x="111.230469"/>
      <use xlink:href="#ArialMT-20" x="166.845703"/>
      <use xlink:href="#ArialMT-28" x="194.628906"/>
      <use xlink:href="#ArialMT-61" x="227.929688"/>
      <use xlink:href="#ArialMT-76" x="283.544922"/>
      <use xlink:href="#ArialMT-67" x="333.544922"/>
      <use xlink:href="#ArialMT-29" x="389.160156"/>
     </g>
    </g>
    <g id="PathCollection_6">
     <g>
      <use xlink:href="#m72ba040463" x="602.118906" y="121.532656" style="fill: #55a868; stroke: #55a868"/>
     </g>
    </g>
    <g id="text_24">
     <!-- ppo final: 3.12 -->
     <g style="fill: #262626" transform="translate(621.918906 124.420156) scale(0.11 -0.11)">
      <use xlink:href="#ArialMT-70"/>
      <use xlink:href="#ArialMT-70" x="55.615234"/>
      <use xlink:href="#ArialMT-6f" x="111.230469"/>
      <use xlink:href="#ArialMT-20" x="166.845703"/>
      <use xlink:href="#ArialMT-66" x="194.628906"/>
      <use xlink:href="#ArialMT-69" x="222.412109"/>
      <use xlink:href="#ArialMT-6e" x="244.628906"/>
      <use xlink:href="#ArialMT-61" x="300.244141"/>
      <use xlink:href="#ArialMT-6c" x="355.859375"/>
      <use xlink:href="#ArialMT-3a" x="378.076172"/>
      <use xlink:href="#ArialMT-20" x="405.859375"/>
      <use xlink:href="#ArialMT-33" x="433.642578"/>
      <use xlink:href="#ArialMT-2e" x="489.257812"/>
      <use xlink:href="#ArialMT-31" x="517.041016"/>
      <use xlink:href="#ArialMT-32" x="572.65625"/>
     </g>
    </g>
   </g>
  </g>
 </g>
 <defs>
  <clipPath id="pc78b17b803">
   <rect x="52.875" y="27.65625" width="654.165" height="356.28375"/>
  </clipPath>
 </defs>
</svg>
