<?xml version="1.0" encoding="utf-8" standalone="no"?>
<!DOCTYPE svg PUBLIC "-//W3C//DTD SVG 1.1//EN"
  "http://www.w3.org/Graphics/SVG/1.1/DTD/svg11.dtd">
<svg xmlns:xlink="http://www.w3.org/1999/xlink" width="720pt" height="432pt" viewBox="0 0 720 432" xmlns="http://www.w3.org/2000/svg" version="1.1">
 <metadata>
  <rdf:RDF xmlns:dc="http://purl.org/dc/elements/1.1/" xmlns:cc="http://creativecommons.org/ns#" xmlns:rdf="http://www.w3.org/1999/02/22-rdf-syntax-ns#">
   <cc:Work>
    <dc:type rdf:resource="http://purl.org/dc/dcmitype/StillImage"/>
    <dc:date>2025-06-29T22:00:19.983996</dc:date>
    <dc:format>image/svg+xml</dc:format>
    <dc:creator>
     <cc:Agent>
      <dc:title>Matplotlib v3.9.2, https://matplotlib.org/</dc:title>
     </cc:Agent>
    </dc:creator>
   </cc:Work>
  </rdf:RDF>
 </metadata>
 <defs>
  <style type="text/css">*{stroke-linejoin: round; stroke-linecap: butt}</style>
 </defs>
 <g id="figure_1">
  <g id="patch_1">
   <path d="M 0 432 
L 720 432 
L 720 0 
L 0 0 
z
" style="fill: #ffffff"/>
  </g>
  <g id="axes_1">
   <g id="patch_2">
    <path d="M 49.905 383.94 
L 707.04 383.94 
L 707.04 27.65625 
L 49.905 27.65625 
z
" style="fill: #ffffff"/>
   </g>
   <g id="matplotlib.axis_1">
    <g id="xtick_1">
     <g id="line2d_1">
      <path d="M 79.774773 383.94 
L 79.774773 27.65625 
" clip-path="url(#pf28cafd3bf)" style="fill: none; stroke: #cccccc; stroke-linecap: round"/>
     </g>
     <g id="text_1">
      <!-- 0 -->
      <g style="fill: #262626" transform="translate(76.716257 401.313594) scale(0.11 -0.11)">
       <defs>
        <path id="ArialMT-30" d="M 266 2259 
Q 266 3072 433 3567 
Q 600 4063 929 4331 
Q 1259 4600 1759 4600 
Q 2128 4600 2406 4451 
Q 2684 4303 2865 4023 
Q 3047 3744 3150 3342 
Q 3253 2941 3253 2259 
Q 3253 1453 3087 958 
Q 2922 463 2592 192 
Q 2263 -78 1759 -78 
Q 1097 -78 719 397 
Q 266 969 266 2259 
z
M 844 2259 
Q 844 1131 1108 757 
Q 1372 384 1759 384 
Q 2147 384 2411 759 
Q 2675 1134 2675 2259 
Q 2675 3391 2411 3762 
Q 2147 4134 1753 4134 
Q 1366 4134 1134 3806 
Q 844 3388 844 2259 
z
" transform="scale(0.015625)"/>
       </defs>
       <use xlink:href="#ArialMT-30"/>
      </g>
     </g>
    </g>
    <g id="xtick_2">
     <g id="line2d_2">
      <path d="M 179.673678 383.94 
L 179.673678 27.65625 
" clip-path="url(#pf28cafd3bf)" style="fill: none; stroke: #cccccc; stroke-linecap: round"/>
     </g>
     <g id="text_2">
      <!-- 50 -->
      <g style="fill: #262626" transform="translate(173.556647 401.313594) scale(0.11 -0.11)">
       <defs>
        <path id="ArialMT-35" d="M 266 1200 
L 856 1250 
Q 922 819 1161 601 
Q 1400 384 1738 384 
Q 2144 384 2425 690 
Q 2706 997 2706 1503 
Q 2706 1984 2436 2262 
Q 2166 2541 1728 2541 
Q 1456 2541 1237 2417 
Q 1019 2294 894 2097 
L 366 2166 
L 809 4519 
L 3088 4519 
L 3088 3981 
L 1259 3981 
L 1013 2750 
Q 1425 3038 1878 3038 
Q 2478 3038 2890 2622 
Q 3303 2206 3303 1553 
Q 3303 931 2941 478 
Q 2500 -78 1738 -78 
Q 1113 -78 717 272 
Q 322 622 266 1200 
z
" transform="scale(0.015625)"/>
       </defs>
       <use xlink:href="#ArialMT-35"/>
       <use xlink:href="#ArialMT-30" x="55.615234"/>
      </g>
     </g>
    </g>
    <g id="xtick_3">
     <g id="line2d_3">
      <path d="M 279.572584 383.94 
L 279.572584 27.65625 
" clip-path="url(#pf28cafd3bf)" style="fill: none; stroke: #cccccc; stroke-linecap: round"/>
     </g>
     <g id="text_3">
      <!-- 100 -->
      <g style="fill: #262626" transform="translate(270.397037 401.313594) scale(0.11 -0.11)">
       <defs>
        <path id="ArialMT-31" d="M 2384 0 
L 1822 0 
L 1822 3584 
Q 1619 3391 1289 3197 
Q 959 3003 697 2906 
L 697 3450 
Q 1169 3672 1522 3987 
Q 1875 4303 2022 4600 
L 2384 4600 
L 2384 0 
z
" transform="scale(0.015625)"/>
       </defs>
       <use xlink:href="#ArialMT-31"/>
       <use xlink:href="#ArialMT-30" x="55.615234"/>
       <use xlink:href="#ArialMT-30" x="111.230469"/>
      </g>
     </g>
    </g>
    <g id="xtick_4">
     <g id="line2d_4">
      <path d="M 379.471489 383.94 
L 379.471489 27.65625 
" clip-path="url(#pf28cafd3bf)" style="fill: none; stroke: #cccccc; stroke-linecap: round"/>
     </g>
     <g id="text_4">
      <!-- 150 -->
      <g style="fill: #262626" transform="translate(370.295942 401.313594) scale(0.11 -0.11)">
       <use xlink:href="#ArialMT-31"/>
       <use xlink:href="#ArialMT-35" x="55.615234"/>
       <use xlink:href="#ArialMT-30" x="111.230469"/>
      </g>
     </g>
    </g>
    <g id="xtick_5">
     <g id="line2d_5">
      <path d="M 479.370394 383.94 
L 479.370394 27.65625 
" clip-path="url(#pf28cafd3bf)" style="fill: none; stroke: #cccccc; stroke-linecap: round"/>
     </g>
     <g id="text_5">
      <!-- 200 -->
      <g style="fill: #262626" transform="translate(470.194848 401.313594) scale(0.11 -0.11)">
       <defs>
        <path id="ArialMT-32" d="M 3222 541 
L 3222 0 
L 194 0 
Q 188 203 259 391 
Q 375 700 629 1000 
Q 884 1300 1366 1694 
Q 2113 2306 2375 2664 
Q 2638 3022 2638 3341 
Q 2638 3675 2398 3904 
Q 2159 4134 1775 4134 
Q 1369 4134 1125 3890 
Q 881 3647 878 3216 
L 300 3275 
Q 359 3922 746 4261 
Q 1134 4600 1788 4600 
Q 2447 4600 2831 4234 
Q 3216 3869 3216 3328 
Q 3216 3053 3103 2787 
Q 2991 2522 2730 2228 
Q 2469 1934 1863 1422 
Q 1356 997 1212 845 
Q 1069 694 975 541 
L 3222 541 
z
" transform="scale(0.015625)"/>
       </defs>
       <use xlink:href="#ArialMT-32"/>
       <use xlink:href="#ArialMT-30" x="55.615234"/>
       <use xlink:href="#ArialMT-30" x="111.230469"/>
      </g>
     </g>
    </g>
    <g id="xtick_6">
     <g id="line2d_6">
      <path d="M 579.2693 383.94 
L 579.2693 27.65625 
" clip-path="url(#pf28cafd3bf)" style="fill: none; stroke: #cccccc; stroke-linecap: round"/>
     </g>
     <g id="text_6">
      <!-- 250 -->
      <g style="fill: #262626" transform="translate(570.093753 401.313594) scale(0.11 -0.11)">
       <use xlink:href="#ArialMT-32"/>
       <use xlink:href="#ArialMT-35" x="55.615234"/>
       <use xlink:href="#ArialMT-30" x="111.230469"/>
      </g>
     </g>
    </g>
    <g id="xtick_7">
     <g id="line2d_7">
      <path d="M 679.168205 383.94 
L 679.168205 27.65625 
" clip-path="url(#pf28cafd3bf)" style="fill: none; stroke: #cccccc; stroke-linecap: round"/>
     </g>
     <g id="text_7">
      <!-- 300 -->
      <g style="fill: #262626" transform="translate(669.992659 401.313594) scale(0.11 -0.11)">
       <defs>
        <path id="ArialMT-33" d="M 269 1209 
L 831 1284 
Q 928 806 1161 595 
Q 1394 384 1728 384 
Q 2125 384 2398 659 
Q 2672 934 2672 1341 
Q 2672 1728 2419 1979 
Q 2166 2231 1775 2231 
Q 1616 2231 1378 2169 
L 1441 2663 
Q 1497 2656 1531 2656 
Q 1891 2656 2178 2843 
Q 2466 3031 2466 3422 
Q 2466 3731 2256 3934 
Q 2047 4138 1716 4138 
Q 1388 4138 1169 3931 
Q 950 3725 888 3313 
L 325 3413 
Q 428 3978 793 4289 
Q 1159 4600 1703 4600 
Q 2078 4600 2393 4439 
Q 2709 4278 2876 4000 
Q 3044 3722 3044 3409 
Q 3044 3113 2884 2869 
Q 2725 2625 2413 2481 
Q 2819 2388 3044 2092 
Q 3269 1797 3269 1353 
Q 3269 753 2831 336 
Q 2394 -81 1725 -81 
Q 1122 -81 723 278 
Q 325 638 269 1209 
z
" transform="scale(0.015625)"/>
       </defs>
       <use xlink:href="#ArialMT-33"/>
       <use xlink:href="#ArialMT-30" x="55.615234"/>
       <use xlink:href="#ArialMT-30" x="111.230469"/>
      </g>
     </g>
    </g>
    <g id="text_8">
     <!-- Episode -->
     <g style="fill: #262626" transform="translate(356.790937 416.089219) scale(0.12 -0.12)">
      <defs>
       <path id="ArialMT-45" d="M 506 0 
L 506 4581 
L 3819 4581 
L 3819 4041 
L 1113 4041 
L 1113 2638 
L 3647 2638 
L 3647 2100 
L 1113 2100 
L 1113 541 
L 3925 541 
L 3925 0 
L 506 0 
z
" transform="scale(0.015625)"/>
       <path id="ArialMT-70" d="M 422 -1272 
L 422 3319 
L 934 3319 
L 934 2888 
Q 1116 3141 1344 3267 
Q 1572 3394 1897 3394 
Q 2322 3394 2647 3175 
Q 2972 2956 3137 2557 
Q 3303 2159 3303 1684 
Q 3303 1175 3120 767 
Q 2938 359 2589 142 
Q 2241 -75 1856 -75 
Q 1575 -75 1351 44 
Q 1128 163 984 344 
L 984 -1272 
L 422 -1272 
z
M 931 1641 
Q 931 1000 1190 694 
Q 1450 388 1819 388 
Q 2194 388 2461 705 
Q 2728 1022 2728 1688 
Q 2728 2322 2467 2637 
Q 2206 2953 1844 2953 
Q 1484 2953 1207 2617 
Q 931 2281 931 1641 
z
" transform="scale(0.015625)"/>
       <path id="ArialMT-69" d="M 425 3934 
L 425 4581 
L 988 4581 
L 988 3934 
L 425 3934 
z
M 425 0 
L 425 3319 
L 988 3319 
L 988 0 
L 425 0 
z
" transform="scale(0.015625)"/>
       <path id="ArialMT-73" d="M 197 991 
L 753 1078 
Q 800 744 1014 566 
Q 1228 388 1613 388 
Q 2000 388 2187 545 
Q 2375 703 2375 916 
Q 2375 1106 2209 1216 
Q 2094 1291 1634 1406 
Q 1016 1563 777 1677 
Q 538 1791 414 1992 
Q 291 2194 291 2438 
Q 291 2659 392 2848 
Q 494 3038 669 3163 
Q 800 3259 1026 3326 
Q 1253 3394 1513 3394 
Q 1903 3394 2198 3281 
Q 2494 3169 2634 2976 
Q 2775 2784 2828 2463 
L 2278 2388 
Q 2241 2644 2061 2787 
Q 1881 2931 1553 2931 
Q 1166 2931 1000 2803 
Q 834 2675 834 2503 
Q 834 2394 903 2306 
Q 972 2216 1119 2156 
Q 1203 2125 1616 2013 
Q 2213 1853 2448 1751 
Q 2684 1650 2818 1456 
Q 2953 1263 2953 975 
Q 2953 694 2789 445 
Q 2625 197 2315 61 
Q 2006 -75 1616 -75 
Q 969 -75 630 194 
Q 291 463 197 991 
z
" transform="scale(0.015625)"/>
       <path id="ArialMT-6f" d="M 213 1659 
Q 213 2581 725 3025 
Q 1153 3394 1769 3394 
Q 2453 3394 2887 2945 
Q 3322 2497 3322 1706 
Q 3322 1066 3130 698 
Q 2938 331 2570 128 
Q 2203 -75 1769 -75 
Q 1072 -75 642 372 
Q 213 819 213 1659 
z
M 791 1659 
Q 791 1022 1069 705 
Q 1347 388 1769 388 
Q 2188 388 2466 706 
Q 2744 1025 2744 1678 
Q 2744 2294 2464 2611 
Q 2184 2928 1769 2928 
Q 1347 2928 1069 2612 
Q 791 2297 791 1659 
z
" transform="scale(0.015625)"/>
       <path id="ArialMT-64" d="M 2575 0 
L 2575 419 
Q 2259 -75 1647 -75 
Q 1250 -75 917 144 
Q 584 363 401 755 
Q 219 1147 219 1656 
Q 219 2153 384 2558 
Q 550 2963 881 3178 
Q 1213 3394 1622 3394 
Q 1922 3394 2156 3267 
Q 2391 3141 2538 2938 
L 2538 4581 
L 3097 4581 
L 3097 0 
L 2575 0 
z
M 797 1656 
Q 797 1019 1065 703 
Q 1334 388 1700 388 
Q 2069 388 2326 689 
Q 2584 991 2584 1609 
Q 2584 2291 2321 2609 
Q 2059 2928 1675 2928 
Q 1300 2928 1048 2622 
Q 797 2316 797 1656 
z
" transform="scale(0.015625)"/>
       <path id="ArialMT-65" d="M 2694 1069 
L 3275 997 
Q 3138 488 2766 206 
Q 2394 -75 1816 -75 
Q 1088 -75 661 373 
Q 234 822 234 1631 
Q 234 2469 665 2931 
Q 1097 3394 1784 3394 
Q 2450 3394 2872 2941 
Q 3294 2488 3294 1666 
Q 3294 1616 3291 1516 
L 816 1516 
Q 847 969 1125 678 
Q 1403 388 1819 388 
Q 2128 388 2347 550 
Q 2566 713 2694 1069 
z
M 847 1978 
L 2700 1978 
Q 2663 2397 2488 2606 
Q 2219 2931 1791 2931 
Q 1403 2931 1139 2672 
Q 875 2413 847 1978 
z
" transform="scale(0.015625)"/>
      </defs>
      <use xlink:href="#ArialMT-45"/>
      <use xlink:href="#ArialMT-70" x="66.699219"/>
      <use xlink:href="#ArialMT-69" x="122.314453"/>
      <use xlink:href="#ArialMT-73" x="144.53125"/>
      <use xlink:href="#ArialMT-6f" x="194.53125"/>
      <use xlink:href="#ArialMT-64" x="250.146484"/>
      <use xlink:href="#ArialMT-65" x="305.761719"/>
     </g>
    </g>
   </g>
   <g id="matplotlib.axis_2">
    <g id="ytick_1">
     <g id="line2d_8">
      <path d="M 49.905 332.17405 
L 707.04 332.17405 
" clip-path="url(#pf28cafd3bf)" style="fill: none; stroke: #cccccc; stroke-linecap: round"/>
     </g>
     <g id="text_9">
      <!-- 10 -->
      <g style="fill: #262626" transform="translate(28.170938 336.110847) scale(0.11 -0.11)">
       <use xlink:href="#ArialMT-31"/>
       <use xlink:href="#ArialMT-30" x="55.615234"/>
      </g>
     </g>
    </g>
    <g id="ytick_2">
     <g id="line2d_9">
      <path d="M 49.905 262.579914 
L 707.04 262.579914 
" clip-path="url(#pf28cafd3bf)" style="fill: none; stroke: #cccccc; stroke-linecap: round"/>
     </g>
     <g id="text_10">
      <!-- 15 -->
      <g style="fill: #262626" transform="translate(28.170938 266.516711) scale(0.11 -0.11)">
       <use xlink:href="#ArialMT-31"/>
       <use xlink:href="#ArialMT-35" x="55.615234"/>
      </g>
     </g>
    </g>
    <g id="ytick_3">
     <g id="line2d_10">
      <path d="M 49.905 192.985777 
L 707.04 192.985777 
" clip-path="url(#pf28cafd3bf)" style="fill: none; stroke: #cccccc; stroke-linecap: round"/>
     </g>
     <g id="text_11">
      <!-- 20 -->
      <g style="fill: #262626" transform="translate(28.170938 196.922574) scale(0.11 -0.11)">
       <use xlink:href="#ArialMT-32"/>
       <use xlink:href="#ArialMT-30" x="55.615234"/>
      </g>
     </g>
    </g>
    <g id="ytick_4">
     <g id="line2d_11">
      <path d="M 49.905 123.39164 
L 707.04 123.39164 
" clip-path="url(#pf28cafd3bf)" style="fill: none; stroke: #cccccc; stroke-linecap: round"/>
     </g>
     <g id="text_12">
      <!-- 25 -->
      <g style="fill: #262626" transform="translate(28.170938 127.328437) scale(0.11 -0.11)">
       <use xlink:href="#ArialMT-32"/>
       <use xlink:href="#ArialMT-35" x="55.615234"/>
      </g>
     </g>
    </g>
    <g id="ytick_5">
     <g id="line2d_12">
      <path d="M 49.905 53.797503 
L 707.04 53.797503 
" clip-path="url(#pf28cafd3bf)" style="fill: none; stroke: #cccccc; stroke-linecap: round"/>
     </g>
     <g id="text_13">
      <!-- 30 -->
      <g style="fill: #262626" transform="translate(28.170938 57.7343) scale(0.11 -0.11)">
       <use xlink:href="#ArialMT-33"/>
       <use xlink:href="#ArialMT-30" x="55.615234"/>
      </g>
     </g>
    </g>
    <g id="text_14">
     <!-- Total Reward -->
     <g style="fill: #262626" transform="translate(21.785937 240.809063) rotate(-90) scale(0.12 -0.12)">
      <defs>
       <path id="ArialMT-54" d="M 1659 0 
L 1659 4041 
L 150 4041 
L 150 4581 
L 3781 4581 
L 3781 4041 
L 2266 4041 
L 2266 0 
L 1659 0 
z
" transform="scale(0.015625)"/>
       <path id="ArialMT-74" d="M 1650 503 
L 1731 6 
Q 1494 -44 1306 -44 
Q 1000 -44 831 53 
Q 663 150 594 308 
Q 525 466 525 972 
L 525 2881 
L 113 2881 
L 113 3319 
L 525 3319 
L 525 4141 
L 1084 4478 
L 1084 3319 
L 1650 3319 
L 1650 2881 
L 1084 2881 
L 1084 941 
Q 1084 700 1114 631 
Q 1144 563 1211 522 
Q 1278 481 1403 481 
Q 1497 481 1650 503 
z
" transform="scale(0.015625)"/>
       <path id="ArialMT-61" d="M 2588 409 
Q 2275 144 1986 34 
Q 1697 -75 1366 -75 
Q 819 -75 525 192 
Q 231 459 231 875 
Q 231 1119 342 1320 
Q 453 1522 633 1644 
Q 813 1766 1038 1828 
Q 1203 1872 1538 1913 
Q 2219 1994 2541 2106 
Q 2544 2222 2544 2253 
Q 2544 2597 2384 2738 
Q 2169 2928 1744 2928 
Q 1347 2928 1158 2789 
Q 969 2650 878 2297 
L 328 2372 
Q 403 2725 575 2942 
Q 747 3159 1072 3276 
Q 1397 3394 1825 3394 
Q 2250 3394 2515 3294 
Q 2781 3194 2906 3042 
Q 3031 2891 3081 2659 
Q 3109 2516 3109 2141 
L 3109 1391 
Q 3109 606 3145 398 
Q 3181 191 3288 0 
L 2700 0 
Q 2613 175 2588 409 
z
M 2541 1666 
Q 2234 1541 1622 1453 
Q 1275 1403 1131 1340 
Q 988 1278 909 1158 
Q 831 1038 831 891 
Q 831 666 1001 516 
Q 1172 366 1500 366 
Q 1825 366 2078 508 
Q 2331 650 2450 897 
Q 2541 1088 2541 1459 
L 2541 1666 
z
" transform="scale(0.015625)"/>
       <path id="ArialMT-6c" d="M 409 0 
L 409 4581 
L 972 4581 
L 972 0 
L 409 0 
z
" transform="scale(0.015625)"/>
       <path id="ArialMT-20" transform="scale(0.015625)"/>
       <path id="ArialMT-52" d="M 503 0 
L 503 4581 
L 2534 4581 
Q 3147 4581 3465 4457 
Q 3784 4334 3975 4021 
Q 4166 3709 4166 3331 
Q 4166 2844 3850 2509 
Q 3534 2175 2875 2084 
Q 3116 1969 3241 1856 
Q 3506 1613 3744 1247 
L 4541 0 
L 3778 0 
L 3172 953 
Q 2906 1366 2734 1584 
Q 2563 1803 2427 1890 
Q 2291 1978 2150 2013 
Q 2047 2034 1813 2034 
L 1109 2034 
L 1109 0 
L 503 0 
z
M 1109 2559 
L 2413 2559 
Q 2828 2559 3062 2645 
Q 3297 2731 3419 2920 
Q 3541 3109 3541 3331 
Q 3541 3656 3305 3865 
Q 3069 4075 2559 4075 
L 1109 4075 
L 1109 2559 
z
" transform="scale(0.015625)"/>
       <path id="ArialMT-77" d="M 1034 0 
L 19 3319 
L 600 3319 
L 1128 1403 
L 1325 691 
Q 1338 744 1497 1375 
L 2025 3319 
L 2603 3319 
L 3100 1394 
L 3266 759 
L 3456 1400 
L 4025 3319 
L 4572 3319 
L 3534 0 
L 2950 0 
L 2422 1988 
L 2294 2553 
L 1622 0 
L 1034 0 
z
" transform="scale(0.015625)"/>
       <path id="ArialMT-72" d="M 416 0 
L 416 3319 
L 922 3319 
L 922 2816 
Q 1116 3169 1280 3281 
Q 1444 3394 1641 3394 
Q 1925 3394 2219 3213 
L 2025 2691 
Q 1819 2813 1613 2813 
Q 1428 2813 1281 2702 
Q 1134 2591 1072 2394 
Q 978 2094 978 1738 
L 978 0 
L 416 0 
z
" transform="scale(0.015625)"/>
      </defs>
      <use xlink:href="#ArialMT-54"/>
      <use xlink:href="#ArialMT-6f" x="49.958984"/>
      <use xlink:href="#ArialMT-74" x="105.574219"/>
      <use xlink:href="#ArialMT-61" x="133.357422"/>
      <use xlink:href="#ArialMT-6c" x="188.972656"/>
      <use xlink:href="#ArialMT-20" x="211.189453"/>
      <use xlink:href="#ArialMT-52" x="238.972656"/>
      <use xlink:href="#ArialMT-65" x="311.189453"/>
      <use xlink:href="#ArialMT-77" x="366.804688"/>
      <use xlink:href="#ArialMT-61" x="439.021484"/>
      <use xlink:href="#ArialMT-72" x="494.636719"/>
      <use xlink:href="#ArialMT-64" x="527.9375"/>
     </g>
    </g>
   </g>
   <g id="PathCollection_1">
    <defs>
     <path id="m7069f755fe" d="M 0 2.738613 
C 0.726289 2.738613 1.422928 2.450055 1.936492 1.936492 
C 2.450055 1.422928 2.738613 0.726289 2.738613 0 
C 2.738613 -0.726289 2.450055 -1.422928 1.936492 -1.936492 
C 1.422928 -2.450055 0.726289 -2.738613 0 -2.738613 
C -0.726289 -2.738613 -1.422928 -2.450055 -1.936492 -1.936492 
C -2.450055 -1.422928 -2.738613 -0.726289 -2.738613 0 
C -2.738613 0.726289 -2.450055 1.422928 -1.936492 1.936492 
C -1.422928 2.450055 -0.726289 2.738613 0 2.738613 
z
" style="stroke: #4c72b0"/>
    </defs>
    <g clip-path="url(#pf28cafd3bf)">
     <use xlink:href="#m7069f755fe" x="677.170227" y="197.32203" style="fill: #4c72b0; stroke: #4c72b0"/>
    </g>
   </g>
   <g id="PathCollection_2">
    <defs>
     <path id="m85f67d54ca" d="M 0 2.738613 
C 0.726289 2.738613 1.422928 2.450055 1.936492 1.936492 
C 2.450055 1.422928 2.738613 0.726289 2.738613 0 
C 2.738613 -0.726289 2.450055 -1.422928 1.936492 -1.936492 
C 1.422928 -2.450055 0.726289 -2.738613 0 -2.738613 
C -0.726289 -2.738613 -1.422928 -2.450055 -1.936492 -1.936492 
C -2.450055 -1.422928 -2.738613 -0.726289 -2.738613 0 
C -2.738613 0.726289 -2.450055 1.422928 -1.936492 1.936492 
C -1.422928 2.450055 -0.726289 2.738613 0 2.738613 
z
" style="stroke: #dd8452"/>
    </defs>
    <g clip-path="url(#pf28cafd3bf)">
     <use xlink:href="#m85f67d54ca" x="677.170227" y="170.900661" style="fill: #dd8452; stroke: #dd8452"/>
    </g>
   </g>
   <g id="PathCollection_3">
    <defs>
     <path id="m0c9e94e786" d="M 0 2.738613 
C 0.726289 2.738613 1.422928 2.450055 1.936492 1.936492 
C 2.450055 1.422928 2.738613 0.726289 2.738613 0 
C 2.738613 -0.726289 2.450055 -1.422928 1.936492 -1.936492 
C 1.422928 -2.450055 0.726289 -2.738613 0 -2.738613 
C -0.726289 -2.738613 -1.422928 -2.450055 -1.936492 -1.936492 
C -2.450055 -1.422928 -2.738613 -0.726289 -2.738613 0 
C -2.738613 0.726289 -2.450055 1.422928 -1.936492 1.936492 
C -1.422928 2.450055 -0.726289 2.738613 0 2.738613 
z
" style="stroke: #55a868"/>
    </defs>
    <g clip-path="url(#pf28cafd3bf)">
     <use xlink:href="#m0c9e94e786" x="677.170227" y="265.464307" style="fill: #55a868; stroke: #55a868"/>
    </g>
   </g>
   <g id="line2d_13">
    <path d="M 79.774773 263.335519 
L 81.772751 262.478314 
L 83.770729 249.054215 
L 85.768707 297.591851 
L 87.766685 295.244138 
L 89.764663 287.131057 
L 91.762641 256.853224 
L 93.760619 310.452443 
L 95.758598 293.379271 
L 97.756576 306.916757 
L 99.754554 313.770427 
L 101.752532 302.966637 
L 103.75051 221.573786 
L 105.748488 211.035832 
L 107.746466 190.999911 
L 109.744444 188.065941 
L 111.742422 235.862442 
L 113.740401 292.429543 
L 115.738379 262.121597 
L 117.736357 278.51881 
L 121.732313 192.183741 
L 123.730291 175.399057 
L 125.728269 233.603428 
L 127.726247 248.433328 
L 129.724225 298.671748 
L 131.722204 290.413524 
L 133.720182 303.640142 
L 135.71816 305.684052 
L 137.716138 254.683262 
L 139.714116 241.438143 
L 141.712094 259.29924 
L 143.710072 261.723654 
L 145.70805 221.478569 
L 147.706028 256.223045 
L 149.704007 271.707453 
L 151.701985 278.335175 
L 153.699963 261.41231 
L 155.697941 305.353494 
L 157.695919 318.942981 
L 161.691875 312.505651 
L 163.689853 347.736427 
L 165.687831 329.649936 
L 167.68581 327.618054 
L 169.683788 328.781192 
L 171.681766 336.660604 
L 173.679744 286.706202 
L 175.677722 297.325037 
L 177.6757 233.491097 
L 179.673678 214.632905 
L 181.671656 192.593418 
L 183.669634 224.531457 
L 185.667612 188.428344 
L 187.665591 236.153482 
L 189.663569 254.700524 
L 191.661547 234.238094 
L 193.659525 271.621133 
L 195.657503 311.698024 
L 197.655481 306.779245 
L 199.653459 271.671662 
L 201.651437 288.368695 
L 203.649415 226.089208 
L 205.647394 218.999477 
L 207.645372 216.829231 
L 209.64335 198.93788 
L 211.641328 216.414073 
L 213.639306 251.821893 
L 215.637284 217.068761 
L 217.635262 234.663626 
L 221.631218 216.379794 
L 223.629197 227.222072 
L 225.627175 235.157127 
L 227.625153 224.603125 
L 229.623131 245.156848 
L 233.619087 160.68983 
L 235.617065 136.868997 
L 237.615043 106.379199 
L 239.613021 111.637833 
L 241.611 149.105211 
L 243.608978 193.348094 
L 245.606956 248.106706 
L 247.604934 293.236706 
L 249.602912 330.983577 
L 251.60089 345.090211 
L 253.598868 282.800894 
L 255.596846 243.96912 
L 257.594824 229.284385 
L 259.592803 229.811895 
L 261.590781 273.242803 
L 263.588759 310.501402 
L 265.586737 341.85227 
L 267.584715 344.95239 
L 269.582693 291.281544 
L 271.580671 232.948638 
L 273.578649 261.060485 
L 275.576627 257.378928 
L 277.574606 271.354812 
L 279.572584 269.301931 
L 281.570562 309.674895 
L 283.56854 299.420248 
L 285.566518 303.819951 
L 287.564496 260.809264 
L 289.562474 277.571229 
L 291.560452 228.473065 
L 293.55843 170.724932 
L 295.556408 173.348533 
L 297.554387 216.586721 
L 299.552365 200.589627 
L 301.550343 245.948158 
L 303.548321 258.509716 
L 305.546299 168.779369 
L 307.544277 153.836478 
L 309.542255 164.097536 
L 311.540233 127.451488 
L 313.538211 113.044278 
L 315.53619 202.407709 
L 317.534168 149.46931 
L 319.532146 185.48084 
L 321.530124 193.857007 
L 323.528102 251.665891 
L 325.52608 194.171835 
L 327.524058 202.2368 
L 329.522036 212.109305 
L 331.520014 182.422244 
L 333.517993 172.331734 
L 335.515971 192.690201 
L 337.513949 219.112022 
L 339.511927 196.088884 
L 341.509905 202.671251 
L 343.507883 159.833992 
L 345.505861 159.833992 
L 347.503839 157.388311 
L 349.501817 117.491361 
L 351.499796 119.866711 
L 353.497774 119.866711 
L 355.495752 145.81442 
L 357.49373 160.208495 
L 359.491708 159.386482 
L 361.489686 202.078799 
L 363.487664 226.884746 
L 365.485642 203.15801 
L 367.48362 161.603946 
L 369.481599 200.857448 
L 371.479577 215.445281 
L 373.477555 260.979429 
L 375.475533 243.385474 
L 377.473511 242.271529 
L 379.471489 244.638049 
L 381.469467 206.189571 
L 383.467445 173.523333 
L 385.465423 170.810525 
L 387.463401 171.689924 
L 389.46138 151.912878 
L 391.459358 153.810549 
L 393.457336 119.320543 
L 395.455314 184.939364 
L 397.453292 203.695682 
L 399.45127 202.159468 
L 401.449248 246.82593 
L 403.447226 217.390815 
L 405.445204 212.357809 
L 407.443183 193.836037 
L 409.441161 201.156685 
L 411.439139 163.685697 
L 413.437117 189.936962 
L 415.435095 134.319988 
L 417.433073 124.748782 
L 419.431051 98.671816 
L 421.429029 125.978254 
L 423.427007 125.978254 
L 425.424986 126.871007 
L 427.422964 192.503874 
L 429.420942 196.960921 
L 431.41892 116.092711 
L 433.416898 140.898658 
L 435.414876 152.239865 
L 437.412854 96.178204 
L 439.410832 88.920242 
L 441.40881 101.528116 
L 443.406789 102.770581 
L 445.404767 139.388211 
L 447.402745 137.603221 
L 449.400723 140.638683 
L 451.398701 168.112932 
L 453.396679 159.707828 
L 455.394657 126.309887 
L 457.392635 196.917269 
L 459.390613 210.964626 
L 461.388592 235.734676 
L 463.38657 219.019186 
L 465.384548 195.500571 
L 467.382526 127.605998 
L 469.380504 174.791572 
L 471.378482 126.618635 
L 473.37646 117.618785 
L 475.374438 102.625542 
L 477.372416 151.842349 
L 479.370394 90.206291 
L 481.368373 114.894762 
L 483.366351 147.931901 
L 485.364329 169.375706 
L 487.362307 131.351852 
L 489.360285 156.560925 
L 491.358263 156.560925 
L 493.356241 132.523635 
L 495.354219 167.607669 
L 497.352197 173.574425 
L 499.350176 145.733016 
L 501.348154 151.857398 
L 503.346132 168.572888 
L 505.34411 165.944983 
L 507.342088 210.219304 
L 509.340066 213.02022 
L 511.338044 187.088482 
L 513.336022 167.754568 
L 515.334 195.470382 
L 517.331979 134.036353 
L 519.329957 138.347502 
L 521.327935 204.039526 
L 523.325913 224.485804 
L 525.323891 162.509867 
L 527.321869 178.819909 
L 529.319847 191.044105 
L 531.317825 142.995389 
L 533.315803 144.047074 
L 535.313782 162.803392 
L 537.31176 166.729452 
L 541.307716 130.765809 
L 543.305694 135.648182 
L 545.303672 120.31026 
L 547.30165 98.183363 
L 549.299628 99.021512 
L 551.297606 91.469248 
L 553.295585 65.665573 
L 555.293563 83.087007 
L 557.291541 79.992316 
L 559.289519 80.704611 
L 561.287497 68.617064 
L 563.285475 69.731009 
L 565.283453 119.768242 
L 567.281431 141.897715 
L 569.279409 159.775569 
L 571.277388 179.2468 
L 573.275366 176.211338 
L 575.273344 124.090592 
L 577.271322 124.090592 
L 579.2693 122.748083 
L 581.267278 174.404936 
L 583.265256 177.440398 
L 585.263234 164.324681 
L 587.261212 163.490738 
L 589.25919 147.189939 
L 591.257169 115.74357 
L 593.255147 115.509023 
L 595.253125 113.286818 
L 597.251103 76.1746 
L 599.249081 122.602857 
L 601.247059 108.853024 
L 603.245037 127.609343 
L 605.243015 127.609343 
L 607.240993 163.7845 
L 609.238972 134.594102 
L 611.23695 173.745479 
L 613.234928 172.867015 
L 615.232906 176.229161 
L 617.230884 158.143372 
L 619.228862 158.143372 
L 621.22684 112.934472 
L 623.224818 91.066105 
L 625.222796 83.406163 
L 627.220775 80.310038 
L 629.218753 79.372977 
L 631.216731 104.178923 
L 633.214709 171.616499 
L 635.212687 191.252217 
L 637.210665 229.253699 
L 639.208643 254.842641 
L 641.206621 288.216408 
L 643.204599 244.811248 
L 645.202578 244.361279 
L 647.200556 236.569903 
L 649.198534 237.35966 
L 651.196512 228.924826 
L 655.192468 224.639279 
L 657.190446 200.695582 
L 659.188424 184.078769 
L 661.186402 150.634687 
L 663.184381 176.788635 
L 665.182359 170.416507 
L 667.180337 173.107816 
L 669.178315 171.851079 
L 669.178315 171.851079 
" clip-path="url(#pf28cafd3bf)" style="fill: none; stroke: #4c72b0; stroke-width: 2; stroke-linecap: round"/>
   </g>
   <g id="line2d_14">
    <path d="M 79.774773 245.261493 
L 81.772751 239.983612 
L 83.770729 206.904163 
L 85.768707 270.379851 
L 87.766685 256.234489 
L 89.764663 238.716818 
L 91.762641 213.84736 
L 95.758598 180.495848 
L 97.756576 189.740938 
L 99.754554 234.785516 
L 101.752532 229.900414 
L 103.75051 257.706792 
L 105.748488 260.075248 
L 107.746466 266.89272 
L 109.744444 262.991507 
L 111.742422 227.208162 
L 115.738379 183.476088 
L 117.736357 151.295633 
L 119.734335 125.562119 
L 121.732313 195.914001 
L 125.728269 230.551271 
L 127.726247 270.350992 
L 129.724225 277.698782 
L 131.722204 257.239565 
L 133.720182 270.923307 
L 135.71816 264.765283 
L 137.716138 264.984549 
L 139.714116 303.164088 
L 141.712094 319.665486 
L 143.710072 318.932256 
L 145.70805 341.251273 
L 147.706028 367.745284 
L 149.704007 352.918799 
L 151.701985 340.198998 
L 153.699963 283.444019 
L 155.697941 244.22906 
L 159.693897 151.231724 
L 161.691875 133.03906 
L 163.689853 179.586612 
L 165.687831 177.913075 
L 167.68581 185.840978 
L 169.683788 187.658745 
L 171.681766 242.407016 
L 173.679744 215.555106 
L 175.677722 221.642756 
L 177.6757 196.073065 
L 179.673678 241.858191 
L 181.671656 190.447403 
L 183.669634 183.778138 
L 185.667612 180.21361 
L 187.665591 235.566523 
L 189.663569 222.000302 
L 191.661547 241.94772 
L 193.659525 241.440227 
L 195.657503 292.359792 
L 197.655481 293.814336 
L 199.653459 271.262514 
L 201.651437 252.545619 
L 203.649415 264.727577 
L 205.647394 253.446156 
L 207.645372 216.839943 
L 209.64335 202.213329 
L 211.641328 184.548571 
L 213.639306 186.451536 
L 215.637284 157.037011 
L 217.635262 152.471468 
L 219.63324 158.68084 
L 221.631218 208.694835 
L 223.629197 194.469404 
L 225.627175 187.397953 
L 227.625153 159.494804 
L 229.623131 209.545825 
L 231.621109 212.558168 
L 233.619087 218.044658 
L 235.617065 241.980378 
L 237.615043 290.088438 
L 239.613021 226.557821 
L 241.611 209.172798 
L 243.608978 258.760465 
L 245.606956 258.331945 
L 247.604934 287.255391 
L 249.602912 347.069269 
L 251.60089 310.558446 
L 253.598868 266.1683 
L 255.596846 265.136271 
L 257.594824 213.098566 
L 259.592803 131.259098 
L 261.590781 179.508903 
L 263.588759 200.74656 
L 265.586737 159.712296 
L 267.584715 206.536509 
L 269.582693 298.602347 
L 271.580671 261.501245 
L 273.578649 248.206815 
L 275.576627 303.942343 
L 277.574606 301.946277 
L 279.572584 309.705982 
L 281.570562 316.935422 
L 283.56854 308.256655 
L 285.566518 310.296536 
L 287.564496 250.344296 
L 289.562474 203.729 
L 291.560452 242.240354 
L 293.55843 219.913508 
L 295.556408 196.035028 
L 297.554387 221.244101 
L 299.552365 206.778772 
L 301.550343 161.636584 
L 303.548321 167.83701 
L 305.546299 147.927306 
L 307.544277 181.235178 
L 309.542255 201.602895 
L 311.540233 182.031471 
L 313.538211 168.368705 
L 315.53619 179.144662 
L 317.534168 138.268704 
L 319.532146 122.395679 
L 321.530124 189.759953 
L 323.528102 223.218107 
L 325.52608 196.890851 
L 327.524058 179.418439 
L 329.522036 225.701462 
L 333.517993 174.223069 
L 335.515971 207.438872 
L 337.513949 256.914491 
L 339.511927 228.97575 
L 341.509905 262.830282 
L 343.507883 268.468144 
L 345.505861 245.414513 
L 347.503839 254.093177 
L 349.501817 259.172433 
L 351.499796 183.201654 
L 353.497774 224.727874 
L 355.495752 235.386993 
L 357.49373 202.620563 
L 359.491708 207.075815 
L 361.489686 260.338262 
L 363.487664 213.577955 
L 365.485642 216.638993 
L 367.48362 190.518047 
L 369.481599 167.033645 
L 371.479577 158.813838 
L 373.477555 159.997977 
L 375.475533 208.579874 
L 377.473511 253.758305 
L 379.471489 233.498145 
L 381.469467 193.931217 
L 383.467445 212.286097 
L 385.465423 140.982807 
L 387.463401 116.789388 
L 389.46138 137.08482 
L 391.459358 186.99734 
L 393.457336 166.10077 
L 395.455314 212.761636 
L 397.453292 200.551888 
L 399.45127 236.025542 
L 401.449248 226.142539 
L 403.447226 273.084608 
L 405.445204 285.945866 
L 407.443183 293.686381 
L 409.441161 251.783617 
L 411.439139 226.370949 
L 413.437117 207.116624 
L 415.435095 146.668116 
L 417.433073 189.15294 
L 419.431051 156.3799 
L 421.429029 140.598488 
L 423.427007 131.74238 
L 425.424986 146.827448 
L 427.422964 106.437796 
L 429.420942 146.119516 
L 431.41892 141.079941 
L 433.416898 122.473656 
L 435.414876 155.097216 
L 439.410832 108.19682 
L 441.40881 145.6262 
L 443.406789 166.297419 
L 445.404767 138.297033 
L 447.402745 140.049996 
L 449.400723 163.606622 
L 451.398701 145.440279 
L 453.396679 143.475292 
L 455.394657 143.475292 
L 457.392635 166.616192 
L 459.390613 192.045936 
L 461.388592 196.009247 
L 465.384548 161.537812 
L 467.382526 141.84217 
L 469.380504 144.425864 
L 471.378482 151.979301 
L 473.37646 156.297985 
L 475.374438 150.392014 
L 477.372416 147.300121 
L 479.370394 115.163516 
L 481.368373 122.437198 
L 483.366351 122.437198 
L 485.364329 181.722544 
L 487.362307 228.475659 
L 489.360285 214.71663 
L 491.358263 174.131122 
L 493.356241 192.921953 
L 495.354219 161.791054 
L 497.352197 120.17478 
L 499.350176 119.990558 
L 501.348154 122.058864 
L 503.346132 97.977111 
L 505.34411 96.408822 
L 507.342088 100.038302 
L 509.340066 103.899324 
L 511.338044 129.358029 
L 513.336022 134.679093 
L 515.334 116.253728 
L 517.331979 114.024557 
L 519.329957 121.057965 
L 521.327935 96.622847 
L 523.325913 133.386285 
L 525.323891 130.715699 
L 527.321869 149.637794 
L 529.319847 158.290056 
L 531.317825 194.83302 
L 533.315803 152.748518 
L 535.313782 171.940718 
L 537.31176 210.548438 
L 539.309738 212.953633 
L 541.307716 199.967296 
L 543.305694 241.666638 
L 545.303672 274.231323 
L 547.30165 242.582078 
L 549.299628 217.132814 
L 551.297606 210.608034 
L 553.295585 207.75213 
L 555.293563 174.160778 
L 557.291541 145.003526 
L 559.289519 155.413672 
L 561.287497 139.205276 
L 563.285475 120.955877 
L 565.283453 85.752146 
L 567.281431 108.536489 
L 569.279409 101.42443 
L 571.277388 150.809735 
L 573.275366 151.981306 
L 575.273344 219.335955 
L 577.271322 241.46887 
L 579.2693 243.390381 
L 581.267278 214.363543 
L 583.265256 214.768991 
L 585.263234 196.964653 
L 587.261212 155.796957 
L 589.25919 157.356013 
L 591.257169 140.092231 
L 593.255147 118.39126 
L 595.253125 147.062812 
L 597.251103 166.097593 
L 599.249081 164.689506 
L 601.247059 169.729086 
L 603.245037 192.308521 
L 605.243015 168.820703 
L 607.240993 154.825502 
L 609.238972 154.674534 
L 611.23695 168.669735 
L 613.234928 169.955325 
L 615.232906 154.420111 
L 617.230884 166.644312 
L 619.228862 185.487427 
L 621.22684 163.865453 
L 623.224818 155.880902 
L 625.222796 130.293455 
L 627.220775 142.219129 
L 629.218753 115.954303 
L 631.216731 127.083322 
L 633.214709 135.198086 
L 635.212687 154.220937 
L 637.210665 140.038243 
L 639.208643 172.693165 
L 641.206621 159.522377 
L 643.204599 118.706731 
L 645.202578 126.274817 
L 647.200556 126.274817 
L 649.198534 96.714587 
L 651.196512 114.129336 
L 653.19449 163.070816 
L 655.192468 158.072226 
L 657.190446 139.550454 
L 659.188424 140.110305 
L 663.184381 66.512626 
L 665.182359 90.95647 
L 667.180337 95.033067 
L 669.178315 115.24355 
L 669.178315 115.24355 
" clip-path="url(#pf28cafd3bf)" style="fill: none; stroke: #dd8452; stroke-width: 2; stroke-linecap: round"/>
   </g>
   <g id="line2d_15">
    <path d="M 79.774773 186.118834 
L 81.772751 177.264484 
L 83.770729 152.650838 
L 85.768707 105.660506 
L 87.766685 116.231534 
L 89.764663 139.350951 
L 91.762641 158.446623 
L 93.760619 155.938649 
L 95.758598 162.085984 
L 97.756576 129.013679 
L 99.754554 103.665972 
L 101.752532 133.176778 
L 103.75051 110.257852 
L 105.748488 111.806565 
L 107.746466 141.643177 
L 109.744444 155.29793 
L 111.742422 129.148644 
L 113.740401 151.866878 
L 115.738379 146.306064 
L 117.736357 160.901946 
L 119.734335 195.766556 
L 121.732313 201.940226 
L 125.728269 250.759182 
L 127.726247 230.091764 
L 129.724225 250.07065 
L 131.722204 230.294137 
L 133.720182 219.5126 
L 135.71816 196.219564 
L 137.716138 192.181737 
L 139.714116 136.435958 
L 141.712094 146.306913 
L 143.710072 114.753184 
L 145.70805 115.707454 
L 147.706028 175.889113 
L 149.704007 222.856922 
L 151.701985 225.910225 
L 153.699963 220.955083 
L 155.697941 214.917243 
L 157.695919 156.713584 
L 159.693897 125.633177 
L 161.691875 112.596059 
L 163.689853 150.265223 
L 165.687831 155.789831 
L 167.68581 180.727289 
L 169.683788 162.666391 
L 171.681766 172.225874 
L 173.679744 204.8845 
L 175.677722 214.070404 
L 177.6757 175.488254 
L 179.673678 183.189362 
L 181.671656 200.538374 
L 183.669634 154.932234 
L 185.667612 125.281909 
L 187.665591 173.92461 
L 189.663569 156.966024 
L 191.661547 123.613404 
L 193.659525 77.333441 
L 195.657503 83.414294 
L 197.655481 43.850966 
L 199.653459 78.009357 
L 201.651437 82.416011 
L 203.649415 154.505545 
L 205.647394 158.606179 
L 207.645372 187.521701 
L 209.64335 224.230106 
L 211.641328 222.379924 
L 213.639306 191.84869 
L 215.637284 226.252903 
L 217.635262 192.734421 
L 219.63324 146.250809 
L 221.631218 153.870659 
L 223.629197 133.575875 
L 225.627175 137.183939 
L 227.625153 146.302942 
L 229.623131 137.830836 
L 231.621109 166.378245 
L 233.619087 226.341174 
L 235.617065 167.338087 
L 237.615043 184.149293 
L 239.613021 210.635557 
L 241.611 191.904291 
L 243.608978 128.933021 
L 245.606956 142.117412 
L 247.604934 118.74521 
L 249.602912 125.344757 
L 251.60089 163.418033 
L 253.598868 196.151717 
L 255.596846 220.782845 
L 257.594824 236.075184 
L 259.592803 177.582289 
L 261.590781 154.102941 
L 263.588759 193.526095 
L 265.586737 164.741636 
L 267.584715 176.947179 
L 269.582693 233.560556 
L 271.580671 238.952686 
L 273.578649 207.856219 
L 275.576627 261.967078 
L 277.574606 280.966006 
L 279.572584 272.635255 
L 281.570562 227.21808 
L 283.56854 240.462383 
L 285.566518 232.868664 
L 287.564496 183.837614 
L 289.562474 153.235882 
L 291.560452 191.217071 
L 293.55843 189.793769 
L 295.556408 174.93586 
L 297.554387 199.616021 
L 299.552365 236.259839 
L 301.550343 220.296238 
L 303.548321 186.394226 
L 305.546299 208.929823 
L 307.544277 186.924882 
L 309.542255 171.974257 
L 311.540233 211.878908 
L 313.538211 228.349949 
L 315.53619 178.600253 
L 317.534168 211.449432 
L 319.532146 212.962098 
L 321.530124 179.778857 
L 323.528102 170.588987 
L 325.52608 196.891824 
L 327.524058 196.848795 
L 329.522036 197.744702 
L 331.520014 176.777626 
L 333.517993 200.191971 
L 335.515971 211.035126 
L 337.513949 233.86389 
L 339.511927 238.02413 
L 341.509905 254.123009 
L 343.507883 228.537665 
L 345.505861 182.798571 
L 347.503839 128.565299 
L 349.501817 118.497389 
L 351.499796 121.771141 
L 353.497774 108.049757 
L 355.495752 173.632092 
L 357.49373 170.292538 
L 359.491708 157.58615 
L 361.489686 160.871026 
L 363.487664 151.513834 
L 365.485642 87.96799 
L 367.48362 84.898153 
L 369.481599 70.21145 
L 371.479577 63.68212 
L 375.475533 145.32729 
L 377.473511 161.95661 
L 379.471489 158.593561 
L 381.469467 187.074778 
L 383.467445 151.160663 
L 385.465423 118.384618 
L 387.463401 127.610429 
L 389.46138 153.316779 
L 391.459358 113.042517 
L 393.457336 139.60971 
L 395.455314 183.56132 
L 397.453292 174.710788 
L 399.45127 177.126518 
L 401.449248 204.271772 
L 403.447226 189.001553 
L 405.445204 178.618755 
L 407.443183 150.255905 
L 409.441161 139.907345 
L 411.439139 94.976305 
L 413.437117 127.330588 
L 415.435095 115.217831 
L 417.433073 106.140084 
L 419.431051 117.476332 
L 421.429029 141.491879 
L 423.427007 101.761893 
L 425.424986 75.649665 
L 427.422964 108.284357 
L 429.420942 117.613572 
L 431.41892 116.694341 
L 433.416898 116.697165 
L 435.414876 113.837918 
L 437.412854 93.893367 
L 439.410832 83.103733 
L 441.40881 116.517204 
L 443.406789 114.509943 
L 445.404767 155.873221 
L 447.402745 168.067461 
L 449.400723 150.456775 
L 451.398701 147.573011 
L 453.396679 193.154572 
L 455.394657 180.090481 
L 457.392635 221.987293 
L 459.390613 249.567373 
L 461.388592 240.720515 
L 463.38657 221.892052 
L 465.384548 185.663502 
L 467.382526 144.442608 
L 469.380504 136.556651 
L 471.378482 112.474665 
L 473.37646 74.054976 
L 475.374438 116.651837 
L 477.372416 126.398781 
L 479.370394 130.722684 
L 481.368373 113.29852 
L 483.366351 168.716757 
L 485.364329 160.474488 
L 487.362307 163.247162 
L 489.360285 173.573931 
L 491.358263 203.658969 
L 493.356241 171.319648 
L 495.354219 160.982302 
L 497.352197 201.71466 
L 499.350176 188.030613 
L 501.348154 175.152952 
L 503.346132 182.752137 
L 505.34411 144.901219 
L 507.342088 112.326394 
L 509.340066 110.139673 
L 511.338044 120.323359 
L 513.336022 114.007444 
L 515.334 146.142061 
L 517.331979 149.642496 
L 519.329957 181.857025 
L 521.327935 168.736472 
L 523.325913 166.500615 
L 525.323891 205.097972 
L 527.321869 184.225104 
L 529.319847 137.103549 
L 531.317825 157.045791 
L 533.315803 192.863173 
L 535.313782 168.60173 
L 537.31176 203.258643 
L 539.309738 200.550067 
L 541.307716 172.948626 
L 543.305694 173.245656 
L 545.303672 182.606527 
L 547.30165 169.124291 
L 549.299628 232.176935 
L 551.297606 275.147847 
L 553.295585 221.148413 
L 555.293563 170.72964 
L 557.291541 171.104573 
L 559.289519 99.305082 
L 561.287497 67.147023 
L 563.285475 87.267901 
L 565.283453 125.409037 
L 567.281431 123.430432 
L 569.279409 146.86909 
L 571.277388 165.113424 
L 573.275366 164.471051 
L 575.273344 211.336393 
L 577.271322 181.808509 
L 579.2693 185.690663 
L 581.267278 200.212275 
L 583.265256 207.373517 
L 585.263234 164.191543 
L 587.261212 154.430454 
L 589.25919 198.172759 
L 591.257169 189.304641 
L 593.255147 176.302401 
L 595.253125 206.961931 
L 597.251103 199.350624 
L 599.249081 137.739821 
L 601.247059 89.995855 
L 603.245037 89.870622 
L 605.243015 61.021893 
L 607.240993 89.476477 
L 611.23695 150.150711 
L 613.234928 148.367372 
L 615.232906 157.989455 
L 617.230884 170.813366 
L 619.228862 132.281156 
L 621.22684 138.950543 
L 623.224818 153.777037 
L 625.222796 129.894342 
L 627.220775 136.552228 
L 631.216731 196.853109 
L 633.214709 172.051931 
L 635.212687 151.292933 
L 637.210665 123.363093 
L 639.208643 113.618947 
L 641.206621 100.381423 
L 643.204599 118.081139 
L 645.202578 131.322827 
L 647.200556 146.406609 
L 649.198534 184.20849 
L 651.196512 158.169825 
L 653.19449 140.863699 
L 655.192468 184.961608 
L 657.190446 192.964175 
L 659.188424 167.316769 
L 661.186402 168.521939 
L 663.184381 206.934603 
L 665.182359 213.675577 
L 667.180337 196.8406 
L 669.178315 211.529103 
L 669.178315 211.529103 
" clip-path="url(#pf28cafd3bf)" style="fill: none; stroke: #55a868; stroke-width: 2; stroke-linecap: round"/>
   </g>
   <g id="patch_3">
    <path d="M 49.905 383.94 
L 49.905 27.65625 
" style="fill: none; stroke: #cccccc; stroke-width: 1.25; stroke-linejoin: miter; stroke-linecap: square"/>
   </g>
   <g id="patch_4">
    <path d="M 707.04 383.94 
L 707.04 27.65625 
" style="fill: none; stroke: #cccccc; stroke-width: 1.25; stroke-linejoin: miter; stroke-linecap: square"/>
   </g>
   <g id="patch_5">
    <path d="M 49.905 383.94 
L 707.04 383.94 
" style="fill: none; stroke: #cccccc; stroke-width: 1.25; stroke-linejoin: miter; stroke-linecap: square"/>
   </g>
   <g id="patch_6">
    <path d="M 49.905 27.65625 
L 707.04 27.65625 
" style="fill: none; stroke: #cccccc; stroke-width: 1.25; stroke-linejoin: miter; stroke-linecap: square"/>
   </g>
   <g id="text_15">
    <!-- Agent Performance (Smoothed Reward) -->
    <g style="fill: #262626" transform="translate(271.42875 21.65625) scale(0.12 -0.12)">
     <defs>
      <path id="ArialMT-41" d="M -9 0 
L 1750 4581 
L 2403 4581 
L 4278 0 
L 3588 0 
L 3053 1388 
L 1138 1388 
L 634 0 
L -9 0 
z
M 1313 1881 
L 2866 1881 
L 2388 3150 
Q 2169 3728 2063 4100 
Q 1975 3659 1816 3225 
L 1313 1881 
z
" transform="scale(0.015625)"/>
      <path id="ArialMT-67" d="M 319 -275 
L 866 -356 
Q 900 -609 1056 -725 
Q 1266 -881 1628 -881 
Q 2019 -881 2231 -725 
Q 2444 -569 2519 -288 
Q 2563 -116 2559 434 
Q 2191 0 1641 0 
Q 956 0 581 494 
Q 206 988 206 1678 
Q 206 2153 378 2554 
Q 550 2956 876 3175 
Q 1203 3394 1644 3394 
Q 2231 3394 2613 2919 
L 2613 3319 
L 3131 3319 
L 3131 450 
Q 3131 -325 2973 -648 
Q 2816 -972 2473 -1159 
Q 2131 -1347 1631 -1347 
Q 1038 -1347 672 -1080 
Q 306 -813 319 -275 
z
M 784 1719 
Q 784 1066 1043 766 
Q 1303 466 1694 466 
Q 2081 466 2343 764 
Q 2606 1063 2606 1700 
Q 2606 2309 2336 2618 
Q 2066 2928 1684 2928 
Q 1309 2928 1046 2623 
Q 784 2319 784 1719 
z
" transform="scale(0.015625)"/>
      <path id="ArialMT-6e" d="M 422 0 
L 422 3319 
L 928 3319 
L 928 2847 
Q 1294 3394 1984 3394 
Q 2284 3394 2536 3286 
Q 2788 3178 2913 3003 
Q 3038 2828 3088 2588 
Q 3119 2431 3119 2041 
L 3119 0 
L 2556 0 
L 2556 2019 
Q 2556 2363 2490 2533 
Q 2425 2703 2258 2804 
Q 2091 2906 1866 2906 
Q 1506 2906 1245 2678 
Q 984 2450 984 1813 
L 984 0 
L 422 0 
z
" transform="scale(0.015625)"/>
      <path id="ArialMT-50" d="M 494 0 
L 494 4581 
L 2222 4581 
Q 2678 4581 2919 4538 
Q 3256 4481 3484 4323 
Q 3713 4166 3852 3881 
Q 3991 3597 3991 3256 
Q 3991 2672 3619 2267 
Q 3247 1863 2275 1863 
L 1100 1863 
L 1100 0 
L 494 0 
z
M 1100 2403 
L 2284 2403 
Q 2872 2403 3119 2622 
Q 3366 2841 3366 3238 
Q 3366 3525 3220 3729 
Q 3075 3934 2838 4000 
Q 2684 4041 2272 4041 
L 1100 4041 
L 1100 2403 
z
" transform="scale(0.015625)"/>
      <path id="ArialMT-66" d="M 556 0 
L 556 2881 
L 59 2881 
L 59 3319 
L 556 3319 
L 556 3672 
Q 556 4006 616 4169 
Q 697 4388 901 4523 
Q 1106 4659 1475 4659 
Q 1713 4659 2000 4603 
L 1916 4113 
Q 1741 4144 1584 4144 
Q 1328 4144 1222 4034 
Q 1116 3925 1116 3625 
L 1116 3319 
L 1763 3319 
L 1763 2881 
L 1116 2881 
L 1116 0 
L 556 0 
z
" transform="scale(0.015625)"/>
      <path id="ArialMT-6d" d="M 422 0 
L 422 3319 
L 925 3319 
L 925 2853 
Q 1081 3097 1340 3245 
Q 1600 3394 1931 3394 
Q 2300 3394 2536 3241 
Q 2772 3088 2869 2813 
Q 3263 3394 3894 3394 
Q 4388 3394 4653 3120 
Q 4919 2847 4919 2278 
L 4919 0 
L 4359 0 
L 4359 2091 
Q 4359 2428 4304 2576 
Q 4250 2725 4106 2815 
Q 3963 2906 3769 2906 
Q 3419 2906 3187 2673 
Q 2956 2441 2956 1928 
L 2956 0 
L 2394 0 
L 2394 2156 
Q 2394 2531 2256 2718 
Q 2119 2906 1806 2906 
Q 1569 2906 1367 2781 
Q 1166 2656 1075 2415 
Q 984 2175 984 1722 
L 984 0 
L 422 0 
z
" transform="scale(0.015625)"/>
      <path id="ArialMT-63" d="M 2588 1216 
L 3141 1144 
Q 3050 572 2676 248 
Q 2303 -75 1759 -75 
Q 1078 -75 664 370 
Q 250 816 250 1647 
Q 250 2184 428 2587 
Q 606 2991 970 3192 
Q 1334 3394 1763 3394 
Q 2303 3394 2647 3120 
Q 2991 2847 3088 2344 
L 2541 2259 
Q 2463 2594 2264 2762 
Q 2066 2931 1784 2931 
Q 1359 2931 1093 2626 
Q 828 2322 828 1663 
Q 828 994 1084 691 
Q 1341 388 1753 388 
Q 2084 388 2306 591 
Q 2528 794 2588 1216 
z
" transform="scale(0.015625)"/>
      <path id="ArialMT-28" d="M 1497 -1347 
Q 1031 -759 709 28 
Q 388 816 388 1659 
Q 388 2403 628 3084 
Q 909 3875 1497 4659 
L 1900 4659 
Q 1522 4009 1400 3731 
Q 1209 3300 1100 2831 
Q 966 2247 966 1656 
Q 966 153 1900 -1347 
L 1497 -1347 
z
" transform="scale(0.015625)"/>
      <path id="ArialMT-53" d="M 288 1472 
L 859 1522 
Q 900 1178 1048 958 
Q 1197 738 1509 602 
Q 1822 466 2213 466 
Q 2559 466 2825 569 
Q 3091 672 3220 851 
Q 3350 1031 3350 1244 
Q 3350 1459 3225 1620 
Q 3100 1781 2813 1891 
Q 2628 1963 1997 2114 
Q 1366 2266 1113 2400 
Q 784 2572 623 2826 
Q 463 3081 463 3397 
Q 463 3744 659 4045 
Q 856 4347 1234 4503 
Q 1613 4659 2075 4659 
Q 2584 4659 2973 4495 
Q 3363 4331 3572 4012 
Q 3781 3694 3797 3291 
L 3216 3247 
Q 3169 3681 2898 3903 
Q 2628 4125 2100 4125 
Q 1550 4125 1298 3923 
Q 1047 3722 1047 3438 
Q 1047 3191 1225 3031 
Q 1400 2872 2139 2705 
Q 2878 2538 3153 2413 
Q 3553 2228 3743 1945 
Q 3934 1663 3934 1294 
Q 3934 928 3725 604 
Q 3516 281 3123 101 
Q 2731 -78 2241 -78 
Q 1619 -78 1198 103 
Q 778 284 539 648 
Q 300 1013 288 1472 
z
" transform="scale(0.015625)"/>
      <path id="ArialMT-68" d="M 422 0 
L 422 4581 
L 984 4581 
L 984 2938 
Q 1378 3394 1978 3394 
Q 2347 3394 2619 3248 
Q 2891 3103 3008 2847 
Q 3125 2591 3125 2103 
L 3125 0 
L 2563 0 
L 2563 2103 
Q 2563 2525 2380 2717 
Q 2197 2909 1863 2909 
Q 1613 2909 1392 2779 
Q 1172 2650 1078 2428 
Q 984 2206 984 1816 
L 984 0 
L 422 0 
z
" transform="scale(0.015625)"/>
      <path id="ArialMT-29" d="M 791 -1347 
L 388 -1347 
Q 1322 153 1322 1656 
Q 1322 2244 1188 2822 
Q 1081 3291 891 3722 
Q 769 4003 388 4659 
L 791 4659 
Q 1378 3875 1659 3084 
Q 1900 2403 1900 1659 
Q 1900 816 1576 28 
Q 1253 -759 791 -1347 
z
" transform="scale(0.015625)"/>
     </defs>
     <use xlink:href="#ArialMT-41"/>
     <use xlink:href="#ArialMT-67" x="66.699219"/>
     <use xlink:href="#ArialMT-65" x="122.314453"/>
     <use xlink:href="#ArialMT-6e" x="177.929688"/>
     <use xlink:href="#ArialMT-74" x="233.544922"/>
     <use xlink:href="#ArialMT-20" x="261.328125"/>
     <use xlink:href="#ArialMT-50" x="289.111328"/>
     <use xlink:href="#ArialMT-65" x="355.810547"/>
     <use xlink:href="#ArialMT-72" x="411.425781"/>
     <use xlink:href="#ArialMT-66" x="444.726562"/>
     <use xlink:href="#ArialMT-6f" x="472.509766"/>
     <use xlink:href="#ArialMT-72" x="528.125"/>
     <use xlink:href="#ArialMT-6d" x="561.425781"/>
     <use xlink:href="#ArialMT-61" x="644.726562"/>
     <use xlink:href="#ArialMT-6e" x="700.341797"/>
     <use xlink:href="#ArialMT-63" x="755.957031"/>
     <use xlink:href="#ArialMT-65" x="805.957031"/>
     <use xlink:href="#ArialMT-20" x="861.572266"/>
     <use xlink:href="#ArialMT-28" x="889.355469"/>
     <use xlink:href="#ArialMT-53" x="922.65625"/>
     <use xlink:href="#ArialMT-6d" x="989.355469"/>
     <use xlink:href="#ArialMT-6f" x="1072.65625"/>
     <use xlink:href="#ArialMT-6f" x="1128.271484"/>
     <use xlink:href="#ArialMT-74" x="1183.886719"/>
     <use xlink:href="#ArialMT-68" x="1211.669922"/>
     <use xlink:href="#ArialMT-65" x="1267.285156"/>
     <use xlink:href="#ArialMT-64" x="1322.900391"/>
     <use xlink:href="#ArialMT-20" x="1378.515625"/>
     <use xlink:href="#ArialMT-52" x="1406.298828"/>
     <use xlink:href="#ArialMT-65" x="1478.515625"/>
     <use xlink:href="#ArialMT-77" x="1534.130859"/>
     <use xlink:href="#ArialMT-61" x="1606.347656"/>
     <use xlink:href="#ArialMT-72" x="1661.962891"/>
     <use xlink:href="#ArialMT-64" x="1695.263672"/>
     <use xlink:href="#ArialMT-29" x="1750.878906"/>
    </g>
   </g>
   <g id="legend_1">
    <g id="patch_7">
     <path d="M 582.801875 378.44 
L 699.34 378.44 
Q 701.54 378.44 701.54 376.24 
L 701.54 282.789844 
Q 701.54 280.589844 699.34 280.589844 
L 582.801875 280.589844 
Q 580.601875 280.589844 580.601875 282.789844 
L 580.601875 376.24 
Q 580.601875 378.44 582.801875 378.44 
z
" style="fill: #ffffff; opacity: 0.8; stroke: #cccccc; stroke-linejoin: miter"/>
    </g>
    <g id="line2d_16">
     <path d="M 585.001875 289.1475 
L 596.001875 289.1475 
L 607.001875 289.1475 
" style="fill: none; stroke: #4c72b0; stroke-width: 2; stroke-linecap: round"/>
    </g>
    <g id="text_16">
     <!-- ddqn (avg) -->
     <g style="fill: #262626" transform="translate(615.801875 292.9975) scale(0.11 -0.11)">
      <defs>
       <path id="ArialMT-71" d="M 2538 -1272 
L 2538 353 
Q 2406 169 2170 47 
Q 1934 -75 1669 -75 
Q 1078 -75 651 397 
Q 225 869 225 1691 
Q 225 2191 398 2587 
Q 572 2984 901 3189 
Q 1231 3394 1625 3394 
Q 2241 3394 2594 2875 
L 2594 3319 
L 3100 3319 
L 3100 -1272 
L 2538 -1272 
z
M 803 1669 
Q 803 1028 1072 708 
Q 1341 388 1716 388 
Q 2075 388 2334 692 
Q 2594 997 2594 1619 
Q 2594 2281 2320 2615 
Q 2047 2950 1678 2950 
Q 1313 2950 1058 2639 
Q 803 2328 803 1669 
z
" transform="scale(0.015625)"/>
       <path id="ArialMT-76" d="M 1344 0 
L 81 3319 
L 675 3319 
L 1388 1331 
Q 1503 1009 1600 663 
Q 1675 925 1809 1294 
L 2547 3319 
L 3125 3319 
L 1869 0 
L 1344 0 
z
" transform="scale(0.015625)"/>
      </defs>
      <use xlink:href="#ArialMT-64"/>
      <use xlink:href="#ArialMT-64" x="55.615234"/>
      <use xlink:href="#ArialMT-71" x="111.230469"/>
      <use xlink:href="#ArialMT-6e" x="166.845703"/>
      <use xlink:href="#ArialMT-20" x="222.460938"/>
      <use xlink:href="#ArialMT-28" x="250.244141"/>
      <use xlink:href="#ArialMT-61" x="283.544922"/>
      <use xlink:href="#ArialMT-76" x="339.160156"/>
      <use xlink:href="#ArialMT-67" x="389.160156"/>
      <use xlink:href="#ArialMT-29" x="444.775391"/>
     </g>
    </g>
    <g id="PathCollection_4">
     <g>
      <use xlink:href="#m7069f755fe" x="596.001875" y="305.932813" style="fill: #4c72b0; stroke: #4c72b0"/>
     </g>
    </g>
    <g id="text_17">
     <!-- ddqn final: 19.69 -->
     <g style="fill: #262626" transform="translate(615.801875 308.820312) scale(0.11 -0.11)">
      <defs>
       <path id="ArialMT-3a" d="M 578 2678 
L 578 3319 
L 1219 3319 
L 1219 2678 
L 578 2678 
z
M 578 0 
L 578 641 
L 1219 641 
L 1219 0 
L 578 0 
z
" transform="scale(0.015625)"/>
       <path id="ArialMT-39" d="M 350 1059 
L 891 1109 
Q 959 728 1153 556 
Q 1347 384 1650 384 
Q 1909 384 2104 503 
Q 2300 622 2425 820 
Q 2550 1019 2634 1356 
Q 2719 1694 2719 2044 
Q 2719 2081 2716 2156 
Q 2547 1888 2255 1720 
Q 1963 1553 1622 1553 
Q 1053 1553 659 1965 
Q 266 2378 266 3053 
Q 266 3750 677 4175 
Q 1088 4600 1706 4600 
Q 2153 4600 2523 4359 
Q 2894 4119 3086 3673 
Q 3278 3228 3278 2384 
Q 3278 1506 3087 986 
Q 2897 466 2520 194 
Q 2144 -78 1638 -78 
Q 1100 -78 759 220 
Q 419 519 350 1059 
z
M 2653 3081 
Q 2653 3566 2395 3850 
Q 2138 4134 1775 4134 
Q 1400 4134 1122 3828 
Q 844 3522 844 3034 
Q 844 2597 1108 2323 
Q 1372 2050 1759 2050 
Q 2150 2050 2401 2323 
Q 2653 2597 2653 3081 
z
" transform="scale(0.015625)"/>
       <path id="ArialMT-2e" d="M 581 0 
L 581 641 
L 1222 641 
L 1222 0 
L 581 0 
z
" transform="scale(0.015625)"/>
       <path id="ArialMT-36" d="M 3184 3459 
L 2625 3416 
Q 2550 3747 2413 3897 
Q 2184 4138 1850 4138 
Q 1581 4138 1378 3988 
Q 1113 3794 959 3422 
Q 806 3050 800 2363 
Q 1003 2672 1297 2822 
Q 1591 2972 1913 2972 
Q 2475 2972 2870 2558 
Q 3266 2144 3266 1488 
Q 3266 1056 3080 686 
Q 2894 316 2569 119 
Q 2244 -78 1831 -78 
Q 1128 -78 684 439 
Q 241 956 241 2144 
Q 241 3472 731 4075 
Q 1159 4600 1884 4600 
Q 2425 4600 2770 4297 
Q 3116 3994 3184 3459 
z
M 888 1484 
Q 888 1194 1011 928 
Q 1134 663 1356 523 
Q 1578 384 1822 384 
Q 2178 384 2434 671 
Q 2691 959 2691 1453 
Q 2691 1928 2437 2201 
Q 2184 2475 1800 2475 
Q 1419 2475 1153 2201 
Q 888 1928 888 1484 
z
" transform="scale(0.015625)"/>
      </defs>
      <use xlink:href="#ArialMT-64"/>
      <use xlink:href="#ArialMT-64" x="55.615234"/>
      <use xlink:href="#ArialMT-71" x="111.230469"/>
      <use xlink:href="#ArialMT-6e" x="166.845703"/>
      <use xlink:href="#ArialMT-20" x="222.460938"/>
      <use xlink:href="#ArialMT-66" x="250.244141"/>
      <use xlink:href="#ArialMT-69" x="278.027344"/>
      <use xlink:href="#ArialMT-6e" x="300.244141"/>
      <use xlink:href="#ArialMT-61" x="355.859375"/>
      <use xlink:href="#ArialMT-6c" x="411.474609"/>
      <use xlink:href="#ArialMT-3a" x="433.691406"/>
      <use xlink:href="#ArialMT-20" x="461.474609"/>
      <use xlink:href="#ArialMT-31" x="489.257812"/>
      <use xlink:href="#ArialMT-39" x="544.873047"/>
      <use xlink:href="#ArialMT-2e" x="600.488281"/>
      <use xlink:href="#ArialMT-36" x="628.271484"/>
      <use xlink:href="#ArialMT-39" x="683.886719"/>
     </g>
    </g>
    <g id="line2d_17">
     <path d="M 585.001875 320.664219 
L 596.001875 320.664219 
L 607.001875 320.664219 
" style="fill: none; stroke: #dd8452; stroke-width: 2; stroke-linecap: round"/>
    </g>
    <g id="text_18">
     <!-- dqn (avg) -->
     <g style="fill: #262626" transform="translate(615.801875 324.514219) scale(0.11 -0.11)">
      <use xlink:href="#ArialMT-64"/>
      <use xlink:href="#ArialMT-71" x="55.615234"/>
      <use xlink:href="#ArialMT-6e" x="111.230469"/>
      <use xlink:href="#ArialMT-20" x="166.845703"/>
      <use xlink:href="#ArialMT-28" x="194.628906"/>
      <use xlink:href="#ArialMT-61" x="227.929688"/>
      <use xlink:href="#ArialMT-76" x="283.544922"/>
      <use xlink:href="#ArialMT-67" x="333.544922"/>
      <use xlink:href="#ArialMT-29" x="389.160156"/>
     </g>
    </g>
    <g id="PathCollection_5">
     <g>
      <use xlink:href="#m85f67d54ca" x="596.001875" y="337.449531" style="fill: #dd8452; stroke: #dd8452"/>
     </g>
    </g>
    <g id="text_19">
     <!-- dqn final: 21.59 -->
     <g style="fill: #262626" transform="translate(615.801875 340.337031) scale(0.11 -0.11)">
      <use xlink:href="#ArialMT-64"/>
      <use xlink:href="#ArialMT-71" x="55.615234"/>
      <use xlink:href="#ArialMT-6e" x="111.230469"/>
      <use xlink:href="#ArialMT-20" x="166.845703"/>
      <use xlink:href="#ArialMT-66" x="194.628906"/>
      <use xlink:href="#ArialMT-69" x="222.412109"/>
      <use xlink:href="#ArialMT-6e" x="244.628906"/>
      <use xlink:href="#ArialMT-61" x="300.244141"/>
      <use xlink:href="#ArialMT-6c" x="355.859375"/>
      <use xlink:href="#ArialMT-3a" x="378.076172"/>
      <use xlink:href="#ArialMT-20" x="405.859375"/>
      <use xlink:href="#ArialMT-32" x="433.642578"/>
      <use xlink:href="#ArialMT-31" x="489.257812"/>
      <use xlink:href="#ArialMT-2e" x="544.873047"/>
      <use xlink:href="#ArialMT-35" x="572.65625"/>
      <use xlink:href="#ArialMT-39" x="628.271484"/>
     </g>
    </g>
    <g id="line2d_18">
     <path d="M 585.001875 352.180937 
L 596.001875 352.180937 
L 607.001875 352.180937 
" style="fill: none; stroke: #55a868; stroke-width: 2; stroke-linecap: round"/>
    </g>
    <g id="text_20">
     <!-- ppo (avg) -->
     <g style="fill: #262626" transform="translate(615.801875 356.030937) scale(0.11 -0.11)">
      <use xlink:href="#ArialMT-70"/>
      <use xlink:href="#ArialMT-70" x="55.615234"/>
      <use xlink:href="#ArialMT-6f" x="111.230469"/>
      <use xlink:href="#ArialMT-20" x="166.845703"/>
      <use xlink:href="#ArialMT-28" x="194.628906"/>
      <use xlink:href="#ArialMT-61" x="227.929688"/>
      <use xlink:href="#ArialMT-76" x="283.544922"/>
      <use xlink:href="#ArialMT-67" x="333.544922"/>
      <use xlink:href="#ArialMT-29" x="389.160156"/>
     </g>
    </g>
    <g id="PathCollection_6">
     <g>
      <use xlink:href="#m0c9e94e786" x="596.001875" y="368.96625" style="fill: #55a868; stroke: #55a868"/>
     </g>
    </g>
    <g id="text_21">
     <!-- ppo final: 14.79 -->
     <g style="fill: #262626" transform="translate(615.801875 371.85375) scale(0.11 -0.11)">
      <defs>
       <path id="ArialMT-34" d="M 2069 0 
L 2069 1097 
L 81 1097 
L 81 1613 
L 2172 4581 
L 2631 4581 
L 2631 1613 
L 3250 1613 
L 3250 1097 
L 2631 1097 
L 2631 0 
L 2069 0 
z
M 2069 1613 
L 2069 3678 
L 634 1613 
L 2069 1613 
z
" transform="scale(0.015625)"/>
       <path id="ArialMT-37" d="M 303 3981 
L 303 4522 
L 3269 4522 
L 3269 4084 
Q 2831 3619 2401 2847 
Q 1972 2075 1738 1259 
Q 1569 684 1522 0 
L 944 0 
Q 953 541 1156 1306 
Q 1359 2072 1739 2783 
Q 2119 3494 2547 3981 
L 303 3981 
z
" transform="scale(0.015625)"/>
      </defs>
      <use xlink:href="#ArialMT-70"/>
      <use xlink:href="#ArialMT-70" x="55.615234"/>
      <use xlink:href="#ArialMT-6f" x="111.230469"/>
      <use xlink:href="#ArialMT-20" x="166.845703"/>
      <use xlink:href="#ArialMT-66" x="194.628906"/>
      <use xlink:href="#ArialMT-69" x="222.412109"/>
      <use xlink:href="#ArialMT-6e" x="244.628906"/>
      <use xlink:href="#ArialMT-61" x="300.244141"/>
      <use xlink:href="#ArialMT-6c" x="355.859375"/>
      <use xlink:href="#ArialMT-3a" x="378.076172"/>
      <use xlink:href="#ArialMT-20" x="405.859375"/>
      <use xlink:href="#ArialMT-31" x="433.642578"/>
      <use xlink:href="#ArialMT-34" x="489.257812"/>
      <use xlink:href="#ArialMT-2e" x="544.873047"/>
      <use xlink:href="#ArialMT-37" x="572.65625"/>
      <use xlink:href="#ArialMT-39" x="628.271484"/>
     </g>
    </g>
   </g>
  </g>
 </g>
 <defs>
  <clipPath id="pf28cafd3bf">
   <rect x="49.905" y="27.65625" width="657.135" height="356.28375"/>
  </clipPath>
 </defs>
</svg>
