<?xml version="1.0" encoding="utf-8" standalone="no"?>
<!DOCTYPE svg PUBLIC "-//W3C//DTD SVG 1.1//EN"
  "http://www.w3.org/Graphics/SVG/1.1/DTD/svg11.dtd">
<svg xmlns:xlink="http://www.w3.org/1999/xlink" width="720pt" height="432pt" viewBox="0 0 720 432" xmlns="http://www.w3.org/2000/svg" version="1.1">
 <metadata>
  <rdf:RDF xmlns:dc="http://purl.org/dc/elements/1.1/" xmlns:cc="http://creativecommons.org/ns#" xmlns:rdf="http://www.w3.org/1999/02/22-rdf-syntax-ns#">
   <cc:Work>
    <dc:type rdf:resource="http://purl.org/dc/dcmitype/StillImage"/>
    <dc:date>2025-06-22T15:56:51.081852</dc:date>
    <dc:format>image/svg+xml</dc:format>
    <dc:creator>
     <cc:Agent>
      <dc:title>Matplotlib v3.9.2, https://matplotlib.org/</dc:title>
     </cc:Agent>
    </dc:creator>
   </cc:Work>
  </rdf:RDF>
 </metadata>
 <defs>
  <style type="text/css">*{stroke-linejoin: round; stroke-linecap: butt}</style>
 </defs>
 <g id="figure_1">
  <g id="patch_1">
   <path d="M 0 432 
L 720 432 
L 720 0 
L 0 0 
z
" style="fill: #ffffff"/>
  </g>
  <g id="axes_1">
   <g id="patch_2">
    <path d="M 50.22 383.94 
L 707.04 383.94 
L 707.04 27.65625 
L 50.22 27.65625 
z
" style="fill: #ffffff"/>
   </g>
   <g id="matplotlib.axis_1">
    <g id="xtick_1">
     <g id="line2d_1">
      <path d="M 80.075455 383.94 
L 80.075455 27.65625 
" clip-path="url(#p1a2101ac11)" style="fill: none; stroke: #cccccc; stroke-linecap: round"/>
     </g>
     <g id="text_1">
      <!-- 0 -->
      <g style="fill: #262626" transform="translate(77.016939 401.313594) scale(0.11 -0.11)">
       <defs>
        <path id="ArialMT-30" d="M 266 2259 
Q 266 3072 433 3567 
Q 600 4063 929 4331 
Q 1259 4600 1759 4600 
Q 2128 4600 2406 4451 
Q 2684 4303 2865 4023 
Q 3047 3744 3150 3342 
Q 3253 2941 3253 2259 
Q 3253 1453 3087 958 
Q 2922 463 2592 192 
Q 2263 -78 1759 -78 
Q 1097 -78 719 397 
Q 266 969 266 2259 
z
M 844 2259 
Q 844 1131 1108 757 
Q 1372 384 1759 384 
Q 2147 384 2411 759 
Q 2675 1134 2675 2259 
Q 2675 3391 2411 3762 
Q 2147 4134 1753 4134 
Q 1366 4134 1134 3806 
Q 844 3388 844 2259 
z
" transform="scale(0.015625)"/>
       </defs>
       <use xlink:href="#ArialMT-30"/>
      </g>
     </g>
    </g>
    <g id="xtick_2">
     <g id="line2d_2">
      <path d="M 179.926473 383.94 
L 179.926473 27.65625 
" clip-path="url(#p1a2101ac11)" style="fill: none; stroke: #cccccc; stroke-linecap: round"/>
     </g>
     <g id="text_2">
      <!-- 50 -->
      <g style="fill: #262626" transform="translate(173.809442 401.313594) scale(0.11 -0.11)">
       <defs>
        <path id="ArialMT-35" d="M 266 1200 
L 856 1250 
Q 922 819 1161 601 
Q 1400 384 1738 384 
Q 2144 384 2425 690 
Q 2706 997 2706 1503 
Q 2706 1984 2436 2262 
Q 2166 2541 1728 2541 
Q 1456 2541 1237 2417 
Q 1019 2294 894 2097 
L 366 2166 
L 809 4519 
L 3088 4519 
L 3088 3981 
L 1259 3981 
L 1013 2750 
Q 1425 3038 1878 3038 
Q 2478 3038 2890 2622 
Q 3303 2206 3303 1553 
Q 3303 931 2941 478 
Q 2500 -78 1738 -78 
Q 1113 -78 717 272 
Q 322 622 266 1200 
z
" transform="scale(0.015625)"/>
       </defs>
       <use xlink:href="#ArialMT-35"/>
       <use xlink:href="#ArialMT-30" x="55.615234"/>
      </g>
     </g>
    </g>
    <g id="xtick_3">
     <g id="line2d_3">
      <path d="M 279.777492 383.94 
L 279.777492 27.65625 
" clip-path="url(#p1a2101ac11)" style="fill: none; stroke: #cccccc; stroke-linecap: round"/>
     </g>
     <g id="text_3">
      <!-- 100 -->
      <g style="fill: #262626" transform="translate(270.601945 401.313594) scale(0.11 -0.11)">
       <defs>
        <path id="ArialMT-31" d="M 2384 0 
L 1822 0 
L 1822 3584 
Q 1619 3391 1289 3197 
Q 959 3003 697 2906 
L 697 3450 
Q 1169 3672 1522 3987 
Q 1875 4303 2022 4600 
L 2384 4600 
L 2384 0 
z
" transform="scale(0.015625)"/>
       </defs>
       <use xlink:href="#ArialMT-31"/>
       <use xlink:href="#ArialMT-30" x="55.615234"/>
       <use xlink:href="#ArialMT-30" x="111.230469"/>
      </g>
     </g>
    </g>
    <g id="xtick_4">
     <g id="line2d_4">
      <path d="M 379.62851 383.94 
L 379.62851 27.65625 
" clip-path="url(#p1a2101ac11)" style="fill: none; stroke: #cccccc; stroke-linecap: round"/>
     </g>
     <g id="text_4">
      <!-- 150 -->
      <g style="fill: #262626" transform="translate(370.452963 401.313594) scale(0.11 -0.11)">
       <use xlink:href="#ArialMT-31"/>
       <use xlink:href="#ArialMT-35" x="55.615234"/>
       <use xlink:href="#ArialMT-30" x="111.230469"/>
      </g>
     </g>
    </g>
    <g id="xtick_5">
     <g id="line2d_5">
      <path d="M 479.479529 383.94 
L 479.479529 27.65625 
" clip-path="url(#p1a2101ac11)" style="fill: none; stroke: #cccccc; stroke-linecap: round"/>
     </g>
     <g id="text_5">
      <!-- 200 -->
      <g style="fill: #262626" transform="translate(470.303982 401.313594) scale(0.11 -0.11)">
       <defs>
        <path id="ArialMT-32" d="M 3222 541 
L 3222 0 
L 194 0 
Q 188 203 259 391 
Q 375 700 629 1000 
Q 884 1300 1366 1694 
Q 2113 2306 2375 2664 
Q 2638 3022 2638 3341 
Q 2638 3675 2398 3904 
Q 2159 4134 1775 4134 
Q 1369 4134 1125 3890 
Q 881 3647 878 3216 
L 300 3275 
Q 359 3922 746 4261 
Q 1134 4600 1788 4600 
Q 2447 4600 2831 4234 
Q 3216 3869 3216 3328 
Q 3216 3053 3103 2787 
Q 2991 2522 2730 2228 
Q 2469 1934 1863 1422 
Q 1356 997 1212 845 
Q 1069 694 975 541 
L 3222 541 
z
" transform="scale(0.015625)"/>
       </defs>
       <use xlink:href="#ArialMT-32"/>
       <use xlink:href="#ArialMT-30" x="55.615234"/>
       <use xlink:href="#ArialMT-30" x="111.230469"/>
      </g>
     </g>
    </g>
    <g id="xtick_6">
     <g id="line2d_6">
      <path d="M 579.330547 383.94 
L 579.330547 27.65625 
" clip-path="url(#p1a2101ac11)" style="fill: none; stroke: #cccccc; stroke-linecap: round"/>
     </g>
     <g id="text_6">
      <!-- 250 -->
      <g style="fill: #262626" transform="translate(570.155 401.313594) scale(0.11 -0.11)">
       <use xlink:href="#ArialMT-32"/>
       <use xlink:href="#ArialMT-35" x="55.615234"/>
       <use xlink:href="#ArialMT-30" x="111.230469"/>
      </g>
     </g>
    </g>
    <g id="xtick_7">
     <g id="line2d_7">
      <path d="M 679.181566 383.94 
L 679.181566 27.65625 
" clip-path="url(#p1a2101ac11)" style="fill: none; stroke: #cccccc; stroke-linecap: round"/>
     </g>
     <g id="text_7">
      <!-- 300 -->
      <g style="fill: #262626" transform="translate(670.006019 401.313594) scale(0.11 -0.11)">
       <defs>
        <path id="ArialMT-33" d="M 269 1209 
L 831 1284 
Q 928 806 1161 595 
Q 1394 384 1728 384 
Q 2125 384 2398 659 
Q 2672 934 2672 1341 
Q 2672 1728 2419 1979 
Q 2166 2231 1775 2231 
Q 1616 2231 1378 2169 
L 1441 2663 
Q 1497 2656 1531 2656 
Q 1891 2656 2178 2843 
Q 2466 3031 2466 3422 
Q 2466 3731 2256 3934 
Q 2047 4138 1716 4138 
Q 1388 4138 1169 3931 
Q 950 3725 888 3313 
L 325 3413 
Q 428 3978 793 4289 
Q 1159 4600 1703 4600 
Q 2078 4600 2393 4439 
Q 2709 4278 2876 4000 
Q 3044 3722 3044 3409 
Q 3044 3113 2884 2869 
Q 2725 2625 2413 2481 
Q 2819 2388 3044 2092 
Q 3269 1797 3269 1353 
Q 3269 753 2831 336 
Q 2394 -81 1725 -81 
Q 1122 -81 723 278 
Q 325 638 269 1209 
z
" transform="scale(0.015625)"/>
       </defs>
       <use xlink:href="#ArialMT-33"/>
       <use xlink:href="#ArialMT-30" x="55.615234"/>
       <use xlink:href="#ArialMT-30" x="111.230469"/>
      </g>
     </g>
    </g>
    <g id="text_8">
     <!-- Episode -->
     <g style="fill: #262626" transform="translate(356.948438 416.089219) scale(0.12 -0.12)">
      <defs>
       <path id="ArialMT-45" d="M 506 0 
L 506 4581 
L 3819 4581 
L 3819 4041 
L 1113 4041 
L 1113 2638 
L 3647 2638 
L 3647 2100 
L 1113 2100 
L 1113 541 
L 3925 541 
L 3925 0 
L 506 0 
z
" transform="scale(0.015625)"/>
       <path id="ArialMT-70" d="M 422 -1272 
L 422 3319 
L 934 3319 
L 934 2888 
Q 1116 3141 1344 3267 
Q 1572 3394 1897 3394 
Q 2322 3394 2647 3175 
Q 2972 2956 3137 2557 
Q 3303 2159 3303 1684 
Q 3303 1175 3120 767 
Q 2938 359 2589 142 
Q 2241 -75 1856 -75 
Q 1575 -75 1351 44 
Q 1128 163 984 344 
L 984 -1272 
L 422 -1272 
z
M 931 1641 
Q 931 1000 1190 694 
Q 1450 388 1819 388 
Q 2194 388 2461 705 
Q 2728 1022 2728 1688 
Q 2728 2322 2467 2637 
Q 2206 2953 1844 2953 
Q 1484 2953 1207 2617 
Q 931 2281 931 1641 
z
" transform="scale(0.015625)"/>
       <path id="ArialMT-69" d="M 425 3934 
L 425 4581 
L 988 4581 
L 988 3934 
L 425 3934 
z
M 425 0 
L 425 3319 
L 988 3319 
L 988 0 
L 425 0 
z
" transform="scale(0.015625)"/>
       <path id="ArialMT-73" d="M 197 991 
L 753 1078 
Q 800 744 1014 566 
Q 1228 388 1613 388 
Q 2000 388 2187 545 
Q 2375 703 2375 916 
Q 2375 1106 2209 1216 
Q 2094 1291 1634 1406 
Q 1016 1563 777 1677 
Q 538 1791 414 1992 
Q 291 2194 291 2438 
Q 291 2659 392 2848 
Q 494 3038 669 3163 
Q 800 3259 1026 3326 
Q 1253 3394 1513 3394 
Q 1903 3394 2198 3281 
Q 2494 3169 2634 2976 
Q 2775 2784 2828 2463 
L 2278 2388 
Q 2241 2644 2061 2787 
Q 1881 2931 1553 2931 
Q 1166 2931 1000 2803 
Q 834 2675 834 2503 
Q 834 2394 903 2306 
Q 972 2216 1119 2156 
Q 1203 2125 1616 2013 
Q 2213 1853 2448 1751 
Q 2684 1650 2818 1456 
Q 2953 1263 2953 975 
Q 2953 694 2789 445 
Q 2625 197 2315 61 
Q 2006 -75 1616 -75 
Q 969 -75 630 194 
Q 291 463 197 991 
z
" transform="scale(0.015625)"/>
       <path id="ArialMT-6f" d="M 213 1659 
Q 213 2581 725 3025 
Q 1153 3394 1769 3394 
Q 2453 3394 2887 2945 
Q 3322 2497 3322 1706 
Q 3322 1066 3130 698 
Q 2938 331 2570 128 
Q 2203 -75 1769 -75 
Q 1072 -75 642 372 
Q 213 819 213 1659 
z
M 791 1659 
Q 791 1022 1069 705 
Q 1347 388 1769 388 
Q 2188 388 2466 706 
Q 2744 1025 2744 1678 
Q 2744 2294 2464 2611 
Q 2184 2928 1769 2928 
Q 1347 2928 1069 2612 
Q 791 2297 791 1659 
z
" transform="scale(0.015625)"/>
       <path id="ArialMT-64" d="M 2575 0 
L 2575 419 
Q 2259 -75 1647 -75 
Q 1250 -75 917 144 
Q 584 363 401 755 
Q 219 1147 219 1656 
Q 219 2153 384 2558 
Q 550 2963 881 3178 
Q 1213 3394 1622 3394 
Q 1922 3394 2156 3267 
Q 2391 3141 2538 2938 
L 2538 4581 
L 3097 4581 
L 3097 0 
L 2575 0 
z
M 797 1656 
Q 797 1019 1065 703 
Q 1334 388 1700 388 
Q 2069 388 2326 689 
Q 2584 991 2584 1609 
Q 2584 2291 2321 2609 
Q 2059 2928 1675 2928 
Q 1300 2928 1048 2622 
Q 797 2316 797 1656 
z
" transform="scale(0.015625)"/>
       <path id="ArialMT-65" d="M 2694 1069 
L 3275 997 
Q 3138 488 2766 206 
Q 2394 -75 1816 -75 
Q 1088 -75 661 373 
Q 234 822 234 1631 
Q 234 2469 665 2931 
Q 1097 3394 1784 3394 
Q 2450 3394 2872 2941 
Q 3294 2488 3294 1666 
Q 3294 1616 3291 1516 
L 816 1516 
Q 847 969 1125 678 
Q 1403 388 1819 388 
Q 2128 388 2347 550 
Q 2566 713 2694 1069 
z
M 847 1978 
L 2700 1978 
Q 2663 2397 2488 2606 
Q 2219 2931 1791 2931 
Q 1403 2931 1139 2672 
Q 875 2413 847 1978 
z
" transform="scale(0.015625)"/>
      </defs>
      <use xlink:href="#ArialMT-45"/>
      <use xlink:href="#ArialMT-70" x="66.699219"/>
      <use xlink:href="#ArialMT-69" x="122.314453"/>
      <use xlink:href="#ArialMT-73" x="144.53125"/>
      <use xlink:href="#ArialMT-6f" x="194.53125"/>
      <use xlink:href="#ArialMT-64" x="250.146484"/>
      <use xlink:href="#ArialMT-65" x="305.761719"/>
     </g>
    </g>
   </g>
   <g id="matplotlib.axis_2">
    <g id="ytick_1">
     <g id="line2d_8">
      <path d="M 50.22 332.995154 
L 707.04 332.995154 
" clip-path="url(#p1a2101ac11)" style="fill: none; stroke: #cccccc; stroke-linecap: round"/>
     </g>
     <g id="text_9">
      <!-- −1 -->
      <g style="fill: #262626" transform="translate(28.178281 336.931951) scale(0.11 -0.11)">
       <defs>
        <path id="ArialMT-2212" d="M 3381 1997 
L 356 1997 
L 356 2522 
L 3381 2522 
L 3381 1997 
z
" transform="scale(0.015625)"/>
       </defs>
       <use xlink:href="#ArialMT-2212"/>
       <use xlink:href="#ArialMT-31" x="58.398438"/>
      </g>
     </g>
    </g>
    <g id="ytick_2">
     <g id="line2d_9">
      <path d="M 50.22 273.832053 
L 707.04 273.832053 
" clip-path="url(#p1a2101ac11)" style="fill: none; stroke: #cccccc; stroke-linecap: round"/>
     </g>
     <g id="text_10">
      <!-- 0 -->
      <g style="fill: #262626" transform="translate(34.602969 277.76885) scale(0.11 -0.11)">
       <use xlink:href="#ArialMT-30"/>
      </g>
     </g>
    </g>
    <g id="ytick_3">
     <g id="line2d_10">
      <path d="M 50.22 214.668951 
L 707.04 214.668951 
" clip-path="url(#p1a2101ac11)" style="fill: none; stroke: #cccccc; stroke-linecap: round"/>
     </g>
     <g id="text_11">
      <!-- 1 -->
      <g style="fill: #262626" transform="translate(34.602969 218.605748) scale(0.11 -0.11)">
       <use xlink:href="#ArialMT-31"/>
      </g>
     </g>
    </g>
    <g id="ytick_4">
     <g id="line2d_11">
      <path d="M 50.22 155.505849 
L 707.04 155.505849 
" clip-path="url(#p1a2101ac11)" style="fill: none; stroke: #cccccc; stroke-linecap: round"/>
     </g>
     <g id="text_12">
      <!-- 2 -->
      <g style="fill: #262626" transform="translate(34.602969 159.442646) scale(0.11 -0.11)">
       <use xlink:href="#ArialMT-32"/>
      </g>
     </g>
    </g>
    <g id="ytick_5">
     <g id="line2d_12">
      <path d="M 50.22 96.342748 
L 707.04 96.342748 
" clip-path="url(#p1a2101ac11)" style="fill: none; stroke: #cccccc; stroke-linecap: round"/>
     </g>
     <g id="text_13">
      <!-- 3 -->
      <g style="fill: #262626" transform="translate(34.602969 100.279545) scale(0.11 -0.11)">
       <use xlink:href="#ArialMT-33"/>
      </g>
     </g>
    </g>
    <g id="ytick_6">
     <g id="line2d_13">
      <path d="M 50.22 37.179646 
L 707.04 37.179646 
" clip-path="url(#p1a2101ac11)" style="fill: none; stroke: #cccccc; stroke-linecap: round"/>
     </g>
     <g id="text_14">
      <!-- 4 -->
      <g style="fill: #262626" transform="translate(34.602969 41.116443) scale(0.11 -0.11)">
       <defs>
        <path id="ArialMT-34" d="M 2069 0 
L 2069 1097 
L 81 1097 
L 81 1613 
L 2172 4581 
L 2631 4581 
L 2631 1613 
L 3250 1613 
L 3250 1097 
L 2631 1097 
L 2631 0 
L 2069 0 
z
M 2069 1613 
L 2069 3678 
L 634 1613 
L 2069 1613 
z
" transform="scale(0.015625)"/>
       </defs>
       <use xlink:href="#ArialMT-34"/>
      </g>
     </g>
    </g>
    <g id="text_15">
     <!-- Total Reward -->
     <g style="fill: #262626" transform="translate(21.793281 240.809063) rotate(-90) scale(0.12 -0.12)">
      <defs>
       <path id="ArialMT-54" d="M 1659 0 
L 1659 4041 
L 150 4041 
L 150 4581 
L 3781 4581 
L 3781 4041 
L 2266 4041 
L 2266 0 
L 1659 0 
z
" transform="scale(0.015625)"/>
       <path id="ArialMT-74" d="M 1650 503 
L 1731 6 
Q 1494 -44 1306 -44 
Q 1000 -44 831 53 
Q 663 150 594 308 
Q 525 466 525 972 
L 525 2881 
L 113 2881 
L 113 3319 
L 525 3319 
L 525 4141 
L 1084 4478 
L 1084 3319 
L 1650 3319 
L 1650 2881 
L 1084 2881 
L 1084 941 
Q 1084 700 1114 631 
Q 1144 563 1211 522 
Q 1278 481 1403 481 
Q 1497 481 1650 503 
z
" transform="scale(0.015625)"/>
       <path id="ArialMT-61" d="M 2588 409 
Q 2275 144 1986 34 
Q 1697 -75 1366 -75 
Q 819 -75 525 192 
Q 231 459 231 875 
Q 231 1119 342 1320 
Q 453 1522 633 1644 
Q 813 1766 1038 1828 
Q 1203 1872 1538 1913 
Q 2219 1994 2541 2106 
Q 2544 2222 2544 2253 
Q 2544 2597 2384 2738 
Q 2169 2928 1744 2928 
Q 1347 2928 1158 2789 
Q 969 2650 878 2297 
L 328 2372 
Q 403 2725 575 2942 
Q 747 3159 1072 3276 
Q 1397 3394 1825 3394 
Q 2250 3394 2515 3294 
Q 2781 3194 2906 3042 
Q 3031 2891 3081 2659 
Q 3109 2516 3109 2141 
L 3109 1391 
Q 3109 606 3145 398 
Q 3181 191 3288 0 
L 2700 0 
Q 2613 175 2588 409 
z
M 2541 1666 
Q 2234 1541 1622 1453 
Q 1275 1403 1131 1340 
Q 988 1278 909 1158 
Q 831 1038 831 891 
Q 831 666 1001 516 
Q 1172 366 1500 366 
Q 1825 366 2078 508 
Q 2331 650 2450 897 
Q 2541 1088 2541 1459 
L 2541 1666 
z
" transform="scale(0.015625)"/>
       <path id="ArialMT-6c" d="M 409 0 
L 409 4581 
L 972 4581 
L 972 0 
L 409 0 
z
" transform="scale(0.015625)"/>
       <path id="ArialMT-20" transform="scale(0.015625)"/>
       <path id="ArialMT-52" d="M 503 0 
L 503 4581 
L 2534 4581 
Q 3147 4581 3465 4457 
Q 3784 4334 3975 4021 
Q 4166 3709 4166 3331 
Q 4166 2844 3850 2509 
Q 3534 2175 2875 2084 
Q 3116 1969 3241 1856 
Q 3506 1613 3744 1247 
L 4541 0 
L 3778 0 
L 3172 953 
Q 2906 1366 2734 1584 
Q 2563 1803 2427 1890 
Q 2291 1978 2150 2013 
Q 2047 2034 1813 2034 
L 1109 2034 
L 1109 0 
L 503 0 
z
M 1109 2559 
L 2413 2559 
Q 2828 2559 3062 2645 
Q 3297 2731 3419 2920 
Q 3541 3109 3541 3331 
Q 3541 3656 3305 3865 
Q 3069 4075 2559 4075 
L 1109 4075 
L 1109 2559 
z
" transform="scale(0.015625)"/>
       <path id="ArialMT-77" d="M 1034 0 
L 19 3319 
L 600 3319 
L 1128 1403 
L 1325 691 
Q 1338 744 1497 1375 
L 2025 3319 
L 2603 3319 
L 3100 1394 
L 3266 759 
L 3456 1400 
L 4025 3319 
L 4572 3319 
L 3534 0 
L 2950 0 
L 2422 1988 
L 2294 2553 
L 1622 0 
L 1034 0 
z
" transform="scale(0.015625)"/>
       <path id="ArialMT-72" d="M 416 0 
L 416 3319 
L 922 3319 
L 922 2816 
Q 1116 3169 1280 3281 
Q 1444 3394 1641 3394 
Q 1925 3394 2219 3213 
L 2025 2691 
Q 1819 2813 1613 2813 
Q 1428 2813 1281 2702 
Q 1134 2591 1072 2394 
Q 978 2094 978 1738 
L 978 0 
L 416 0 
z
" transform="scale(0.015625)"/>
      </defs>
      <use xlink:href="#ArialMT-54"/>
      <use xlink:href="#ArialMT-6f" x="49.958984"/>
      <use xlink:href="#ArialMT-74" x="105.574219"/>
      <use xlink:href="#ArialMT-61" x="133.357422"/>
      <use xlink:href="#ArialMT-6c" x="188.972656"/>
      <use xlink:href="#ArialMT-20" x="211.189453"/>
      <use xlink:href="#ArialMT-52" x="238.972656"/>
      <use xlink:href="#ArialMT-65" x="311.189453"/>
      <use xlink:href="#ArialMT-77" x="366.804688"/>
      <use xlink:href="#ArialMT-61" x="439.021484"/>
      <use xlink:href="#ArialMT-72" x="494.636719"/>
      <use xlink:href="#ArialMT-64" x="527.9375"/>
     </g>
    </g>
   </g>
   <g id="PathCollection_1">
    <defs>
     <path id="m2ca100b3fc" d="M 0 2.738613 
C 0.726289 2.738613 1.422928 2.450055 1.936492 1.936492 
C 2.450055 1.422928 2.738613 0.726289 2.738613 0 
C 2.738613 -0.726289 2.450055 -1.422928 1.936492 -1.936492 
C 1.422928 -2.450055 0.726289 -2.738613 0 -2.738613 
C -0.726289 -2.738613 -1.422928 -2.450055 -1.936492 -1.936492 
C -2.450055 -1.422928 -2.738613 -0.726289 -2.738613 0 
C -2.738613 0.726289 -2.450055 1.422928 -1.936492 1.936492 
C -1.422928 2.450055 -0.726289 2.738613 0 2.738613 
z
" style="stroke: #4c72b0"/>
    </defs>
    <g clip-path="url(#p1a2101ac11)">
     <use xlink:href="#m2ca100b3fc" x="677.184545" y="43.850966" style="fill: #4c72b0; stroke: #4c72b0"/>
    </g>
   </g>
   <g id="PathCollection_2">
    <defs>
     <path id="m43d4b9c36f" d="M 0 2.738613 
C 0.726289 2.738613 1.422928 2.450055 1.936492 1.936492 
C 2.450055 1.422928 2.738613 0.726289 2.738613 0 
C 2.738613 -0.726289 2.450055 -1.422928 1.936492 -1.936492 
C 1.422928 -2.450055 0.726289 -2.738613 0 -2.738613 
C -0.726289 -2.738613 -1.422928 -2.450055 -1.936492 -1.936492 
C -2.450055 -1.422928 -2.738613 -0.726289 -2.738613 0 
C -2.738613 0.726289 -2.450055 1.422928 -1.936492 1.936492 
C -1.422928 2.450055 -0.726289 2.738613 0 2.738613 
z
" style="stroke: #dd8452"/>
    </defs>
    <g clip-path="url(#p1a2101ac11)">
     <use xlink:href="#m43d4b9c36f" x="677.184545" y="68.007072" style="fill: #dd8452; stroke: #dd8452"/>
    </g>
   </g>
   <g id="PathCollection_3">
    <defs>
     <path id="m2112eeec0b" d="M 0 2.738613 
C 0.726289 2.738613 1.422928 2.450055 1.936492 1.936492 
C 2.450055 1.422928 2.738613 0.726289 2.738613 0 
C 2.738613 -0.726289 2.450055 -1.422928 1.936492 -1.936492 
C 1.422928 -2.450055 0.726289 -2.738613 0 -2.738613 
C -0.726289 -2.738613 -1.422928 -2.450055 -1.936492 -1.936492 
C -2.450055 -1.422928 -2.738613 -0.726289 -2.738613 0 
C -2.738613 0.726289 -2.450055 1.422928 -1.936492 1.936492 
C -1.422928 2.450055 -0.726289 2.738613 0 2.738613 
z
" style="stroke: #55a868"/>
    </defs>
    <g clip-path="url(#p1a2101ac11)">
     <use xlink:href="#m2112eeec0b" x="677.184545" y="65.497816" style="fill: #55a868; stroke: #55a868"/>
    </g>
   </g>
   <g id="line2d_14">
    <path d="M 80.075455 62.406383 
L 82.072475 61.973883 
L 84.069495 58.369704 
L 88.063536 58.734841 
L 90.060556 59.903644 
L 92.057577 59.397445 
L 94.054597 62.082747 
L 96.051618 62.361719 
L 98.048638 60.310068 
L 100.045658 57.913541 
L 102.042679 57.396407 
L 104.039699 58.127153 
L 106.036719 56.798785 
L 108.03374 58.20086 
L 110.03076 59.770067 
L 112.02778 61.826864 
L 114.024801 61.802295 
L 116.021821 61.898371 
L 118.018842 62.515625 
L 120.015862 62.842799 
L 122.012882 62.144544 
L 124.009903 62.759638 
L 126.006923 64.763403 
L 128.003943 65.103024 
L 130.000964 64.466458 
L 131.997984 61.364525 
L 133.995005 60.279233 
L 135.992025 57.700724 
L 137.989045 57.715927 
L 139.986066 56.813474 
L 141.983086 60.3118 
L 145.977127 58.535168 
L 147.974147 56.88831 
L 149.971168 58.912997 
L 151.968188 60.184325 
L 153.965208 61.135211 
L 155.962229 61.279491 
L 157.959249 63.098383 
L 159.956269 63.184015 
L 163.95031 62.279097 
L 165.94733 64.350587 
L 169.941371 264.949745 
L 171.938392 263.786102 
L 173.935412 366.15985 
L 175.932432 364.867345 
L 177.929453 364.867345 
L 179.926473 263.293165 
L 181.923493 263.875354 
L 183.920514 163.437057 
L 185.917534 165.375836 
L 187.914555 59.919481 
L 189.911575 161.493661 
L 191.908595 161.838726 
L 193.905616 161.403819 
L 195.902636 161.789094 
L 197.899656 166.291282 
L 199.896677 64.771807 
L 201.893697 63.939508 
L 203.890718 61.921924 
L 205.887738 61.579903 
L 207.884758 61.537259 
L 209.881779 163.056734 
L 213.875819 166.098016 
L 215.87284 164.892945 
L 217.86986 165.060046 
L 219.866881 64.665367 
L 221.863901 62.449363 
L 223.860921 62.953121 
L 225.857942 164.988141 
L 227.854962 163.015946 
L 229.851982 161.364293 
L 231.849003 161.979762 
L 233.846023 161.979762 
L 235.843043 60.162382 
L 239.837084 61.200542 
L 241.834105 62.198405 
L 243.831125 61.241299 
L 245.828145 62.302479 
L 247.825166 61.007219 
L 249.822186 61.04981 
L 251.819206 61.641756 
L 253.816227 61.57884 
L 255.813247 58.938543 
L 257.810268 61.773308 
L 259.807288 61.927905 
L 261.804308 57.0222 
L 263.801329 58.2022 
L 265.798349 60.126915 
L 267.795369 59.992794 
L 269.79239 56.150659 
L 271.78941 55.525206 
L 273.786431 54.378019 
L 277.780471 53.249019 
L 281.774512 60.244736 
L 283.771532 56.988804 
L 285.768553 57.053656 
L 287.765573 54.952742 
L 289.762593 55.738062 
L 291.759614 55.715964 
L 293.756634 59.308089 
L 295.753655 59.340901 
L 297.750675 162.931866 
L 299.747695 161.335706 
L 301.744716 162.295611 
L 305.738756 163.442499 
L 307.735777 58.28318 
L 309.732797 58.756569 
L 311.729818 59.387659 
L 313.726838 57.897864 
L 315.723858 55.676426 
L 317.720879 59.269426 
L 319.717899 58.516625 
L 321.714919 58.451793 
L 323.71194 58.659373 
L 325.70896 61.360017 
L 327.705981 60.489959 
L 329.703001 61.707178 
L 331.700021 61.112289 
L 333.697042 163.348669 
L 335.694062 162.869463 
L 337.691082 162.61684 
L 339.688103 161.679033 
L 341.685123 162.338754 
L 343.682144 60.102374 
L 345.679164 59.235521 
L 347.676184 61.08383 
L 349.673205 62.10737 
L 351.670225 62.001183 
L 353.667245 62.364281 
L 359.658306 61.84653 
L 361.655327 60.857209 
L 363.652347 61.344444 
L 365.649368 62.277306 
L 367.646388 61.7142 
L 369.643408 61.378007 
L 371.640429 61.928159 
L 373.637449 61.077826 
L 375.634469 61.298756 
L 377.63149 59.212591 
L 379.62851 59.641009 
L 381.625531 59.090857 
L 383.622551 59.453955 
L 385.619571 58.836469 
L 387.616592 59.093332 
L 389.613612 59.048826 
L 393.607653 60.119253 
L 395.604673 59.69683 
L 397.601694 62.187803 
L 399.598714 61.771079 
L 401.595734 62.735229 
L 403.592755 63.231554 
L 405.589775 64.157732 
L 407.586795 63.189974 
L 409.583816 61.535208 
L 413.577856 60.587048 
L 415.574877 58.36561 
L 417.571897 58.302694 
L 419.568918 60.939493 
L 421.565938 59.876798 
L 423.562958 59.026465 
L 425.559979 162.61743 
L 427.556999 163.648105 
L 429.554019 264.602271 
L 431.55104 265.13613 
L 433.54806 265.469124 
L 435.545081 163.595841 
L 437.542101 163.029584 
L 439.539121 61.558694 
L 441.536142 61.645161 
L 443.533162 163.548548 
L 445.530182 164.581139 
L 447.527203 165.29672 
L 449.524223 165.813445 
L 451.521244 165.710457 
L 453.518264 63.837174 
L 455.515284 63.496006 
L 457.512305 62.316006 
L 459.509325 61.333972 
L 461.506345 61.350493 
L 463.503366 58.064456 
L 465.500386 55.934321 
L 467.497407 56.916355 
L 471.491447 55.17372 
L 473.488468 55.17372 
L 475.485488 56.401888 
L 477.482508 55.884272 
L 481.476549 57.87749 
L 483.473569 61.667282 
L 485.47059 62.877907 
L 487.46761 63.459368 
L 489.464631 64.427126 
L 491.461651 64.325927 
L 493.458671 62.042095 
L 495.455692 61.443516 
L 497.452712 61.151976 
L 499.449732 58.466536 
L 501.446753 58.341868 
L 503.443773 58.404263 
L 505.440794 56.285079 
L 507.437814 55.593658 
L 509.434834 58.34393 
L 511.431855 57.878375 
L 513.428875 60.099813 
L 515.425895 61.754578 
L 519.419936 60.949113 
L 521.416957 61.350614 
L 523.413977 61.963942 
L 525.410997 63.026938 
L 527.408018 63.390036 
L 529.405038 164.673096 
L 531.402058 162.553912 
L 533.399079 158.150793 
L 535.396099 155.433031 
L 537.393119 152.146994 
L 539.39014 51.24147 
L 541.38716 53.549375 
L 543.384181 57.952495 
L 545.381201 60.653138 
L 547.378221 64.906933 
L 549.375242 62.159098 
L 551.372262 62.487992 
L 553.369282 61.370909 
L 555.366303 61.420538 
L 557.363323 162.326062 
L 559.360344 163.569833 
L 561.357364 160.87064 
L 563.354384 161.562061 
L 565.351405 160.930972 
L 567.348425 59.962568 
L 571.342466 60.198171 
L 573.339486 56.220713 
L 575.336507 56.819292 
L 577.333527 56.957746 
L 579.330547 58.353435 
L 581.327568 61.054078 
L 583.324588 64.82735 
L 585.321608 64.82735 
L 587.318629 63.265286 
L 589.315649 62.924117 
L 593.30969 62.876793 
L 595.30671 62.909304 
L 597.303731 64.410995 
L 601.297771 56.228383 
L 605.291812 55.149168 
L 607.288832 50.88017 
L 609.285853 156.039489 
L 611.282873 156.039489 
L 613.279894 157.102184 
L 615.276914 157.696438 
L 617.273934 161.884439 
L 619.270955 60.930273 
L 621.267975 65.184069 
L 623.264995 64.655233 
L 625.262016 63.573744 
L 627.259036 62.135474 
L 629.256057 61.216357 
L 633.250097 61.292172 
L 635.247118 62.324763 
L 639.241158 63.232465 
L 641.238179 63.188972 
L 643.235199 63.275439 
L 645.23222 62.242849 
L 647.22924 62.863175 
L 649.22626 62.098577 
L 651.223281 62.21558 
L 653.220301 62.544474 
L 655.217321 63.577065 
L 657.214342 63.388343 
L 659.211362 64.152942 
L 661.208382 59.749822 
L 663.205403 59.420928 
L 665.202423 58.789839 
L 667.199444 59.307454 
L 669.196464 55.619916 
L 669.196464 55.619916 
" clip-path="url(#p1a2101ac11)" style="fill: none; stroke: #4c72b0; stroke-width: 2; stroke-linecap: round"/>
   </g>
   <g id="line2d_15">
    <path d="M 80.075455 60.762552 
L 82.072475 61.456733 
L 84.069495 62.572787 
L 86.066516 60.136338 
L 88.063536 60.419386 
L 90.060556 59.996625 
L 92.057577 58.318202 
L 94.054597 59.114558 
L 96.051618 58.894276 
L 98.048638 59.814384 
L 100.045658 55.714477 
L 102.042679 53.592713 
L 104.039699 53.096986 
L 106.036719 55.736601 
L 108.03374 55.51797 
L 112.02778 62.483321 
L 114.024801 61.31926 
L 116.021821 162.296424 
L 118.018842 163.800225 
L 120.015862 161.60707 
L 122.012882 160.758703 
L 124.009903 160.273624 
L 126.006923 60.023891 
L 128.003943 59.507519 
L 130.000964 62.925406 
L 131.997984 63.786975 
L 133.995005 61.120947 
L 135.992025 59.402444 
L 137.989045 57.927468 
L 139.986066 56.749489 
L 141.983086 57.375401 
L 143.980106 61.994483 
L 147.974147 63.800661 
L 153.965208 64.078758 
L 155.962229 63.856674 
L 157.959249 64.483094 
L 159.956269 64.844733 
L 161.95329 64.091842 
L 163.95031 62.540821 
L 165.94733 61.467736 
L 167.944351 61.025368 
L 171.938392 59.16514 
L 173.935412 61.364212 
L 175.932432 61.225452 
L 177.929453 60.92359 
L 179.926473 60.116438 
L 181.923493 162.590872 
L 183.920514 161.942822 
L 185.917534 264.387364 
L 187.914555 263.656618 
L 189.911575 262.702175 
L 191.908595 162.348369 
L 193.905616 161.395049 
L 195.902636 59.839757 
L 197.899656 59.670247 
L 199.896677 62.174248 
L 201.893697 61.723461 
L 203.890718 61.901722 
L 207.884758 61.882835 
L 209.881779 62.227228 
L 211.878799 61.536483 
L 213.875819 61.71548 
L 215.87284 57.444925 
L 217.86986 58.52743 
L 219.866881 58.428219 
L 221.863901 57.839729 
L 223.860921 56.912797 
L 225.857942 59.140755 
L 227.854962 58.977392 
L 229.851982 159.988005 
L 233.846023 161.083933 
L 235.843043 162.616883 
L 237.840064 162.676837 
L 239.837084 59.726097 
L 241.834105 59.299225 
L 243.831125 59.28262 
L 245.828145 61.063597 
L 247.825166 60.166524 
L 249.822186 62.719197 
L 251.819206 62.856148 
L 253.816227 63.134841 
L 255.813247 59.820914 
L 257.810268 60.129497 
L 259.807288 59.573398 
L 261.804308 61.1094 
L 263.801329 62.347334 
L 267.795369 63.740436 
L 269.79239 62.648268 
L 271.78941 61.794505 
L 273.786431 60.110812 
L 275.783451 61.313784 
L 277.780471 60.225398 
L 279.777492 59.32099 
L 281.774512 60.174753 
L 283.771532 57.103299 
L 285.768553 58.017191 
L 287.765573 60.163528 
L 289.762593 61.558976 
L 291.759614 60.30282 
L 293.756634 62.453868 
L 295.753655 60.307721 
L 297.750675 59.667415 
L 299.747695 161.222707 
L 301.744716 162.489602 
L 303.741736 163.082545 
L 305.738756 266.033285 
L 307.735777 265.446397 
L 309.732797 164.163337 
L 311.729818 160.460463 
L 313.726838 160.787927 
L 315.723858 60.031728 
L 317.720879 61.269662 
L 319.717899 61.183195 
L 321.714919 63.527766 
L 323.71194 64.033479 
L 325.70896 64.060739 
L 327.705981 59.419156 
L 329.703001 57.867226 
L 331.700021 59.242052 
L 333.697042 57.925409 
L 335.694062 158.654348 
L 337.691082 161.645053 
L 339.688103 163.011218 
L 341.685123 162.343649 
L 343.682144 164.827532 
L 345.679164 64.499434 
L 347.676184 66.166836 
L 349.673205 65.721077 
L 351.670225 61.768529 
L 353.667245 61.779269 
L 355.664266 60.606954 
L 357.661286 55.320303 
L 359.658306 56.324544 
L 361.655327 59.671316 
L 365.649368 59.676391 
L 367.646388 64.459284 
L 369.643408 65.003921 
L 371.640429 61.505595 
L 373.637449 61.01836 
L 375.634469 60.939518 
L 377.63149 56.671606 
L 379.62851 52.051275 
L 381.625531 52.051275 
L 383.622551 51.300575 
L 385.619571 49.257977 
L 387.616592 54.029647 
L 389.613612 57.527973 
L 391.610632 60.51665 
L 393.607653 60.948532 
L 395.604673 63.088583 
L 397.601694 63.072059 
L 399.598714 59.573734 
L 401.595734 61.205389 
L 403.592755 60.812827 
L 405.589775 60.812827 
L 407.586795 59.653459 
L 409.583816 63.170672 
L 411.580836 61.148411 
L 413.577856 61.695978 
L 415.574877 62.855347 
L 417.571897 61.381333 
L 419.568918 61.072525 
L 421.565938 63.07615 
L 423.562958 62.567827 
L 425.559979 59.963728 
L 427.556999 61.359176 
L 429.554019 61.222225 
L 431.55104 161.693035 
L 433.54806 161.674424 
L 435.545081 163.119154 
L 437.542101 159.601941 
L 439.539121 157.986214 
L 441.536142 56.490877 
L 443.533162 55.985164 
L 445.530182 55.906598 
L 447.527203 160.979103 
L 449.524223 164.267783 
L 451.521244 164.188941 
L 455.515284 367.745284 
L 457.512305 267.193514 
L 459.509325 265.047178 
L 461.506345 265.652953 
L 465.500386 62.523482 
L 467.497407 62.747154 
L 469.494427 60.149084 
L 471.491447 58.643053 
L 473.488468 55.12584 
L 475.485488 55.731616 
L 479.479529 55.758879 
L 481.476549 56.265078 
L 485.47059 56.192499 
L 487.46761 156.493333 
L 489.464631 160.089111 
L 491.461651 160.473094 
L 493.458671 164.068872 
L 495.455692 161.493077 
L 497.452712 59.409249 
L 499.449732 58.802147 
L 501.446753 55.313896 
L 503.443773 54.822387 
L 505.440794 58.121807 
L 507.437814 58.705222 
L 509.434834 57.172273 
L 511.431855 60.160949 
L 513.428875 60.947324 
L 515.425895 57.647904 
L 517.422916 58.820219 
L 519.419936 62.119639 
L 521.416957 62.648175 
L 523.413977 63.025443 
L 525.410997 166.642221 
L 527.408018 166.652961 
L 529.405038 165.386065 
L 531.402058 165.386065 
L 533.399079 164.10683 
L 535.396099 63.789472 
L 537.393119 62.522576 
L 539.39014 62.82377 
L 541.38716 61.567939 
L 543.384181 58.579262 
L 545.381201 57.322441 
L 547.378221 57.411356 
L 551.372262 58.062702 
L 553.369282 61.65848 
L 555.366303 61.648406 
L 559.360344 60.643498 
L 561.357364 62.31334 
L 563.354384 59.051311 
L 565.351405 60.307467 
L 567.348425 57.316762 
L 569.345445 53.74467 
L 571.342466 51.743908 
L 573.339486 54.481613 
L 575.336507 52.841475 
L 577.333527 57.472318 
L 579.330547 59.215709 
L 581.327568 60.525725 
L 583.324588 62.225942 
L 585.321608 62.193126 
L 587.318629 60.936971 
L 589.315649 62.789358 
L 591.31267 164.284696 
L 593.30969 162.501702 
L 595.30671 163.007415 
L 597.303731 164.263571 
L 599.300751 265.740298 
L 601.297771 164.156044 
L 603.294792 163.765438 
L 605.291812 163.176948 
L 607.288832 161.616794 
L 609.285853 59.648558 
L 611.282873 59.148984 
L 613.279894 59.53959 
L 615.276914 58.00664 
L 619.270955 58.704695 
L 621.267975 59.820119 
L 623.264995 60.586763 
L 625.262016 62.619287 
L 627.259036 59.234526 
L 629.256057 60.501421 
L 631.253077 60.665232 
L 633.250097 60.50569 
L 635.247118 60.534651 
L 637.244138 61.876814 
L 639.241158 60.225936 
L 643.235199 59.954599 
L 645.23222 61.192533 
L 647.22924 63.225057 
L 649.22626 62.302995 
L 653.220301 63.569891 
L 655.217321 163.887248 
L 657.214342 163.470451 
L 659.211362 166.043391 
L 661.208382 163.439292 
L 663.205403 164.079598 
L 665.202423 63.275005 
L 669.196464 63.181488 
L 669.196464 63.181488 
" clip-path="url(#p1a2101ac11)" style="fill: none; stroke: #dd8452; stroke-width: 2; stroke-linecap: round"/>
   </g>
   <g id="line2d_16">
    <path d="M 80.075455 57.639621 
L 82.072475 57.53847 
L 84.069495 157.788203 
L 86.066516 158.399844 
L 88.063536 162.297907 
L 90.060556 164.611883 
L 92.057577 162.929183 
L 94.054597 60.544596 
L 96.051618 60.082584 
L 98.048638 58.839448 
L 100.045658 58.97357 
L 102.042679 162.993801 
L 104.039699 164.826618 
L 106.036719 165.912694 
L 108.03374 166.521553 
L 110.03076 165.994696 
L 112.02778 65.235224 
L 114.024801 64.663584 
L 116.021821 63.005388 
L 118.018842 62.005923 
L 120.015862 60.048421 
L 122.012882 59.723532 
L 124.009903 55.774437 
L 126.006923 55.873171 
L 128.003943 55.658605 
L 130.000964 58.025962 
L 131.997984 55.493545 
L 133.995005 57.675263 
L 137.989045 60.109859 
L 139.986066 59.124299 
L 141.983086 59.552505 
L 143.980106 60.844542 
L 145.977127 59.916246 
L 147.974147 61.126279 
L 149.971168 62.074239 
L 151.968188 63.389528 
L 155.962229 62.610178 
L 157.959249 61.064443 
L 159.956269 59.755473 
L 161.95329 59.755473 
L 163.95031 57.716409 
L 165.94733 57.889618 
L 167.944351 58.210237 
L 173.935412 58.052909 
L 175.932432 57.960775 
L 177.929453 58.446737 
L 179.926473 59.348022 
L 181.923493 59.661716 
L 183.920514 60.894617 
L 185.917534 62.290432 
L 187.914555 62.21016 
L 189.911575 60.340956 
L 191.908595 61.135953 
L 193.905616 62.987886 
L 195.902636 62.511537 
L 197.899656 59.97912 
L 199.896677 61.290973 
L 203.890718 59.077285 
L 205.887738 59.362923 
L 207.884758 62.051179 
L 209.881779 61.066796 
L 211.878799 62.156703 
L 213.875819 61.848519 
L 215.87284 62.060525 
L 217.86986 61.569112 
L 219.866881 60.854975 
L 221.863901 60.73883 
L 223.860921 60.319719 
L 225.857942 60.439329 
L 227.854962 58.268299 
L 229.851982 59.615664 
L 231.849003 58.700988 
L 233.846023 56.55317 
L 235.843043 55.669303 
L 237.840064 53.803913 
L 239.837084 50.057634 
L 241.834105 50.080869 
L 243.831125 51.304565 
L 245.828145 47.13549 
L 247.825166 52.274741 
L 249.822186 56.263478 
L 251.819206 57.184598 
L 253.816227 60.106414 
L 255.813247 63.613618 
L 257.810268 63.090287 
L 259.807288 62.351504 
L 261.804308 60.00664 
L 263.801329 59.749196 
L 265.798349 60.630358 
L 267.795369 59.59751 
L 269.79239 60.702344 
L 271.78941 62.73128 
L 273.786431 163.802152 
L 275.783451 161.929408 
L 277.780471 161.41028 
L 279.777492 162.091207 
L 281.774512 162.560838 
L 283.771532 61.476478 
L 285.768553 59.349238 
L 287.765573 59.853397 
L 289.762593 59.628576 
L 293.756634 58.053443 
L 295.753655 61.528629 
L 297.750675 58.45794 
L 299.747695 57.951471 
L 303.741736 58.188114 
L 307.735777 60.487761 
L 309.732797 60.538124 
L 311.729818 59.325851 
L 313.726838 60.114085 
L 315.723858 58.044009 
L 317.720879 60.229627 
L 319.717899 61.197388 
L 321.714919 62.370417 
L 323.71194 62.340155 
L 325.70896 64.787767 
L 327.705981 65.384783 
L 329.703001 61.593964 
L 331.700021 60.673557 
L 333.697042 59.230596 
L 335.694062 58.604858 
L 337.691082 57.145644 
L 339.688103 161.201399 
L 343.682144 165.244964 
L 345.679164 165.056646 
L 347.676184 166.612359 
L 349.673205 65.771924 
L 351.670225 63.815567 
L 353.667245 63.815567 
L 355.664266 165.132751 
L 357.661286 164.032248 
L 359.658306 160.133928 
L 361.655327 161.987537 
L 363.652347 162.161887 
L 365.649368 60.563139 
L 367.646388 61.124042 
L 369.643408 65.46473 
L 371.640429 62.300126 
L 373.637449 60.740421 
L 375.634469 61.886996 
L 377.63149 58.748916 
L 379.62851 58.333554 
L 381.625531 61.552265 
L 383.622551 57.838062 
L 385.619571 54.673457 
L 387.616592 57.756833 
L 389.613612 57.566174 
L 391.610632 57.048064 
L 393.607653 61.594567 
L 395.604673 63.754976 
L 397.601694 60.252794 
L 399.598714 59.973822 
L 401.595734 60.049306 
L 403.592755 56.131348 
L 405.589775 57.084589 
L 407.586795 61.156217 
L 409.583816 61.472145 
L 411.580836 61.978614 
L 413.577856 64.598963 
L 415.574877 63.260885 
L 417.571897 63.206361 
L 419.568918 61.835962 
L 421.565938 61.731888 
L 423.562958 63.325018 
L 425.559979 64.768157 
L 427.556999 64.999266 
L 429.554019 66.848869 
L 431.55104 65.382337 
L 433.54806 64.58571 
L 435.545081 64.545481 
L 437.542101 165.27442 
L 439.539121 165.512615 
L 441.536142 166.865673 
L 445.530182 164.906938 
L 447.527203 64.09351 
L 449.524223 63.875683 
L 451.521244 62.828704 
L 453.518264 64.457239 
L 455.515284 64.910372 
L 457.512305 64.682818 
L 459.509325 63.262126 
L 461.506345 63.970554 
L 463.503366 164.860875 
L 465.500386 163.75906 
L 467.497407 164.446236 
L 469.494427 163.022491 
L 471.491447 163.16735 
L 473.488468 62.200219 
L 475.485488 62.849231 
L 477.482508 60.514037 
L 479.479529 58.848882 
L 481.476549 59.240537 
L 483.473569 58.730942 
L 485.47059 59.698704 
L 487.46761 60.050172 
L 489.464631 59.808042 
L 491.461651 160.161848 
L 493.458671 160.757911 
L 495.455692 158.905159 
L 497.452712 159.369408 
L 499.449732 162.722669 
L 501.446753 61.794147 
L 503.443773 60.763325 
L 505.440794 57.223515 
L 507.437814 57.625908 
L 509.434834 58.54505 
L 511.431855 53.886086 
L 513.428875 54.428046 
L 515.425895 59.143914 
L 517.422916 60.162631 
L 519.419936 56.551164 
L 521.416957 162.13865 
L 523.413977 163.040617 
L 525.410997 162.653512 
L 527.408018 161.822625 
L 529.405038 166.131238 
L 531.402058 63.699552 
L 533.399079 58.710757 
L 537.393119 57.112327 
L 539.39014 55.450573 
L 541.38716 56.326967 
L 543.384181 59.951783 
L 545.381201 58.520501 
L 547.378221 59.2034 
L 549.375242 58.2241 
L 551.372262 56.450278 
L 553.369282 57.490023 
L 555.366303 59.531335 
L 557.363323 58.956857 
L 559.360344 61.493837 
L 561.357364 61.087706 
L 563.354384 59.881298 
L 565.351405 60.586506 
L 567.348425 62.079472 
L 569.345445 61.429191 
L 571.342466 63.080607 
L 573.339486 64.124643 
L 575.336507 62.336016 
L 577.333527 61.044024 
L 579.330547 59.236988 
L 581.327568 58.801961 
L 583.324588 159.756127 
L 585.321608 161.589627 
L 587.318629 162.116481 
L 589.315649 161.274246 
L 591.31267 162.373166 
L 593.30969 60.953232 
L 595.30671 59.837807 
L 597.303731 59.394844 
L 599.300751 62.628349 
L 601.297771 62.050082 
L 603.294792 62.541495 
L 607.288832 266.300983 
L 609.285853 265.809432 
L 611.282873 266.208885 
L 613.279894 266.013997 
L 617.273934 60.417708 
L 619.270955 161.329113 
L 621.267975 161.411891 
L 623.264995 161.606779 
L 625.262016 156.456264 
L 627.259036 160.120245 
L 629.256057 160.120245 
L 631.253077 160.664898 
L 633.250097 159.161734 
L 635.247118 162.860968 
L 637.244138 163.465985 
L 639.241158 62.461897 
L 641.238179 163.433215 
L 643.235199 164.266152 
L 645.23222 163.848622 
L 647.22924 163.243605 
L 649.22626 161.863106 
L 651.223281 60.493579 
L 653.220301 59.286973 
L 655.217321 57.547873 
L 657.214342 56.23123 
L 659.211362 57.644499 
L 661.208382 53.854707 
L 663.205403 54.362156 
L 665.202423 55.718038 
L 667.199444 58.093048 
L 669.196464 58.234417 
L 669.196464 58.234417 
" clip-path="url(#p1a2101ac11)" style="fill: none; stroke: #55a868; stroke-width: 2; stroke-linecap: round"/>
   </g>
   <g id="patch_3">
    <path d="M 50.22 383.94 
L 50.22 27.65625 
" style="fill: none; stroke: #cccccc; stroke-width: 1.25; stroke-linejoin: miter; stroke-linecap: square"/>
   </g>
   <g id="patch_4">
    <path d="M 707.04 383.94 
L 707.04 27.65625 
" style="fill: none; stroke: #cccccc; stroke-width: 1.25; stroke-linejoin: miter; stroke-linecap: square"/>
   </g>
   <g id="patch_5">
    <path d="M 50.22 383.94 
L 707.04 383.94 
" style="fill: none; stroke: #cccccc; stroke-width: 1.25; stroke-linejoin: miter; stroke-linecap: square"/>
   </g>
   <g id="patch_6">
    <path d="M 50.22 27.65625 
L 707.04 27.65625 
" style="fill: none; stroke: #cccccc; stroke-width: 1.25; stroke-linejoin: miter; stroke-linecap: square"/>
   </g>
   <g id="text_16">
    <!-- Agent Performance (Smoothed Reward) -->
    <g style="fill: #262626" transform="translate(271.58625 21.65625) scale(0.12 -0.12)">
     <defs>
      <path id="ArialMT-41" d="M -9 0 
L 1750 4581 
L 2403 4581 
L 4278 0 
L 3588 0 
L 3053 1388 
L 1138 1388 
L 634 0 
L -9 0 
z
M 1313 1881 
L 2866 1881 
L 2388 3150 
Q 2169 3728 2063 4100 
Q 1975 3659 1816 3225 
L 1313 1881 
z
" transform="scale(0.015625)"/>
      <path id="ArialMT-67" d="M 319 -275 
L 866 -356 
Q 900 -609 1056 -725 
Q 1266 -881 1628 -881 
Q 2019 -881 2231 -725 
Q 2444 -569 2519 -288 
Q 2563 -116 2559 434 
Q 2191 0 1641 0 
Q 956 0 581 494 
Q 206 988 206 1678 
Q 206 2153 378 2554 
Q 550 2956 876 3175 
Q 1203 3394 1644 3394 
Q 2231 3394 2613 2919 
L 2613 3319 
L 3131 3319 
L 3131 450 
Q 3131 -325 2973 -648 
Q 2816 -972 2473 -1159 
Q 2131 -1347 1631 -1347 
Q 1038 -1347 672 -1080 
Q 306 -813 319 -275 
z
M 784 1719 
Q 784 1066 1043 766 
Q 1303 466 1694 466 
Q 2081 466 2343 764 
Q 2606 1063 2606 1700 
Q 2606 2309 2336 2618 
Q 2066 2928 1684 2928 
Q 1309 2928 1046 2623 
Q 784 2319 784 1719 
z
" transform="scale(0.015625)"/>
      <path id="ArialMT-6e" d="M 422 0 
L 422 3319 
L 928 3319 
L 928 2847 
Q 1294 3394 1984 3394 
Q 2284 3394 2536 3286 
Q 2788 3178 2913 3003 
Q 3038 2828 3088 2588 
Q 3119 2431 3119 2041 
L 3119 0 
L 2556 0 
L 2556 2019 
Q 2556 2363 2490 2533 
Q 2425 2703 2258 2804 
Q 2091 2906 1866 2906 
Q 1506 2906 1245 2678 
Q 984 2450 984 1813 
L 984 0 
L 422 0 
z
" transform="scale(0.015625)"/>
      <path id="ArialMT-50" d="M 494 0 
L 494 4581 
L 2222 4581 
Q 2678 4581 2919 4538 
Q 3256 4481 3484 4323 
Q 3713 4166 3852 3881 
Q 3991 3597 3991 3256 
Q 3991 2672 3619 2267 
Q 3247 1863 2275 1863 
L 1100 1863 
L 1100 0 
L 494 0 
z
M 1100 2403 
L 2284 2403 
Q 2872 2403 3119 2622 
Q 3366 2841 3366 3238 
Q 3366 3525 3220 3729 
Q 3075 3934 2838 4000 
Q 2684 4041 2272 4041 
L 1100 4041 
L 1100 2403 
z
" transform="scale(0.015625)"/>
      <path id="ArialMT-66" d="M 556 0 
L 556 2881 
L 59 2881 
L 59 3319 
L 556 3319 
L 556 3672 
Q 556 4006 616 4169 
Q 697 4388 901 4523 
Q 1106 4659 1475 4659 
Q 1713 4659 2000 4603 
L 1916 4113 
Q 1741 4144 1584 4144 
Q 1328 4144 1222 4034 
Q 1116 3925 1116 3625 
L 1116 3319 
L 1763 3319 
L 1763 2881 
L 1116 2881 
L 1116 0 
L 556 0 
z
" transform="scale(0.015625)"/>
      <path id="ArialMT-6d" d="M 422 0 
L 422 3319 
L 925 3319 
L 925 2853 
Q 1081 3097 1340 3245 
Q 1600 3394 1931 3394 
Q 2300 3394 2536 3241 
Q 2772 3088 2869 2813 
Q 3263 3394 3894 3394 
Q 4388 3394 4653 3120 
Q 4919 2847 4919 2278 
L 4919 0 
L 4359 0 
L 4359 2091 
Q 4359 2428 4304 2576 
Q 4250 2725 4106 2815 
Q 3963 2906 3769 2906 
Q 3419 2906 3187 2673 
Q 2956 2441 2956 1928 
L 2956 0 
L 2394 0 
L 2394 2156 
Q 2394 2531 2256 2718 
Q 2119 2906 1806 2906 
Q 1569 2906 1367 2781 
Q 1166 2656 1075 2415 
Q 984 2175 984 1722 
L 984 0 
L 422 0 
z
" transform="scale(0.015625)"/>
      <path id="ArialMT-63" d="M 2588 1216 
L 3141 1144 
Q 3050 572 2676 248 
Q 2303 -75 1759 -75 
Q 1078 -75 664 370 
Q 250 816 250 1647 
Q 250 2184 428 2587 
Q 606 2991 970 3192 
Q 1334 3394 1763 3394 
Q 2303 3394 2647 3120 
Q 2991 2847 3088 2344 
L 2541 2259 
Q 2463 2594 2264 2762 
Q 2066 2931 1784 2931 
Q 1359 2931 1093 2626 
Q 828 2322 828 1663 
Q 828 994 1084 691 
Q 1341 388 1753 388 
Q 2084 388 2306 591 
Q 2528 794 2588 1216 
z
" transform="scale(0.015625)"/>
      <path id="ArialMT-28" d="M 1497 -1347 
Q 1031 -759 709 28 
Q 388 816 388 1659 
Q 388 2403 628 3084 
Q 909 3875 1497 4659 
L 1900 4659 
Q 1522 4009 1400 3731 
Q 1209 3300 1100 2831 
Q 966 2247 966 1656 
Q 966 153 1900 -1347 
L 1497 -1347 
z
" transform="scale(0.015625)"/>
      <path id="ArialMT-53" d="M 288 1472 
L 859 1522 
Q 900 1178 1048 958 
Q 1197 738 1509 602 
Q 1822 466 2213 466 
Q 2559 466 2825 569 
Q 3091 672 3220 851 
Q 3350 1031 3350 1244 
Q 3350 1459 3225 1620 
Q 3100 1781 2813 1891 
Q 2628 1963 1997 2114 
Q 1366 2266 1113 2400 
Q 784 2572 623 2826 
Q 463 3081 463 3397 
Q 463 3744 659 4045 
Q 856 4347 1234 4503 
Q 1613 4659 2075 4659 
Q 2584 4659 2973 4495 
Q 3363 4331 3572 4012 
Q 3781 3694 3797 3291 
L 3216 3247 
Q 3169 3681 2898 3903 
Q 2628 4125 2100 4125 
Q 1550 4125 1298 3923 
Q 1047 3722 1047 3438 
Q 1047 3191 1225 3031 
Q 1400 2872 2139 2705 
Q 2878 2538 3153 2413 
Q 3553 2228 3743 1945 
Q 3934 1663 3934 1294 
Q 3934 928 3725 604 
Q 3516 281 3123 101 
Q 2731 -78 2241 -78 
Q 1619 -78 1198 103 
Q 778 284 539 648 
Q 300 1013 288 1472 
z
" transform="scale(0.015625)"/>
      <path id="ArialMT-68" d="M 422 0 
L 422 4581 
L 984 4581 
L 984 2938 
Q 1378 3394 1978 3394 
Q 2347 3394 2619 3248 
Q 2891 3103 3008 2847 
Q 3125 2591 3125 2103 
L 3125 0 
L 2563 0 
L 2563 2103 
Q 2563 2525 2380 2717 
Q 2197 2909 1863 2909 
Q 1613 2909 1392 2779 
Q 1172 2650 1078 2428 
Q 984 2206 984 1816 
L 984 0 
L 422 0 
z
" transform="scale(0.015625)"/>
      <path id="ArialMT-29" d="M 791 -1347 
L 388 -1347 
Q 1322 153 1322 1656 
Q 1322 2244 1188 2822 
Q 1081 3291 891 3722 
Q 769 4003 388 4659 
L 791 4659 
Q 1378 3875 1659 3084 
Q 1900 2403 1900 1659 
Q 1900 816 1576 28 
Q 1253 -759 791 -1347 
z
" transform="scale(0.015625)"/>
     </defs>
     <use xlink:href="#ArialMT-41"/>
     <use xlink:href="#ArialMT-67" x="66.699219"/>
     <use xlink:href="#ArialMT-65" x="122.314453"/>
     <use xlink:href="#ArialMT-6e" x="177.929688"/>
     <use xlink:href="#ArialMT-74" x="233.544922"/>
     <use xlink:href="#ArialMT-20" x="261.328125"/>
     <use xlink:href="#ArialMT-50" x="289.111328"/>
     <use xlink:href="#ArialMT-65" x="355.810547"/>
     <use xlink:href="#ArialMT-72" x="411.425781"/>
     <use xlink:href="#ArialMT-66" x="444.726562"/>
     <use xlink:href="#ArialMT-6f" x="472.509766"/>
     <use xlink:href="#ArialMT-72" x="528.125"/>
     <use xlink:href="#ArialMT-6d" x="561.425781"/>
     <use xlink:href="#ArialMT-61" x="644.726562"/>
     <use xlink:href="#ArialMT-6e" x="700.341797"/>
     <use xlink:href="#ArialMT-63" x="755.957031"/>
     <use xlink:href="#ArialMT-65" x="805.957031"/>
     <use xlink:href="#ArialMT-20" x="861.572266"/>
     <use xlink:href="#ArialMT-28" x="889.355469"/>
     <use xlink:href="#ArialMT-53" x="922.65625"/>
     <use xlink:href="#ArialMT-6d" x="989.355469"/>
     <use xlink:href="#ArialMT-6f" x="1072.65625"/>
     <use xlink:href="#ArialMT-6f" x="1128.271484"/>
     <use xlink:href="#ArialMT-74" x="1183.886719"/>
     <use xlink:href="#ArialMT-68" x="1211.669922"/>
     <use xlink:href="#ArialMT-65" x="1267.285156"/>
     <use xlink:href="#ArialMT-64" x="1322.900391"/>
     <use xlink:href="#ArialMT-20" x="1378.515625"/>
     <use xlink:href="#ArialMT-52" x="1406.298828"/>
     <use xlink:href="#ArialMT-65" x="1478.515625"/>
     <use xlink:href="#ArialMT-77" x="1534.130859"/>
     <use xlink:href="#ArialMT-61" x="1606.347656"/>
     <use xlink:href="#ArialMT-72" x="1661.962891"/>
     <use xlink:href="#ArialMT-64" x="1695.263672"/>
     <use xlink:href="#ArialMT-29" x="1750.878906"/>
    </g>
   </g>
   <g id="legend_1">
    <g id="patch_7">
     <path d="M 580.998906 378.44 
L 699.34 378.44 
Q 701.54 378.44 701.54 376.24 
L 701.54 283.171406 
Q 701.54 280.971406 699.34 280.971406 
L 580.998906 280.971406 
Q 578.798906 280.971406 578.798906 283.171406 
L 578.798906 376.24 
Q 578.798906 378.44 580.998906 378.44 
z
" style="fill: #ffffff; opacity: 0.8; stroke: #cccccc; stroke-linejoin: miter"/>
    </g>
    <g id="line2d_17">
     <path d="M 583.198906 289.535937 
L 594.198906 289.535937 
L 605.198906 289.535937 
" style="fill: none; stroke: #4c72b0; stroke-width: 2; stroke-linecap: round"/>
    </g>
    <g id="text_17">
     <!-- DDQN (avg) -->
     <g style="fill: #262626" transform="translate(613.998906 293.385938) scale(0.11 -0.11)">
      <defs>
       <path id="ArialMT-44" d="M 494 0 
L 494 4581 
L 2072 4581 
Q 2606 4581 2888 4516 
Q 3281 4425 3559 4188 
Q 3922 3881 4101 3404 
Q 4281 2928 4281 2316 
Q 4281 1794 4159 1391 
Q 4038 988 3847 723 
Q 3656 459 3429 307 
Q 3203 156 2883 78 
Q 2563 0 2147 0 
L 494 0 
z
M 1100 541 
L 2078 541 
Q 2531 541 2789 625 
Q 3047 709 3200 863 
Q 3416 1078 3536 1442 
Q 3656 1806 3656 2325 
Q 3656 3044 3420 3430 
Q 3184 3816 2847 3947 
Q 2603 4041 2063 4041 
L 1100 4041 
L 1100 541 
z
" transform="scale(0.015625)"/>
       <path id="ArialMT-51" d="M 3966 491 
Q 4388 200 4744 66 
L 4566 -356 
Q 4072 -178 3581 206 
Q 3072 -78 2456 -78 
Q 1834 -78 1328 222 
Q 822 522 548 1065 
Q 275 1609 275 2291 
Q 275 2969 550 3525 
Q 825 4081 1333 4372 
Q 1841 4663 2469 4663 
Q 3103 4663 3612 4361 
Q 4122 4059 4389 3517 
Q 4656 2975 4656 2294 
Q 4656 1728 4484 1276 
Q 4313 825 3966 491 
z
M 2631 1266 
Q 3156 1119 3497 828 
Q 4031 1316 4031 2294 
Q 4031 2850 3842 3265 
Q 3653 3681 3289 3911 
Q 2925 4141 2472 4141 
Q 1794 4141 1347 3677 
Q 900 3213 900 2291 
Q 900 1397 1342 919 
Q 1784 441 2472 441 
Q 2797 441 3084 563 
Q 2800 747 2484 825 
L 2631 1266 
z
" transform="scale(0.015625)"/>
       <path id="ArialMT-4e" d="M 488 0 
L 488 4581 
L 1109 4581 
L 3516 984 
L 3516 4581 
L 4097 4581 
L 4097 0 
L 3475 0 
L 1069 3600 
L 1069 0 
L 488 0 
z
" transform="scale(0.015625)"/>
       <path id="ArialMT-76" d="M 1344 0 
L 81 3319 
L 675 3319 
L 1388 1331 
Q 1503 1009 1600 663 
Q 1675 925 1809 1294 
L 2547 3319 
L 3125 3319 
L 1869 0 
L 1344 0 
z
" transform="scale(0.015625)"/>
      </defs>
      <use xlink:href="#ArialMT-44"/>
      <use xlink:href="#ArialMT-44" x="72.216797"/>
      <use xlink:href="#ArialMT-51" x="144.433594"/>
      <use xlink:href="#ArialMT-4e" x="222.216797"/>
      <use xlink:href="#ArialMT-20" x="294.433594"/>
      <use xlink:href="#ArialMT-28" x="322.216797"/>
      <use xlink:href="#ArialMT-61" x="355.517578"/>
      <use xlink:href="#ArialMT-76" x="411.132812"/>
      <use xlink:href="#ArialMT-67" x="461.132812"/>
      <use xlink:href="#ArialMT-29" x="516.748047"/>
     </g>
    </g>
    <g id="PathCollection_4">
     <g>
      <use xlink:href="#m2ca100b3fc" x="594.198906" y="306.187187" style="fill: #4c72b0; stroke: #4c72b0"/>
     </g>
    </g>
    <g id="text_18">
     <!-- DDQN final: 3.89 -->
     <g style="fill: #262626" transform="translate(613.998906 309.074687) scale(0.11 -0.11)">
      <defs>
       <path id="ArialMT-3a" d="M 578 2678 
L 578 3319 
L 1219 3319 
L 1219 2678 
L 578 2678 
z
M 578 0 
L 578 641 
L 1219 641 
L 1219 0 
L 578 0 
z
" transform="scale(0.015625)"/>
       <path id="ArialMT-2e" d="M 581 0 
L 581 641 
L 1222 641 
L 1222 0 
L 581 0 
z
" transform="scale(0.015625)"/>
       <path id="ArialMT-38" d="M 1131 2484 
Q 781 2613 612 2850 
Q 444 3088 444 3419 
Q 444 3919 803 4259 
Q 1163 4600 1759 4600 
Q 2359 4600 2725 4251 
Q 3091 3903 3091 3403 
Q 3091 3084 2923 2848 
Q 2756 2613 2416 2484 
Q 2838 2347 3058 2040 
Q 3278 1734 3278 1309 
Q 3278 722 2862 322 
Q 2447 -78 1769 -78 
Q 1091 -78 675 323 
Q 259 725 259 1325 
Q 259 1772 486 2073 
Q 713 2375 1131 2484 
z
M 1019 3438 
Q 1019 3113 1228 2906 
Q 1438 2700 1772 2700 
Q 2097 2700 2305 2904 
Q 2513 3109 2513 3406 
Q 2513 3716 2298 3927 
Q 2084 4138 1766 4138 
Q 1444 4138 1231 3931 
Q 1019 3725 1019 3438 
z
M 838 1322 
Q 838 1081 952 856 
Q 1066 631 1291 507 
Q 1516 384 1775 384 
Q 2178 384 2440 643 
Q 2703 903 2703 1303 
Q 2703 1709 2433 1975 
Q 2163 2241 1756 2241 
Q 1359 2241 1098 1978 
Q 838 1716 838 1322 
z
" transform="scale(0.015625)"/>
       <path id="ArialMT-39" d="M 350 1059 
L 891 1109 
Q 959 728 1153 556 
Q 1347 384 1650 384 
Q 1909 384 2104 503 
Q 2300 622 2425 820 
Q 2550 1019 2634 1356 
Q 2719 1694 2719 2044 
Q 2719 2081 2716 2156 
Q 2547 1888 2255 1720 
Q 1963 1553 1622 1553 
Q 1053 1553 659 1965 
Q 266 2378 266 3053 
Q 266 3750 677 4175 
Q 1088 4600 1706 4600 
Q 2153 4600 2523 4359 
Q 2894 4119 3086 3673 
Q 3278 3228 3278 2384 
Q 3278 1506 3087 986 
Q 2897 466 2520 194 
Q 2144 -78 1638 -78 
Q 1100 -78 759 220 
Q 419 519 350 1059 
z
M 2653 3081 
Q 2653 3566 2395 3850 
Q 2138 4134 1775 4134 
Q 1400 4134 1122 3828 
Q 844 3522 844 3034 
Q 844 2597 1108 2323 
Q 1372 2050 1759 2050 
Q 2150 2050 2401 2323 
Q 2653 2597 2653 3081 
z
" transform="scale(0.015625)"/>
      </defs>
      <use xlink:href="#ArialMT-44"/>
      <use xlink:href="#ArialMT-44" x="72.216797"/>
      <use xlink:href="#ArialMT-51" x="144.433594"/>
      <use xlink:href="#ArialMT-4e" x="222.216797"/>
      <use xlink:href="#ArialMT-20" x="294.433594"/>
      <use xlink:href="#ArialMT-66" x="322.216797"/>
      <use xlink:href="#ArialMT-69" x="350"/>
      <use xlink:href="#ArialMT-6e" x="372.216797"/>
      <use xlink:href="#ArialMT-61" x="427.832031"/>
      <use xlink:href="#ArialMT-6c" x="483.447266"/>
      <use xlink:href="#ArialMT-3a" x="505.664062"/>
      <use xlink:href="#ArialMT-20" x="533.447266"/>
      <use xlink:href="#ArialMT-33" x="561.230469"/>
      <use xlink:href="#ArialMT-2e" x="616.845703"/>
      <use xlink:href="#ArialMT-38" x="644.628906"/>
      <use xlink:href="#ArialMT-39" x="700.244141"/>
     </g>
    </g>
    <g id="line2d_18">
     <path d="M 583.198906 320.925469 
L 594.198906 320.925469 
L 605.198906 320.925469 
" style="fill: none; stroke: #dd8452; stroke-width: 2; stroke-linecap: round"/>
    </g>
    <g id="text_19">
     <!-- DQN (avg) -->
     <g style="fill: #262626" transform="translate(613.998906 324.775469) scale(0.11 -0.11)">
      <use xlink:href="#ArialMT-44"/>
      <use xlink:href="#ArialMT-51" x="72.216797"/>
      <use xlink:href="#ArialMT-4e" x="150"/>
      <use xlink:href="#ArialMT-20" x="222.216797"/>
      <use xlink:href="#ArialMT-28" x="250"/>
      <use xlink:href="#ArialMT-61" x="283.300781"/>
      <use xlink:href="#ArialMT-76" x="338.916016"/>
      <use xlink:href="#ArialMT-67" x="388.916016"/>
      <use xlink:href="#ArialMT-29" x="444.53125"/>
     </g>
    </g>
    <g id="PathCollection_5">
     <g>
      <use xlink:href="#m43d4b9c36f" x="594.198906" y="337.576719" style="fill: #dd8452; stroke: #dd8452"/>
     </g>
    </g>
    <g id="text_20">
     <!-- DQN final: 3.48 -->
     <g style="fill: #262626" transform="translate(613.998906 340.464219) scale(0.11 -0.11)">
      <use xlink:href="#ArialMT-44"/>
      <use xlink:href="#ArialMT-51" x="72.216797"/>
      <use xlink:href="#ArialMT-4e" x="150"/>
      <use xlink:href="#ArialMT-20" x="222.216797"/>
      <use xlink:href="#ArialMT-66" x="250"/>
      <use xlink:href="#ArialMT-69" x="277.783203"/>
      <use xlink:href="#ArialMT-6e" x="300"/>
      <use xlink:href="#ArialMT-61" x="355.615234"/>
      <use xlink:href="#ArialMT-6c" x="411.230469"/>
      <use xlink:href="#ArialMT-3a" x="433.447266"/>
      <use xlink:href="#ArialMT-20" x="461.230469"/>
      <use xlink:href="#ArialMT-33" x="489.013672"/>
      <use xlink:href="#ArialMT-2e" x="544.628906"/>
      <use xlink:href="#ArialMT-34" x="572.412109"/>
      <use xlink:href="#ArialMT-38" x="628.027344"/>
     </g>
    </g>
    <g id="line2d_19">
     <path d="M 583.198906 352.315 
L 594.198906 352.315 
L 605.198906 352.315 
" style="fill: none; stroke: #55a868; stroke-width: 2; stroke-linecap: round"/>
    </g>
    <g id="text_21">
     <!-- PPO (avg) -->
     <g style="fill: #262626" transform="translate(613.998906 356.165) scale(0.11 -0.11)">
      <defs>
       <path id="ArialMT-4f" d="M 309 2231 
Q 309 3372 921 4017 
Q 1534 4663 2503 4663 
Q 3138 4663 3647 4359 
Q 4156 4056 4423 3514 
Q 4691 2972 4691 2284 
Q 4691 1588 4409 1038 
Q 4128 488 3612 205 
Q 3097 -78 2500 -78 
Q 1853 -78 1343 234 
Q 834 547 571 1087 
Q 309 1628 309 2231 
z
M 934 2222 
Q 934 1394 1379 917 
Q 1825 441 2497 441 
Q 3181 441 3623 922 
Q 4066 1403 4066 2288 
Q 4066 2847 3877 3264 
Q 3688 3681 3323 3911 
Q 2959 4141 2506 4141 
Q 1863 4141 1398 3698 
Q 934 3256 934 2222 
z
" transform="scale(0.015625)"/>
      </defs>
      <use xlink:href="#ArialMT-50"/>
      <use xlink:href="#ArialMT-50" x="66.699219"/>
      <use xlink:href="#ArialMT-4f" x="133.398438"/>
      <use xlink:href="#ArialMT-20" x="211.181641"/>
      <use xlink:href="#ArialMT-28" x="238.964844"/>
      <use xlink:href="#ArialMT-61" x="272.265625"/>
      <use xlink:href="#ArialMT-76" x="327.880859"/>
      <use xlink:href="#ArialMT-67" x="377.880859"/>
      <use xlink:href="#ArialMT-29" x="433.496094"/>
     </g>
    </g>
    <g id="PathCollection_6">
     <g>
      <use xlink:href="#m2112eeec0b" x="594.198906" y="368.96625" style="fill: #55a868; stroke: #55a868"/>
     </g>
    </g>
    <g id="text_22">
     <!-- PPO final: 3.52 -->
     <g style="fill: #262626" transform="translate(613.998906 371.85375) scale(0.11 -0.11)">
      <use xlink:href="#ArialMT-50"/>
      <use xlink:href="#ArialMT-50" x="66.699219"/>
      <use xlink:href="#ArialMT-4f" x="133.398438"/>
      <use xlink:href="#ArialMT-20" x="211.181641"/>
      <use xlink:href="#ArialMT-66" x="238.964844"/>
      <use xlink:href="#ArialMT-69" x="266.748047"/>
      <use xlink:href="#ArialMT-6e" x="288.964844"/>
      <use xlink:href="#ArialMT-61" x="344.580078"/>
      <use xlink:href="#ArialMT-6c" x="400.195312"/>
      <use xlink:href="#ArialMT-3a" x="422.412109"/>
      <use xlink:href="#ArialMT-20" x="450.195312"/>
      <use xlink:href="#ArialMT-33" x="477.978516"/>
      <use xlink:href="#ArialMT-2e" x="533.59375"/>
      <use xlink:href="#ArialMT-35" x="561.376953"/>
      <use xlink:href="#ArialMT-32" x="616.992188"/>
     </g>
    </g>
   </g>
  </g>
 </g>
 <defs>
  <clipPath id="p1a2101ac11">
   <rect x="50.22" y="27.65625" width="656.82" height="356.28375"/>
  </clipPath>
 </defs>
</svg>
